<?xml version="1.0" encoding="utf-8" ?>
<svg baseProfile="full" height="200mm" version="1.1" viewBox="0,0,200,200" width="200mm" xmlns="http://www.w3.org/2000/svg" xmlns:ev="http://www.w3.org/2001/xml-events" xmlns:xlink="http://www.w3.org/1999/xlink"><defs /><rect fill="#1a1a1a" height="200" width="200" x="0" y="0" /><text alignment-baseline="middle" fill="#e1ed5e" style="dominant-baseline: central; font-size:9.0px; font-family:Arial;" text-anchor="middle" x="100.0" y="100.0">2023</text><line stroke="#e1ed5e" stroke-width="0.3" x1="100.0" x2="100.0" y1="15.0" y2="10.0" /><path d="M 100.0 14.0 a86.0,86.0 0 0,1 42.46469731375804,11.215312516191453" fill="none" id="id133" stroke="none" /><text fill="#e1ed5e" style="font-size:6.75px; font-family:Arial;" text-anchor="middle"><textPath startOffset="22.20632615414155" xlink:href="#id133">January</textPath></text><path d="M 100.72285384407766 79.0124445844662 l 0.4600982296540121 -13.358630061342161 a34.366551069618716,34.366551069618716 0 0,0 0.5910378560930011,0.025451333364520816 l -0.6899769181363448 13.348731001453446" fill="#ffa40f" stroke="none" /><path d="M 101.08401301168833 79.027996857942 l 0.10238018469088438 -1.9807119765819154 a22.983356154701514,22.983356154701514 0 0,0 0.3949174831262852,0.02382250105504372 l -0.13645971665678153 1.9786562061465676" fill="#ff0500" stroke="none" /><path d="M 102.16513564639614 79.11191278185805 l 0.991188468949842 -9.56246377611617 a30.613696898202743,30.613696898202743 0 0,0 0.5236885359283557,0.058842508858856134 l -1.155643708387923 9.543985313786713" fill="#ff710a" stroke="none" /><path d="M 103.2404852339499 79.25152402106235 l 2.3901609195611675 -15.303941491768903 a36.48946398055411,36.48946398055411 0 0,0 0.6197488612148169,0.1022638723135985 l -2.6532389869148596 15.26053135651568" fill="#ffc011" stroke="none" /><path d="M 106.40334571778207 80.00007090966166 l 5.75179806134058 -17.964913724602408 a39.863226290082224,39.863226290082224 0 0,0 0.6517014450582331,0.2148557201326529 l -6.060182328641231 17.863244280210516" fill="#ffeb16" stroke="none" /><path d="M 108.76106565485865 80.91482961587045 l 7.435873673854021 -16.198362346670148 a38.823556323235174,38.823556323235174 0 0,0 0.6049482639904675,0.2840313214141457 l -7.713600149144087 16.067966042616" fill="#ffde14" stroke="none" /><path d="M 109.08828744355905 81.06846463323043 l 6.570393463324747 -13.686586939179456 a36.18198710006757,36.18198710006757 0 0,0 0.5591473538395157,0.27437117817875406 l -6.805012084174694 13.57146060086587" fill="#ffbc11" stroke="none" /><path d="M 109.73455568895987 81.39251694778311 l 4.043756299306327 -7.72959025669487 a29.723447170962398,29.723447170962398 0 0,0 0.45130801736740084,0.2410731130912452 l -4.176209363202039 7.658838417101871" fill="#ff6509" stroke="none" /><path d="M 110.36928655335952 81.73862282372117 l 8.222363662225028 -14.480425759646236 a37.652026734740275,37.652026734740275 0 0,0 0.5608417615204558,0.32487574810350694 l -8.470402156210813 14.33674585415268" fill="#ffcf13" stroke="none" /><line stroke="#e1ed5e" stroke-width="0.3" x1="143.23703022742887" x2="145.7803849466894" y1="26.81831364943548" y2="22.513508569990506" /><path d="M 143.74570117128098 25.957352633546492 a86.0,86.0 0 0,1 28.547481713284135,27.462654790039103" fill="none" id="id134" stroke="none" /><text fill="#e1ed5e" style="font-size:6.75px; font-family:Arial;" text-anchor="middle"><textPath startOffset="19.985693538727396" xlink:href="#id134">February</textPath></text><path d="M 110.99172775467656 82.1063720568725 l 10.521389554588172 -17.127956071729383 a41.101405855175614,41.101405855175614 0 0,0 0.5996515983143013,0.3755017758522721 l -10.814660305274737 16.944309954554164" fill="#fffa17" stroke="none" /><path d="M 111.90073688211348 82.69761687909136 l 15.377802263688643 -22.35765977851489 a48.13561779714864,48.13561779714864 0 0,0 0.6786408336494633,0.47543127305003263 l -15.760374236921757 22.08964366270092" fill="#b1ff20" stroke="none" /><path d="M 112.48926042617603 83.11751280151076 l 9.210282639902708 -12.450094998157871 a36.48658037689563,36.48658037689563 0 0,0 0.5016971628586916,0.37786790179220414 l -9.423225956519783 12.28971050685982" fill="#ffc011" stroke="none" /><path d="M 112.77801427241765 83.33499621200491 l 8.105599056972222 -10.57127000397801 a34.32112929031898,34.32112929031898 0 0,0 0.4657335484716683,0.3635124219252729 l -8.28636516060332 10.430179192829513" fill="#ffa30f" stroke="none" /><path d="M 114.42810811169701 84.74124197986012 l 12.516048514627073 -13.236618008025378 a39.21701201379854,39.21701201379854 0 0,0 0.48650898881179144,0.4680212617763767 l -12.742040747051282 13.0192136594867" fill="#ffe315" stroke="none" /><path d="M 114.94478906791727 85.2469230424477 l 12.089518011400125 -11.934433386202146 a37.98785289545634,37.98785289545634 0 0,0 0.45537619614169916,0.46930519882174454 l -12.293158471244933 11.724563991830287" fill="#ffd313" stroke="none" /><path d="M 115.68641384162765 86.03803664274999 l 23.435536586574248 -20.859203791431405 a52.37404592833265,52.37404592833265 0 0,0 0.5935928127757448,0.6785791978957931 l -23.791121262927838 20.452709037332664" fill="#82ff25" stroke="none" /><path d="M 116.15771136456269 86.58626213691792 l 14.319929486396589 -11.88805617419457 a39.6114550773489,39.6114550773489 0 0,0 0.43101320077246735,0.5283712205725236 l -14.522441179245465 11.639800784013946" fill="#ffe715" stroke="none" /><path d="M 116.82858285166822 87.43820079747576 l 17.982157077926292 -13.422891780740052 a43.43951864306972,43.43951864306972 0 0,0 0.4421261537350163,0.603059576823197 l -18.210545844174934 13.111369760245362" fill="#e8ff1a" stroke="none" /><path d="M 117.2510076193507 88.02491185347247 l 14.914583344885513 -10.353218441767623 a39.1558235410706,39.1558235410706 0 0,0 0.37957941426448744,0.5569859527935126 l -15.090587224818734 10.094954465703704" fill="#ffe215" stroke="none" /><line stroke="#e1ed5e" stroke-width="0.3" x1="172.23445277983987" x2="176.4835382374775" y1="55.19839476539836" y2="52.563006222186495" /><path d="M 173.08426987136738 54.67131705675599 a86.0,86.0 0 0,1 12.851231095245387,41.99856678651699" fill="none" id="id135" stroke="none" /><text fill="#e1ed5e" style="font-size:6.75px; font-family:Arial;" text-anchor="middle"><textPath startOffset="22.20632615414155" xlink:href="#id135">March</textPath></text><path d="M 117.84615892207809 88.93136811851018 l 15.162946118479228 -9.404436526488595 a38.84259962484887,38.84259962484887 0 0,0 0.3475195630001213,0.5712307874556124 l -15.322581479765574 9.142037965825901" fill="#ffde14" stroke="none" /><path d="M 118.21658344932153 89.55222093294921 l 43.50266941110737 -24.950138432853407 a71.14969245878429,71.14969245878429 0 0,0 0.6001725877841448,1.0676400646109985 l -43.92569964018394 24.197614858307613" fill="#3dffac" stroke="none" /><path d="M 118.56541770881063 90.18545643968196 l 16.99212172798589 -8.98282610697199 a40.220389321935905,40.220389321935905 0 0,0 0.318297585711111,0.6148496235071513 l -17.144228746857117 8.689003761204493" fill="#ffef16" stroke="none" /><path d="M 118.73160827565052 90.50648371742162 l 2.1620598754903693 -1.095770866538923 a23.423884629507125,23.423884629507125 0 0,0 0.1791815487364232,0.36121906844631957 l -2.1806014371802003 1.0583922095936535" fill="#ff0b01" stroke="none" /><path d="M 118.89224826269711 90.83032412892265 l 16.295746508127426 -7.909419327916259 a39.11381429633092,39.11381429633092 0 0,0 0.28877506734482306,0.6082339386521106 l -16.429479769314007 7.627742973623608" fill="#ffe115" stroke="none" /><path d="M 119.196687751892 91.48605970444005 l 16.413721684461233 -7.279664505438829 a38.95560566638449,38.95560566638449 0 0,0 0.2665848779983124,0.6153146534612723 l -16.536597272302227 6.996050707390953" fill="#ffdf14" stroke="none" /><path d="M 119.47837535516314 92.15188598940014 l 8.31259640974637 -3.349263126839776 a29.961965329331328,29.961965329331328 0 0,0 0.18862690832183157,0.4800349071586444 l -8.3690168679499 3.2056792147853472" fill="#ff6809" stroke="none" /><path d="M 119.7369772167798 92.82701384747503 l 17.46184354324504 -6.346137027850813 a39.57927434280003,39.57927434280003 0 0,0 0.22719807551466162,0.6423195543018307 l -17.56849469956951 6.044619847122367" fill="#ffe715" stroke="none" /><path d="M 119.97218684219823 93.5106431181261 l 29.190564803328463 -9.484589448764453 a51.69277619487902,51.69277619487902 0 0,0 0.2676812352376432,0.848622666197186 l -29.34950152233431 8.980716616140848" fill="#89ff24" stroke="none" /><path d="M 120.37134235888165 94.90015583598534 l 18.800894938142356 -4.706692010737066 a40.38108872481118,40.38108872481118 0 0,0 0.16299961017245912,0.6757386161700232 l -18.879127348575636 4.382368162907636" fill="#fff116" stroke="none" /><path d="M 120.83666639777658 97.38593545837742 l 19.062068998562424 -2.3914323773222272 a40.211491959794785,40.211491959794785 0 0,0 0.08024997301114391,0.6875327609268647 l -19.100409324577157 2.0629558780705097" fill="#ffef16" stroke="none" /><path d="M 120.91429891909075 98.10471618934814 l 17.279416152633974 -1.565885512983156 a38.35022247741159,38.35022247741159 0 0,0 0.05391952925156153,0.6579548300284381 l -17.30381016570503 1.268216765746949" fill="#ffd814" stroke="none" /><path d="M 120.96714384426684 98.82574320788733 l 12.072579061844081 -0.6761201271371016 a33.09149716250209,33.09149716250209 0 0,0 0.026956005457233357,0.568998670980763 l -12.08242867553481 0.4682103495333389" fill="#ff930d" stroke="none" /><path d="M 120.98425023603335 99.18683210126433 l 7.3573380414424365 -0.28510673710773765 a28.362860103764042,28.362860103764042 0 0,0 0.014705880329598927,0.48801657428087797 l -7.3611556162276806 0.15842001540186063" fill="#ff5207" stroke="none" /><line stroke="#e1ed5e" stroke-width="0.3" x1="184.98032266829074" x2="189.97916517819016" y1="98.17113171792111" y2="98.06355123074" /><path d="M 185.9800911702706 98.14961562048488 a86.0,86.0 0 0,1 -9.607161424134198,41.387399972396054" fill="none" id="id136" stroke="none" /><text fill="#e1ed5e" style="font-size:6.75px; font-family:Arial;" text-anchor="middle"><textPath startOffset="21.466115282336823" xlink:href="#id136">April</textPath></text><path d="M 120.99513854157772 99.54816195383933 l 16.20906584102595 -0.3488365949667326 a37.21281907654256,37.21281907654256 0 0,0 0.008270093417141099,0.640527849120289 l -16.212668941560807 0.06977248778598086" fill="#ffc912" stroke="none" /><path d="M 120.99980553446 99.90962569577887 l 49.648454875528905 -0.21366600550977335 a70.64891463757633,70.64891463757633 0 0,0 -0.0052337479997784635,1.2161387150800382 l -49.64477683023963 -0.6409821877739496" fill="#3cffa6" stroke="none" /><path d="M 120.9764740272857 100.99374915477107 l 19.024637792857785 0.9012819648281191 a40.0459747014837,40.0459747014837 0 0,0 -0.03854644195155572,0.6882726150800748 l -19.0063050000187 -1.2286262962436172" fill="#ffed16" stroke="none" /><path d="M 120.92983693683757 101.71520430193887 l 16.341985453104606 1.339228959880405 a37.396768668139,37.396768668139 0 0,0 -0.05809927027289784,0.6411206061273204 l -16.316511586554633 -1.6203309545562958" fill="#ffcb13" stroke="none" /><path d="M 120.89721153311464 102.0752229133903 l 6.308344696373005 0.6264578141792988 a27.339373959722185,27.339373959722185 0 0,0 -0.05053578931040424,0.4678986456424432 l -6.296626605561549 -0.7349527817065334" fill="#ff4406" stroke="none" /><path d="M 120.8583938346157 102.4346265915055 l 6.485243323681478 0.756968440303179 a27.529271183445378,27.529271183445378 0 0,0 -0.058989316894727487,0.47020289575759494 l -6.4712524975399015 -0.8684890903481688" fill="#ff4706" stroke="none" /><path d="M 120.81339534386255 102.79330883721812 l 2.0210341262252767 0.27123745990675957 a23.039153917443173,23.039153917443173 0 0,0 -0.056134293998122226,0.3926031214808252 l -2.016065781210553 -0.3059860533679941" fill="#ff0600" stroke="none" /><path d="M 120.76222939487914 103.15116336523771 l 2.733221020029355 0.41483146070712534 a23.764522071737304,23.764522071737304 0 0,0 -0.06486384350449627,0.40390721541987196 l -2.72567542216357 -0.46181790582020227" fill="#ff1001" stroke="none" /><path d="M 120.41448212921028 104.9243191809786 l 61.24344638763086 14.772957542935806 a84.0,84.0 0 0,0 -0.35115474281975656,1.4026886424104164 l -60.980080330516046 -15.82497402474362" fill="#4dd2ff" stroke="none" /><path d="M 120.32669344350535 105.2749913415812 l 3.760811806178634 0.9759703303464372 a24.885385891672684,24.885385891672684 0 0,0 -0.111168853403572,0.41370065934324896 l -3.743454876433285 -1.0405619228652343" fill="#ff2103" stroke="none" /><path d="M 120.13307415673323 105.97154293290107 l 18.551917492875006 5.502566122486146 a40.350759070247705,40.350759070247705 0 0,0 -0.20323952469940668,0.6641985260778602 l -18.454451195669467 -5.8210916211160635" fill="#fff116" stroke="none" /><path d="M 119.79798401119884 107.00284435728193 l 13.942854851586258 4.9317972156458625 a35.789382177381675,35.789382177381675 0 0,0 -0.21043430535802712,0.5790248304073777 l -13.855896285223004 -5.171069843059371" fill="#ffb710" stroke="none" /><path d="M 119.41010516605496 108.01547362559984 l 17.039135757003116 7.03637317236815 a39.434822884053006,39.434822884053006 0 0,0 -0.26449314809875946,0.6251836720925799 l -16.915491627712047 -7.328631370126893" fill="#ffe515" stroke="none" /><path d="M 119.12269723197855 108.67885076344098 l 14.563101467389748 6.609474738582518 a36.99278214287464,36.99278214287464 0 0,0 -0.26815430646951127,0.577580520008315 l -14.447172544080406 -6.859175325869664" fill="#ffc612" stroke="none" /><path d="M 118.64920377521936 109.65438752849418 l 11.001341542028776 5.695214437047369 a33.388098450057655,33.388098450057655 0 0,0 -0.26861121372750363,0.5081111875935399 l -10.90167782007638 -5.883740639727043" fill="#ff970d" stroke="none" /><line stroke="#e1ed5e" stroke-width="0.3" x1="174.80103733775053" x2="179.2010983576182" y1="140.37084112569926" y2="142.7455964860345" /><path d="M 175.68104954172406 140.8457921977663 a86.0,86.0 0 0,1 -30.038265399797805,32.042727171017184" fill="none" id="id137" stroke="none" /><text fill="#e1ed5e" style="font-size:6.75px; font-family:Arial;" text-anchor="middle"><textPath startOffset="22.206326154141568" xlink:href="#id137">May</textPath></text><path d="M 118.48025628344425 109.97397251340804 l 1.4509069887674315 0.7830684923153521 a22.64873507687294,22.64873507687294 0 0,0 -0.18811779492808184,0.34148844030170133 l -1.4372127843878402 -0.8079274510148585" fill="#ff0000" stroke="none" /><path d="M 118.30583269289576 110.29060199501025 l 21.285416983145936 11.965571746779526 a45.41810564670662,45.41810564670662 0 0,0 -0.388969316147644,0.6782007890246472 l -21.076295670845912 -12.330192381662489" fill="#d0ff1d" stroke="none" /><path d="M 118.12598468904814 110.60418214915192 l 18.996117257608866 11.113232797114929 a43.00809882901511,43.00809882901511 0 0,0 -0.3793296382378228,0.6357782926866166 l -18.802006743672816 -11.43857318368765" fill="#edff1a" stroke="none" /><path d="M 117.94076556474637 110.91462005526583 l 10.689945742172572 6.503440210850877 a33.5127804482739,33.5127804482739 0 0,0 -0.30406522373525313,0.4902499571361846 l -10.576415878769357 -6.686486499352335" fill="#ff990e" stroke="none" /><path d="M 117.35343817320211 111.8261652097733 l 25.58528471707993 17.43607237847109 a51.96164423995157,51.96164423995157 0 0,0 -0.5100631526660679,0.7347840137230068 l -25.281360657251724 -17.873897654381114" fill="#86ff25" stroke="none" /><path d="M 116.93607887273984 112.41649034213515 l 16.34815460703022 11.985460466687389 a41.27099952281312,41.27099952281312 0 0,0 -0.4249708885257414,0.5693179529302937 l -16.139422451809388 -12.265091299126997" fill="#fffc17" stroke="none" /><path d="M 116.27256486870786 113.27417163493432 l 15.768469058240067 12.862960841639628 a41.349456455989895,41.349456455989895 0 0,0 -0.4546549951388483,0.5476612303665674 l -15.544718063207675 -13.132483329119966" fill="#fffd17" stroke="none" /><path d="M 115.80600337817218 113.82643327865902 l 37.05030417945781 32.4100625841151 a70.22537147139275,70.22537147139275 0 0,0 -0.8037165030146333,0.9029840112770903 l -36.486928826794845 -33.043020765133065" fill="#3cffa2" stroke="none" /><path d="M 115.32070863581623 114.36230785411682 l 11.034998080326437 10.344693797565503 a36.125603207746735,36.125603207746735 0 0,0 -0.4291953013245655,0.45000955753860467 l -10.855296227622908 -10.533110471686614" fill="#ffbb11" stroke="none" /><path d="M 114.81725581225074 114.88116024355365 l 2.883695142951286 2.8961320543805207 a25.086964466922996,25.086964466922996 0 0,0 -0.308629450703634,0.30205887540221776 l -2.8334157398718576 -2.9453410327053104" fill="#ff2403" stroke="none" /><path d="M 114.0293411484842 115.62618273729858 l 14.76420172246236 16.44468629308811 a43.099985515371735,43.099985515371735 0 0,0 -0.5563133649312768,0.4908818631060224 l -14.478946004624495 -16.69639129796642" fill="#ecff1a" stroke="none" /><path d="M 113.48314897796784 116.09983520530334 l 16.750060144061063 20.00075860905806 a47.08821304281827,47.08821304281827 0 0,0 -0.6258917549381934,0.5150663038204015 l -16.40329826057818 -20.286120031735642" fill="#bdff1f" stroke="none" /><path d="M 112.92097659922987 116.55440617244103 l 12.37897761692164 15.85999493894998 a41.119108486803434,41.119108486803434 0 0,0 -0.5617090921344416,0.4306945793442381 l -12.104139796293705 -16.07072886012159" fill="#fffa17" stroke="none" /><path d="M 112.63410532772338 116.77436683061366 l 5.3703139531978605 7.130193544360511 a29.92636162923909,29.92636162923909 0 0,0 -0.4141452604831457,0.3063747628905867 l -5.246783722296151 -7.221578255990866" fill="#ff6809" stroke="none" /><path d="M 112.34349029814194 116.9893568818739 l 13.871407226055862 19.092354117436475 a44.59944753964949,44.59944753964949 0 0,0 -0.6249713620931497,0.4459004728346251 l -13.540708536113828 -19.32829885211532" fill="#daff1c" stroke="none" /><path d="M 111.7513745106137 117.40417183066458 l 10.079432904117755 14.927971367134868 a39.01219855560698,39.01219855560698 0 0,0 -0.5597791658373623,0.3709911072920535 l -9.820979039540429 -15.09926049551824" fill="#ffe015" stroke="none" /><line stroke="#e1ed5e" stroke-width="0.3" x1="143.8653032363475" x2="146.44561519142675" y1="172.8068346515853" y2="177.08958963109032" /><path d="M 144.38136562736335 173.6633856474863 a86.0,86.0 0 0,1 -40.68145358897372,12.25698825130547" fill="none" id="id138" stroke="none" /><text fill="#e1ed5e" style="font-size:6.75px; font-family:Arial;" text-anchor="middle"><textPath startOffset="21.466115282336833" xlink:href="#id138">June</textPath></text><path d="M 109.89434966115114 118.52300852407294 l 18.385970641580712 34.41999753197846 a60.022815717660244,60.022815717660244 0 0,0 -0.9155168538258203,0.47895514792297683 l -17.790762885228396 -34.731382098846154" fill="#33ff2f" stroke="none" /><path d="M 108.92500713936063 119.00905698771935 l 8.101408714737028 17.254903837564285 a40.062122903989675,40.062122903989675 0 0,0 -0.6267471205456999,0.2877088630374792 l -7.803193598423909 -17.391799770935837" fill="#ffed16" stroke="none" /><path d="M 108.59647513512805 119.15986991738527 l 0.8137661386202527 1.81372633713838 a22.987918145798343,22.987918145798343 0 0,0 -0.3624202109873188,0.15887436994861698 l -0.7824252529751801 -1.8274652603814516" fill="#ff0500" stroke="none" /><path d="M 108.2653958097858 119.30500536409082 l 4.2724704858766644 9.978961388650811 a31.855122037493217,31.855122037493217 0 0,0 -0.5059329695569227,0.21148002230717244 l -4.10006605682228 -10.051026453977956" fill="#ff820c" stroke="none" /><path d="M 107.59598834532513 119.57807347666477 l 18.194096514143215 46.893879005837235 a71.29971208844103,71.29971208844103 0 0,0 -1.1480264718247872,0.43408537892383753 l -17.384199821558152 -47.2001126348677" fill="#3dffad" stroke="none" /><path d="M 106.57524785965236 119.94407469862006 l 7.125272617284707 21.6124125448058 a43.75666684463053,43.75666684463053 0 0,0 -0.7173564954558688,0.2296748964734868 l -6.752194776737897 -21.731860287938993" fill="#e4ff1a" stroke="none" /><path d="M 104.48393922423573 120.51570834832081 l 3.4682589911810844 15.868589287500974 a37.24318153581062,37.24318153581062 0 0,0 -0.627474077662168,0.13149329379028896 l -3.1945934520895385 -15.925938562017803" fill="#ffc912" stroke="none" /><path d="M 103.41894727170886 120.7198165907248 l 3.1233171586975135 18.928211972842302 a40.18416843552686,40.18416843552686 0 0,0 -0.6834449436135636,0.10674004443727109 l -2.7970363514754326 -18.97917032462668" fill="#ffef16" stroke="none" /><path d="M 101.98527174616119 120.90594882070398 l 1.5850267846078583 16.691160241680294 a37.76625003157752,37.76625003157752 0 0,0 -0.6477014069745869,0.05588640277915347 l -1.2974810598917297 -16.71597089673811" fill="#ffd013" stroke="none" /><line stroke="#e1ed5e" stroke-width="0.3" x1="102.19456741930631" x2="102.32365962044197" y1="184.97166512339345" y2="189.96999836594603" /><path d="M 102.22038585953345 185.97133177190398 a86.0,86.0 0 0,1 -42.740103519485714,-10.115201625700543" fill="none" id="id139" stroke="none" /><text fill="#e1ed5e" style="font-size:6.75px; font-family:Arial;" text-anchor="middle"><textPath startOffset="22.20632615414155" xlink:href="#id139">July</textPath></text><path d="M 100.54218724476979 120.99299961872073 l 0.2737198000041816 10.598183030963515 a31.60171712915966,31.60171712915966 0 0,0 -0.5439111637660788,0.009363923945417397 l -0.09124894634543486 -10.601324432188093" fill="#ff7f0b" stroke="none" /><path d="M 99.81925306533755 120.99922214144158 l -0.19537046168919364 22.698187012406006 a43.699027804455795,43.699027804455795 0 0,0 -0.7521233410014966,-0.012948485399612379 l 0.5860534925833581 -22.691461049727234" fill="#e4ff1a" stroke="none" /><path d="M 95.16358092515715 120.4354850818985 l -1.849102138542751 7.813073801575977 a29.028904093812322,29.028904093812322 0 0,0 -0.4852619728398659,-0.11926558655889676 l 1.9833173961258275 -7.780086956703051" fill="#ff5c08" stroke="none" /><path d="M 94.11515582081647 120.15858648285463 l -1.9192732540395891 6.574487734551149 a27.848904934033996,27.848904934033996 0 0,0 -0.45900966343350863,-0.13829584627883204 l 2.0321578919133434 -6.5404765191665915" fill="#ff4b07" stroke="none" /><line stroke="#e1ed5e" stroke-width="0.3" x1="58.666819895761336" x2="56.23545636021788" y1="174.27360380694188" y2="178.64263932499728" /><path d="M 58.180547188652646 175.14741091055294 a86.0,86.0 0 0,1 -31.652253787137756,-30.449443065178592" fill="none" id="id140" stroke="none" /><text fill="#e1ed5e" style="font-size:6.75px; font-family:Arial;" text-anchor="middle"><textPath startOffset="22.20632615414155" xlink:href="#id140">August</textPath></text><line stroke="#e1ed5e" stroke-width="0.3" x1="26.63291911575756" x2="22.317208475507996" y1="142.92168965132927" y2="145.44649492493687" /><path d="M 25.769776987707644 143.4266507060508 a86.0,86.0 0 0,1 -11.730757126820373,-40.83630448921669" fill="none" id="id141" stroke="none" /><text fill="#e1ed5e" style="font-size:6.75px; font-family:Arial;" text-anchor="middle"><textPath startOffset="21.46611528233685" xlink:href="#id141">September</textPath></text><line stroke="#e1ed5e" stroke-width="0.3" x1="15.007084014347285" x2="10.007500721073583" y1="101.09737516637583" y2="101.16192664675087" /><path d="M 14.007167355692545 101.11028546245083 a86.0,86.0 0 0,1 10.666146001902534,-42.60595125391555" fill="none" id="id142" stroke="none" /><text fill="#e1ed5e" style="font-size:6.75px; font-family:Arial;" text-anchor="middle"><textPath startOffset="22.20632615414155" xlink:href="#id142">October</textPath></text><line stroke="#e1ed5e" stroke-width="0.3" x1="26.266209847984243" x2="21.928928074336255" y1="57.711370442889674" y2="55.22380399835377" /><path d="M 25.398753493254645 57.213857153982495 a86.0,86.0 0 0,1 29.58750427330803,-30.492523968695096" fill="none" id="id143" stroke="none" /><text fill="#e1ed5e" style="font-size:6.75px; font-family:Arial;" text-anchor="middle"><textPath startOffset="21.46611528233685" xlink:href="#id143">November</textPath></text><line stroke="#e1ed5e" stroke-width="0.3" x1="56.762969772571076" x2="54.21961505331055" y1="26.818313649435495" y2="22.513508569990535" /><path d="M 56.25429882871897 25.957352633546506 a86.0,86.0 0 0,1 42.265352541879196,-11.944610805530505" fill="none" id="id144" stroke="none" /><text fill="#e1ed5e" style="font-size:6.75px; font-family:Arial;" text-anchor="middle"><textPath startOffset="22.20632615414155" xlink:href="#id144">December</textPath></text></svg>