<?xml version="1.0" encoding="utf-8" ?>
<svg baseProfile="full" height="200mm" version="1.1" viewBox="0,0,200,200" width="200mm" xmlns="http://www.w3.org/2000/svg" xmlns:ev="http://www.w3.org/2001/xml-events" xmlns:xlink="http://www.w3.org/1999/xlink"><defs /><rect fill="#1a1a1a" height="200" width="200" x="0" y="0" /><text alignment-baseline="middle" fill="#e1ed5e" style="dominant-baseline: central; font-size:9.0px; font-family:Arial;" text-anchor="middle" x="100.0" y="100.0">2021</text><line stroke="#e1ed5e" stroke-width="0.3" x1="100.0" x2="100.0" y1="15.0" y2="10.0" /><path d="M 100.0 14.0 a86.0,86.0 0 0,1 42.46469731375804,11.215312516191453" fill="none" id="id109" stroke="none" /><text fill="#e1ed5e" style="font-size:6.75px; font-family:Arial;" text-anchor="middle"><textPath startOffset="22.20632615414155" xlink:href="#id109">January</textPath></text><path d="M 100.0 79.0 l 0.0 -30.26035681484688 a51.26035681484688,51.26035681484688 0 0,0 0.8823627785291269,0.0075947750066712285 l -0.5208822992565986 30.255873416448768" fill="#8fff24" stroke="none" /><path d="M 100.72285384407766 79.0124445844662 l 0.4236431289219142 -12.300181727612927 a33.30747512827004,33.30747512827004 0 0,0 0.5728238091685263,0.024666998189687463 l -0.6353077704797719 12.291067002899045" fill="#ff930d" stroke="none" /><path d="M 101.44485096284872 79.0497635885617 l 1.3099176537311703 -18.993713006272202 a40.03882921884091,40.03882921884091 0 0,0 0.6871612789007625,0.05333694046085335 l -1.6366691219942742 18.968350803622883" fill="#ffeb16" stroke="none" /><path d="M 103.59715602781102 79.31037775812273 l 3.11382604831425 -17.909672021022416 a39.17834603476767,39.17834603476767 0 0,0 0.6634290950991525,0.12123742659731328 l -3.4216502645163036 17.853419113074363" fill="#ffe015" stroke="none" /><path d="M 103.95276090670814 79.375362276772 l 3.379753771930309 -17.63481242224376 a38.95576076713543,38.95576076713543 0 0,0 0.6574871505064525,0.13188573707362025 l -3.6828073319038865 17.57402272909293" fill="#ffdd14" stroke="none" /><path d="M 105.01212808612495 79.60689891045804 l 3.823109564558439 -15.55528080821902 a37.01820613443232,37.01820613443232 0 0,0 0.6174832650341485,0.15741023309562108 l -4.090301718277613 15.487167578954532" fill="#ffc412" stroke="none" /><path d="M 105.71112130821622 79.79150937346287 l 9.061784658309051 -32.06462977133517 a54.32051055380693,54.32051055380693 0 0,0 0.8976070733537534,0.2620361187185641 l -9.612381949386233 31.903895323697906" fill="#6eff28" stroke="none" /><path d="M 106.0581310904928 79.89281104454417 l 5.219234274577748 -17.32285554639421 a39.09203500699044,39.09203500699044 0 0,0 0.6426258235675124,0.1996669715246466 l -5.51664547085598 17.23044843998704" fill="#ffdf14" stroke="none" /><path d="M 108.09893153111575 80.62456947434976 l 12.195563065260187 -29.175982533535723 a52.622297754526315,52.622297754526315 0 0,0 0.8327259164868246,0.356529779247456 l -12.695972739537325 28.961733226325478" fill="#80ff25" stroke="none" /><path d="M 110.36928655335952 81.73862282372117 l 9.923830379546768 -17.47688316469602 a41.09785696422508,41.09785696422508 0 0,0 0.6121687593848651,0.3546076581950469 l -10.223195871396962 17.303471349110925" fill="#fff817" stroke="none" /><line stroke="#e1ed5e" stroke-width="0.3" x1="143.23703022742887" x2="145.7803849466894" y1="26.81831364943548" y2="22.513508569990506" /><path d="M 143.74570117128098 25.957352633546492 a86.0,86.0 0 0,1 28.547481713284135,27.462654790039103" fill="none" id="id110" stroke="none" /><text fill="#e1ed5e" style="font-size:6.75px; font-family:Arial;" text-anchor="middle"><textPath startOffset="19.985693538727396" xlink:href="#id110">February</textPath></text><path d="M 111.2981086023043 82.29822771554956 l 9.96202980681102 -15.608416358744341 a39.516606036196514,39.516606036196514 0 0,0 0.570230221812357,0.37089359825230583 l -10.229227054407657 15.434623836332507" fill="#ffe415" stroke="none" /><path d="M 112.19680574252982 82.90503203632743 l 19.13143963066666 -26.81450819904151 a53.9397910178299,53.9397910178299 0 0,0 0.7511878341934377,0.5457699080617688 l -19.590172781213887 26.481219056163063" fill="#72ff27" stroke="none" /><path d="M 112.77801427241765 83.33499621200491 l 11.073911515188298 -14.442523964532914 a39.19939599855796,39.19939599855796 0 0,0 0.5319310341429864,0.41518060949885555 l -11.320875104490714 14.249764965810835" fill="#ffe015" stroke="none" /><path d="M 113.89432698308785 84.25364557470407 l 18.070696729045796 -20.47940830483852 a48.31219955971022,48.31219955971022 0 0,0 0.618830992696757,0.5555925753431206 l -18.42053870933854 20.1653167207261" fill="#b0ff20" stroke="none" /><path d="M 114.16331599549186 84.49514656593476 l 8.813247660139668 -9.648031103173768 a34.067434273290445,34.067434273290445 0 0,0 0.42956133404307345,0.39923044470763763 l -8.97801687797759 9.49489607239149" fill="#ff9d0e" stroke="none" /><path d="M 114.42810811169701 84.74124197986012 l 16.134880725893574 -17.063792340219127 a44.484194367040416,44.484194367040416 0 0,0 0.5518513346198145,0.5308805466730222 l -16.426215304125805 16.783528706783805" fill="#ddff1b" stroke="none" /><path d="M 115.9244219780498 86.31012108654704 l 1.4417301248684429 -1.2394240031149637 a22.901251591044883,22.901251591044883 0 0,0 0.2544104254310496,0.30114169853139183 l -1.4628511637866097 1.2144233549544652" fill="#ff0000" stroke="none" /><path d="M 116.15771136456269 86.58626213691792 l 10.805627296397564 -8.970568215368294 a35.04395511867038,35.04395511867038 0 0,0 0.38131412324870634,0.4674460280134666 l -10.95843991172268 8.783238017746726" fill="#ffaa0f" stroke="none" /><path d="M 116.82858285166822 87.43820079747576 l 14.578186278237807 -10.881976835385409 a39.19178207347663,39.19178207347663 0 0,0 0.39889281482477074,0.5440893511362256 l -14.763341705576204 10.629425040577688" fill="#ffe015" stroke="none" /><path d="M 117.65298651832404 88.62581576622439 l 33.26180306979969 -21.431267489541074 a60.568254569318526,60.568254569318526 0 0,0 0.5571483488734351,0.8812748884523836 l -33.62577901491908 20.855544953374483" fill="#2fff31" stroke="none" /><line stroke="#e1ed5e" stroke-width="0.3" x1="172.23445277983987" x2="176.4835382374775" y1="55.19839476539836" y2="52.563006222186495" /><path d="M 173.08426987136738 54.67131705675599 a86.0,86.0 0 0,1 12.851231095245387,41.99856678651699" fill="none" id="id111" stroke="none" /><text fill="#e1ed5e" style="font-size:6.75px; font-family:Arial;" text-anchor="middle"><textPath startOffset="22.20632615414155" xlink:href="#id111">March</textPath></text><path d="M 118.73160827565052 90.50648371742162 l 25.294868573061898 -12.819894753842432 a49.3580690038668,49.3580690038668 0 0,0 0.377565693591712,0.761149398909974 l -25.511794279607017 12.382585766433508" fill="#a4ff21" stroke="none" /><path d="M 119.196687751892 91.48605970444005 l 16.640614233862333 -7.3802938246253085 a39.20381221112831,39.20381221112831 0 0,0 0.26828342972962355,0.6192351450427356 l -16.765188373434636 7.09275953499597" fill="#ffe015" stroke="none" /><path d="M 119.34039704204932 91.81776055985345 l 18.194252165096984 -7.697345991685695 a40.75550422446504,40.75550422446504 0 0,0 0.2677797963330544,0.6484500169234096 l -18.324053648316237 7.383021404308982" fill="#fff317" stroke="none" /><path d="M 119.61058180528143 92.48833698450437 l 15.080670812692766 -5.776519958324768 a37.14914285619295,37.14914285619295 0 0,0 0.2235943427676389,0.5991216745040278 l -15.17786974396203 5.516075146791407" fill="#ffc612" stroke="none" /><path d="M 119.85752413597 93.16781622104841 l 28.060227948939495 -9.654407715368668 a50.674635311676795,50.674635311676795 0 0,0 0.2766900391412135,0.8272679992593092 l -28.22225528185248 9.169966613187045" fill="#96ff23" stroke="none" /><path d="M 120.18372546131832 94.20196356495316 l 15.242952805382261 -4.378735526931475 a36.859411560392864,36.859411560392864 0 0,0 0.1699275556278649,0.6113198290054118 l -15.316067131576489 4.1157043945071115" fill="#ffc212" stroke="none" /><path d="M 120.53481517161879 95.60439243477599 l 48.108909021213336 -10.298017424602365 a70.19874276939194,70.19874276939194 0 0,0 0.24275629170453633,1.183765891493541 l -48.27904460883287 9.468375876945412" fill="#3cffa1" stroke="none" /><path d="M 120.73433829027371 96.67025291283417 l 18.131780492637443 -2.911799857573017 a39.36409655397591,39.36409655397591 0 0,0 0.10167953562569321,0.6699410975368939 l -18.179215921702436 2.599259647644041" fill="#ffe215" stroke="none" /><path d="M 120.83666639777658 97.38593545837742 l 19.88986036915344 -2.495282965915133 a41.045772187281955,41.045772187281955 0 0,0 0.0819149439554331,0.7017972151969138 l -19.92986566611246 2.1525420123933667" fill="#fff717" stroke="none" /><path d="M 120.91429891909075 98.10471618934814 l 29.71412815073835 -2.6927369762475197 a50.83588852676843,50.83588852676843 0 0,0 0.07147408805940297,0.8721649115510441 l -29.756076722617248 2.1808581474887068" fill="#94ff23" stroke="none" /><line stroke="#e1ed5e" stroke-width="0.3" x1="184.98032266829074" x2="189.97916517819016" y1="98.17113171792111" y2="98.06355123074" /><path d="M 185.9800911702706 98.14961562048488 a86.0,86.0 0 0,1 -9.607161424134198,41.387399972396054" fill="none" id="id112" stroke="none" /><text fill="#e1ed5e" style="font-size:6.75px; font-family:Arial;" text-anchor="middle"><textPath startOffset="21.466115282336823" xlink:href="#id112">April</textPath></text><path d="M 120.99513854157772 99.54816195383933 l 19.81915619380747 -0.42652963653604525 a40.82374535160751,40.82374535160751 0 0,0 0.009072577570673576,0.7026811311799449 l -19.823561778495858 0.08531224729563763" fill="#fff417" stroke="none" /><path d="M 120.9904718944345 100.63252640178507 l 31.93249322259905 0.9622530231667703 a52.94698818812077,52.94698818812077 0 0,0 -0.0352926145993442,0.9107455636014229 l -31.911198475148502 -1.5117758337821994" fill="#7dff26" stroke="none" /><path d="M 120.89721153311464 102.0752229133903 l 15.257656232829293 1.5151800405917804 a36.33270505405365,36.33270505405365 0 0,0 -0.06715961859235538,0.6218146586810432 l -15.229314312735886 -1.7775910211576151" fill="#ffbb11" stroke="none" /><path d="M 120.8583938346157 102.4346265915055 l 8.858143038995587 1.0339372611858355 a29.918280347655283,29.918280347655283 0 0,0 -0.06410845055115104,0.5110074277598237 l -8.839033079197588 -1.186262443233054" fill="#ff6509" stroke="none" /><path d="M 120.76222939487914 103.15116336523771 l 62.28668818463745 9.453490095713112 a84.0,84.0 0 0,0 -0.2292729825548463,1.4276830812271801 l -62.114733447721314 -10.524252406633499" fill="#4dd2ff" stroke="none" /><path d="M 120.41448212921028 104.9243191809786 l 5.543982492448728 1.3373025655895447 a26.702992199583512,26.702992199583512 0 0,0 -0.1116295518852704,0.44590456996106825 l -5.520141626268397 -1.432534974948009" fill="#ff3705" stroke="none" /><path d="M 120.02730092923936 106.31721596034902 l 3.0566081314748077 0.9641465787581103 a24.20506347748822,24.20506347748822 0 0,0 -0.12875681690852678,0.39627273569846394 l -3.0395590635500342 -1.0166182144343694" fill="#ff1302" stroke="none" /><path d="M 119.9155931802556 106.66101706037122 l 6.069290061416851 2.0299493104488233 a27.399763749749283,27.399763749749283 0 0,0 -0.15345064033141906,0.4459993894556463 l -6.033448590142201 -2.13412140299377" fill="#ff4106" stroke="none" /><path d="M 119.67450827220406 107.3425965602758 l 15.627115068370818 5.832095001335414 a37.679929779969214,37.679929779969214 0 0,0 -0.23201097452690464,0.6057074427190291 l -15.524409814250406 -6.100226010887587" fill="#ffcd13" stroke="none" /><path d="M 119.54520255179757 107.68017299344265 l 19.572216174042936 7.69078783826066 a42.02902431252116,42.02902431252116 0 0,0 -0.27038149094924296,0.6710646867113383 l -19.436932068836303 -8.026551892814812" fill="#fbff18" stroke="none" /><path d="M 118.97047184881838 109.00673069616215 l 17.815113317252024 8.45819383138303 a40.721037127792655,40.721037127792655 0 0,0 -0.3060801475187323,0.63061576183363 l -17.666879913118578 -8.763598549181935" fill="#fff316" stroke="none" /><path d="M 118.64920377521936 109.65438752849418 l 13.179297237779757 6.8227064501171775 a35.84059294591088,35.84059294591088 0 0,0 -0.2883418229497254,0.5454340645677584 l -13.059902906605139 -7.04855552977107" fill="#ffb510" stroke="none" /><line stroke="#e1ed5e" stroke-width="0.3" x1="174.80103733775053" x2="179.2010983576182" y1="140.37084112569926" y2="142.7455964860345" /><path d="M 175.68104954172406 140.8457921977663 a86.0,86.0 0 0,1 -30.038265399797805,32.042727171017184" fill="none" id="id113" stroke="none" /><text fill="#e1ed5e" style="font-size:6.75px; font-family:Arial;" text-anchor="middle"><textPath startOffset="22.206326154141568" xlink:href="#id113">May</textPath></text><path d="M 118.30583269289576 110.29060199501025 l 20.276099104477822 11.398184906198795 a44.260241057446166,44.260241057446166 0 0,0 -0.3790531430474375,0.660911105387719 l -20.076893965278007 -11.745515857444829" fill="#e0ff1b" stroke="none" /><path d="M 118.12598468904814 110.60418214915192 l 17.026748430393983 9.961099761536103 a40.726471315752306,40.726471315752306 0 0,0 -0.35920577871451953,0.6020495466033232 l -16.852761775981236 -10.25271140202553" fill="#fff316" stroke="none" /><path d="M 117.75023020441432 111.22182372390056 l 29.062046484732083 18.373235668028777 a55.38282034379456,55.38282034379456 0 0,0 -0.516366041703692,0.8014115637099952 l -28.74147557965134 -18.870768831660225" fill="#63ff29" stroke="none" /><path d="M 117.35343817320211 111.8261652097733 l 11.496439892484142 7.834689364479885 a34.91224236560717,34.91224236560717 0 0,0 -0.3427037128658047,0.49369025843388414 l -11.3598752724562 -8.03142088510079" fill="#ffa90f" stroke="none" /><path d="M 116.498646956653 112.99209946851258 l 13.114395077419623 10.327121112589237 a37.69241710240714,37.69241710240714 0 0,0 -0.40578954086721614,0.5062848452261044 l -12.934687624497553 -10.551333791393592" fill="#ffcd13" stroke="none" /><path d="M 116.27256486870786 113.27417163493432 l 5.020613758856681 4.095512249327929 a27.47918074296559,27.47918074296559 0 0,0 -0.30214536919995555,0.3639535613043779 l -4.949372389763182 -4.181327067746078" fill="#ff4306" stroke="none" /><path d="M 116.0416608686014 113.55231037782055 l 11.759591835147448 9.934734300382784 a36.3943803301227,36.3943803301227 0 0,0 -0.4084099206820632,0.47507300525294577 l -11.586839404894606 -10.135684404797257" fill="#ffbc11" stroke="none" /><path d="M 115.56566222782051 114.09645910891815 l 10.807274982490506 9.787203887620441 a35.58034816062421,35.58034816062421 0 0,0 -0.415025432700367,0.45042813867778964 l -10.637203141794416 -9.971783281099565" fill="#ffb110" stroke="none" /><path d="M 115.32070863581623 114.36230785411682 l 4.531694000689892 4.248209784918671 a27.211564770053315,27.211564770053315 0 0,0 -0.32329081604072746,0.338969128119053 l -4.457896633270199 -4.32558602962023" fill="#ff3f05" stroke="none" /><path d="M 114.29624159901734 115.38237550388516 l 11.735369369871066 12.6269451361648 a38.2382898722299,38.2382898722299 0 0,0 -0.4859912759292768,0.4439415078194598 l -11.516278544474925 -12.827079410570843" fill="#ffd413" stroke="none" /><path d="M 114.0293411484842 115.62618273729858 l 2.1202589338516913 2.361590127440594 a24.173736894672082,24.173736894672082 0 0,0 -0.3120226782916679,0.2753237353376655 l -2.079293902653436 -2.397737004550548" fill="#ff1302" stroke="none" /><path d="M 113.48314897796784 116.09983520530334 l 23.652455073626847 28.24270721242352 a57.838690824954895,57.838690824954895 0 0,0 -0.7687860159577625,0.6326585524477463 l -23.162798929124392 -28.645660883728446" fill="#4aff2c" stroke="none" /><path d="M 112.34349029814194 116.9893568818739 l 9.257910047494825 12.742420010720297 a36.75049733110389,36.75049733110389 0 0,0 -0.5149841453574465,0.36742751403542695 l -9.037198574288494 -12.899891786599943" fill="#ffc111" stroke="none" /><path d="M 112.04921762599082 117.19931262002967 l 10.454577635389493 14.923089170003133 a39.22077890514703,39.22077890514703 0 0,0 -0.5562685226964805,0.3826065622378375 l -10.19615222807013 -15.100836521606064" fill="#ffe015" stroke="none" /><path d="M 111.45004920935366 117.60387380957326 l 13.63077105548367 20.95662378393072 a45.99955999589237,45.99955999589237 0 0,0 -0.6674715727896395,0.42601193807879045 l -13.2680176806471 -21.18815015083332" fill="#cbff1d" stroke="none" /><line stroke="#e1ed5e" stroke-width="0.3" x1="143.8653032363475" x2="146.44561519142675" y1="172.8068346515853" y2="177.08958963109032" /><path d="M 144.38136562736335 173.6633856474863 a86.0,86.0 0 0,1 -40.68145358897372,12.25698825130547" fill="none" id="id114" stroke="none" /><text fill="#e1ed5e" style="font-size:6.75px; font-family:Arial;" text-anchor="middle"><textPath startOffset="21.466115282336833" xlink:href="#id114">June</textPath></text><path d="M 110.8373102113329 117.98757091392108 l 6.561195136851329 10.890152676516564 a33.713957170829325,33.713957170829325 0 0,0 -0.49966031744453115,0.2952081227714037 l -6.372766948378415 -11.001479371581718" fill="#ff990e" stroke="none" /><path d="M 109.89434966115114 118.52300852407294 l 5.8472693593981875 10.946552719067952 a33.410381758539536,33.410381758539536 0 0,0 -0.5096023441582397,0.2665998611693955 l -5.6579761127134525 -11.045581999182064" fill="#ff950d" stroke="none" /><path d="M 109.2508944713604 118.85261126421891 l 14.389417616654224 29.324526129351952 a53.664708357147845,53.664708357147845 0 0,0 -0.8327927918598346,0.3997911488273381 l -13.882512156794157 -29.56787155467885" fill="#75ff27" stroke="none" /><path d="M 108.59647513512805 119.15986991738527 l 7.442094488189366 16.586980136071116 a39.18000771192236,39.18000771192236 0 0,0 -0.6176995485793932,0.27078132958078893 l -7.155474264952219 -16.71262601894636" fill="#ffe015" stroke="none" /><path d="M 107.93186726928326 119.44442032107085 l 9.143506875321032 22.414670449775276 a45.207874118787714,45.207874118787714 0 0,0 -0.7230653387358658,0.2877226206509136 l -8.7563204605433 -22.56873991483226" fill="#d4ff1c" stroke="none" /><path d="M 106.91757812671514 119.82793768551818 l 9.099246013559307 26.081278684123387 a48.622986366687144,48.622986366687144 0 0,0 -0.7926247575379801,0.26890135260573 l -8.6489515230841 -26.234043023627237" fill="#adff20" stroke="none" /><path d="M 104.48393922423573 120.51570834832081 l 7.160467673205861 32.761832637486236 a54.535205010044066,54.535205010044066 0 0,0 -0.918810532631093,0.19254568054032073 l -6.5954656791453905 -32.8802342987531" fill="#6cff28" stroke="none" /><path d="M 103.7750983002368 120.6578951692458 l 3.06023492220766 16.746057238367882 a38.02338012293072,38.02338012293072 0 0,0 -0.6448602828043327,0.11211722603085661 l -2.771525667931277 -16.796253042919744" fill="#ffd113" stroke="none" /><path d="M 103.06178313531738 120.77559828337769 l 1.9203478351015244 13.030437958267653 a34.17118252823343,34.17118252823343 0 0,0 -0.5826534985093575,0.0807504657426272 l -1.6957657454053363 -13.061562989502882" fill="#ff9f0e" stroke="none" /><path d="M 101.62511606390274 120.93702456842531 l 1.2158573858721315 15.664380240370225 a36.71149634814205,36.71149634814205 0 0,0 -0.6304539376508728,0.043479794736316406 l -0.9460406874423284 -15.682988379622826" fill="#ffc011" stroke="none" /><line stroke="#e1ed5e" stroke-width="0.3" x1="102.19456741930631" x2="102.32365962044197" y1="184.97166512339345" y2="189.96999836594603" /><path d="M 102.22038585953345 185.97133177190398 a86.0,86.0 0 0,1 -42.740103519485714,-10.115201625700543" fill="none" id="id115" stroke="none" /><text fill="#e1ed5e" style="font-size:6.75px; font-family:Arial;" text-anchor="middle"><textPath startOffset="22.20632615414155" xlink:href="#id115">July</textPath></text><path d="M 100.54218724476979 120.99299961872073 l 0.27370581967437124 10.597641725240797 a31.6011756429317,31.6011756429317 0 0,0 -0.5439018440065477,0.009363763497305184 l -0.09124428577515555 -10.600782966017261" fill="#ff7c0b" stroke="none" /><path d="M 99.81925306533755 120.99922214144158 l -0.13064493624747078 15.178359970743594 a36.17892221143644,36.17892221143644 0 0,0 -0.6226914696881253,-0.0107201983560085 l 0.391896095828264 -15.173862295108426" fill="#ffb911" stroke="none" /><path d="M 99.09653310690486 120.98055641714683 l -0.6761063744134789 15.700727985481223 a36.715278524531335,36.715278524531335 0 0,0 -0.6311739818513241,-0.03262448533558732 l 0.9462684246782919 -15.686763693383433" fill="#ffc011" stroke="none" /><path d="M 97.65516085044442 120.86867818915974 l -2.0856776675112023 18.562184130138707 a39.678991702282225,39.678991702282225 0 0,0 -0.678081047758122,-0.08210617167304546 l 2.4048861383207134 -18.523532429740314" fill="#ffe615" stroke="none" /><path d="M 96.93821686468263 120.77559828337769 l -4.406515119509799 29.900219547416256 a51.223178265731114,51.223178265731114 0 0,0 -0.8711943918336585,-0.13606264698682977 l 4.920545374951975 -29.81993859308232" fill="#90ff24" stroke="none" /><path d="M 95.86986931433489 120.58985236759428 l -3.257508173114793 16.239585978104312 a37.56307677450515,37.56307677450515 0 0,0 -0.6328636808477814,-0.13262273753996776 l 3.536563315391961 -16.181107259837805" fill="#ffcb12" stroke="none" /><path d="M 95.16358092515715 120.4354850818985 l -4.199445452191334 17.74405889202043 a39.23422518423582,39.23422518423582 0 0,0 -0.6558593274557709,-0.16119426571046966 l 4.504258064390315 -17.66914336799593" fill="#ffe015" stroke="none" /><path d="M 94.46302465271185 120.25689768951611 l -7.220709808351636 26.416801711985762 a48.38587341727116,48.38587341727116 0 0,0 -0.801520822185911,-0.2265177905248329 l 7.674361798642161 -26.288595128122406" fill="#afff20" stroke="none" /><path d="M 93.42475214034765 119.94407469862007 l -5.837029306401431 17.70490649018054 a39.642280572661335,39.642280572661335 0 0,0 -0.6462263093055515,-0.21923505039311678 l 6.140925348644208 -17.6018084528893" fill="#ffe615" stroke="none" /><path d="M 92.40401165467489 119.57807347666478 l -9.88911314382751 25.488425593499215 a48.33961225048314,48.33961225048314 0 0,0 -0.7731550927260044,-0.30765436749829683 l 10.326389312595373 -25.314424381594854" fill="#b0ff20" stroke="none" /><path d="M 91.07499286063937 119.00905698771935 l -5.711465908618412 12.164649198042136 a34.438732564372934,34.438732564372934 0 0,0 -0.534435555850318,-0.25656154440340023 l 5.920014132468973 -12.064533377139174" fill="#ffa20f" stroke="none" /><path d="M 90.42595943632237 118.69057910512821 l -12.95882119726502 25.298396333893955 a49.42428370055197,49.42428370055197 0 0,0 -0.753859414542773,-0.39438361609250744 l 13.39237151433429 -25.07158329885673" fill="#a4ff21" stroke="none" /><line stroke="#e1ed5e" stroke-width="0.3" x1="58.666819895761336" x2="56.23545636021788" y1="174.27360380694188" y2="178.64263932499728" /><path d="M 58.180547188652646 175.14741091055294 a86.0,86.0 0 0,1 -31.652253787137756,-30.449443065178592" fill="none" id="id116" stroke="none" /><text fill="#e1ed5e" style="font-size:6.75px; font-family:Arial;" text-anchor="middle"><textPath startOffset="22.20632615414155" xlink:href="#id116">August</textPath></text><path d="M 89.7882731507175 118.34994917583269 l -9.161772600584518 16.46323526496157 a39.84081188734433,39.84081188734433 0 0,0 -0.5963813496974721,-0.33864089495535765 l 9.443802717203198 -16.303091204211576" fill="#ffe815" stroke="none" /><path d="M 89.1626897886671 117.98757091392108 l -9.384012918286041 15.57541442786301 a39.183872883691265,39.183872883691265 0 0,0 -0.5747356131135856,-0.3530495554250078 l 9.650727731331935 -15.411576405609622" fill="#ffe015" stroke="none" /><path d="M 88.24862548938628 117.40417183066458 l -9.078355161316798 13.445342332052581 a37.22324760524515,37.22324760524515 0 0,0 -0.5279375252952264,-0.3631202438894243 l 9.308449571234915 -13.287081298798055" fill="#ffc712" stroke="none" /><path d="M 87.65650970185807 116.9893568818739 l -19.549449790919663 26.907509247380798 a54.259510534966864,54.259510534966864 0 0,0 -0.7508871075806485,-0.5554883310127474 l 20.009721868918877 -26.56701096762828" fill="#6fff28" stroke="none" /><path d="M 87.07902340077011 116.55440617244103 l -11.54434704281599 14.790662956063628 a39.762613339427084,39.762613339427084 0 0,0 -0.5359290369381745,-0.42577443955068334 l 11.797233572471523 -14.589754602507814" fill="#ffe715" stroke="none" /><path d="M 86.24171649860922 115.8653595955263 l -7.466860876949929 8.6104078935866 a32.39706696697286,32.39706696697286 0 0,0 -0.4181653687997797,-0.36898231871206344 l 7.613968598656297 -8.480602433102248" fill="#ff870c" stroke="none" /><path d="M 85.18274418774928 114.88116024355367 l -12.89668186319923 12.952303169236291 a39.278034918130025,39.278034918130025 0 0,0 -0.4750011998502495,-0.4811737076403969 l 13.117723688105013 -12.72838896761523" fill="#ffe115" stroke="none" /><path d="M 84.67929136418377 114.36230785411682 l -14.72782208257785 13.806509855304336 a41.18733409048068,41.18733409048068 0 0,0 -0.4804278776449147,-0.5214095755253386 l 14.963296368218494 -13.550949024977653" fill="#fff917" stroke="none" /><path d="M 83.95833913139862 113.55231037782056 l -24.51114248467998 20.70749490269761 a53.087325395699956,53.087325395699956 0 0,0 -0.5837178947057415,-0.7031258070834614 l 24.86395637927926 -20.28250783850039" fill="#7bff26" stroke="none" /><path d="M 83.50135304334701 112.99209946851258 l -14.377949641119736 11.32212552832197 a39.30070934039594,39.30070934039594 0 0,0 -0.41395471355189356,-0.5350922689227635 l 14.570711171889698 -11.072955265285955" fill="#ffe115" stroke="none" /><path d="M 83.06392112726016 112.41649034213515 l -12.502022849124133 9.165713452903288 a36.50196369563399,36.50196369563399 0 0,0 -0.36714058811856426,-0.5099261658734091 l 12.657943229618304 -8.949153681578743" fill="#ffbd11" stroke="none" /><path d="M 82.44556493220864 111.52570212397912 l -21.784505952285386 14.303036557682944 a47.0603444788355,47.0603444788355 0 0,0 -0.4387707893693758,-0.6809820089225732 l 22.027481605031806 -13.925932948838922" fill="#bfff1e" stroke="none" /><line stroke="#e1ed5e" stroke-width="0.3" x1="26.63291911575756" x2="22.317208475507996" y1="142.92168965132927" y2="145.44649492493687" /><path d="M 25.769776987707644 143.4266507060508 a86.0,86.0 0 0,1 -11.730757126820373,-40.83630448921669" fill="none" id="id117" stroke="none" /><text fill="#e1ed5e" style="font-size:6.75px; font-family:Arial;" text-anchor="middle"><textPath startOffset="21.46611528233685" xlink:href="#id117">September</textPath></text><path d="M 81.51974371655577 109.97397251340807 l -17.432614542745462 9.408550163990244 a40.80951453176633,40.80951453176633 0 0,0 -0.3283173867000945,-0.6210527659989076 l 17.591984437670444 -9.10708238290521" fill="#fff417" stroke="none" /><path d="M 81.18737489456691 109.33194174019688 l -16.4023652796912 8.13634016165564 a39.30949529600939,39.30949529600939 0 0,0 -0.29547027698067174,-0.6087562859853781 l 16.53998881328659 -7.852794919704978" fill="#ffe115" stroke="none" /><path d="M 80.87730276802145 108.67885076344099 l -14.06002435282244 6.381152805391492 a36.44031722237972,36.44031722237972 0 0,0 -0.2543168268647634,-0.5734173068985354 l 14.167782264418483 -6.138187162000261" fill="#ffbd11" stroke="none" /><path d="M 80.58989483394504 108.01547362559985 l -18.241062734223274 7.532713295380656 a40.73520051239089,40.73520051239089 0 0,0 -0.2620580522345298,-0.6504065944216545 l 18.36802340071519 -7.217607333116196" fill="#fff316" stroke="none" /><path d="M 79.86692584326677 105.97154293290107 l -22.16961800814436 6.575589237442707 a44.12423699166334,44.12423699166334 0 0,0 -0.2097106544547877,-0.7300302996103334 l 22.279521299485253 -6.193001462327778" fill="#e1ff1b" stroke="none" /><path d="M 79.67330655649465 105.27499134158121 l -20.879556612459805 5.4184651651728055 a42.57117634898721,42.57117634898721 0 0,0 -0.1779651247900417,-0.7108822090330474 l 20.969733051544903 -5.058255116742367" fill="#f4ff19" stroke="none" /><path d="M 79.58551787078972 104.9243191809786 l -13.427770717788961 3.2390059412175196 a34.81289925890843,34.81289925890843 0 0,0 -0.13550412779713195,-0.5837482360775358 l 13.481535411516647 -3.00738904779141" fill="#ffa70f" stroke="none" /><path d="M 79.35854240842038 103.8639653848113 l -25.26071959897095 4.728665390648826 a46.69949865336978,46.69949865336978 0 0,0 -0.14110711097774184,-0.7914036152806592 l 25.338373152287883 -4.2931430246349525" fill="#c3ff1e" stroke="none" /><path d="M 79.1416061653843 102.43462659150553 l -18.734023566071993 2.1866665430469143 a39.86120753145518,39.86120753145518 0 0,0 -0.07368192075047748,-0.6822030762342389 l 18.768887788323525 -1.8638671449278932" fill="#ffe815" stroke="none" /><path d="M 79.10278846688536 102.07522291339032 l -2.9812405857486697 0.29605570887154115 a23.9959046067708,23.9959046067708 0 0,0 -0.03727981311869929,-0.411379631288128 l 2.9858949951444442 -0.24469468903484698" fill="#ff1001" stroke="none" /><path d="M 79.04373962182676 101.35467743843564 l -17.2573246474783 1.115566800842357 a38.293343900923375,38.293343900923375 0 0,0 -0.03685943890268313,-0.6581500423779577 l 17.273970437268517 -0.8183450421289616" fill="#ffd413" stroke="none" /><path d="M 79.0095281055655 100.63252640178507 l -17.285110687481154 0.5208691316038542 a38.29295683597033,38.29295683597033 0 0,0 -0.014182867517899642,-0.6590221230489849 l 17.29151561768406 -0.22325719276474043" fill="#ffd413" stroke="none" /><line stroke="#e1ed5e" stroke-width="0.3" x1="15.007084014347285" x2="10.007500721073583" y1="101.09737516637583" y2="101.16192664675087" /><path d="M 14.007167355692545 101.11028546245083 a86.0,86.0 0 0,1 10.666146001902534,-42.60595125391555" fill="none" id="id118" stroke="none" /><text fill="#e1ed5e" style="font-size:6.75px; font-family:Arial;" text-anchor="middle"><textPath startOffset="22.20632615414155" xlink:href="#id118">October</textPath></text><path d="M 79.00175016825051 100.2711162175752 l -29.461146901038067 0.38038383090194017 a50.46360243730146,50.46360243730146 0 0,0 -0.0037383982425310586,-0.8686720941324945 l 29.4633295965701 0.12679774143422962" fill="#98ff23" stroke="none" /><path d="M 79.00019446554 99.90962569577889 l -10.033565117430822 -0.04318023159105558 a31.033658031751173,31.033658031751173 0 0,0 0.006896850530734873,-0.5341686742013556 l 10.03133525978237 0.21588516385288312" fill="#ff740a" stroke="none" /><path d="M 79.00486145842228 99.54816195383935 l -47.7361076586513 -1.0273325690652255 a68.74716103189601,68.74716103189601 0 0,0 0.035644766410583575,-1.1828762647907216 l 47.71135119778507 1.8488789812809416" fill="#3aff91" stroke="none" /><path d="M 79.03285615573316 98.82574320788736 l -3.208337386523143 -0.17968169606199721 a24.213364949342335,24.213364949342335 0 0,0 0.026887683829196204,-0.41594056806709906 l 3.2047691116895334 0.23488132838210804" fill="#ff1302" stroke="none" /><path d="M 79.08570108090925 98.10471618934814 l -31.781314656367215 -2.880068386823265 a52.91154579771717,52.91154579771717 0 0,0 0.09000726192813581,-0.9063608443662876 l 31.72703026875685 3.426704761893983" fill="#7dff26" stroke="none" /><path d="M 79.21141760316559 97.0276538004421 l -28.458228009726923 -4.068950169673172 a49.74764506767275,49.74764506767275 0 0,0 0.1285007885806958,-0.8466596430280668 l 28.383971327706924 4.55820892509333" fill="#a0ff22" stroke="none" /><path d="M 79.32604984820605 96.31383870115002 l -17.99957438858561 -3.2093206194181665 a39.283446529810774,39.283446529810774 0 0,0 0.12442428610742963,-0.6646795116604092 l 17.94166437856832 3.5186782085411483" fill="#ffe115" stroke="none" /><path d="M 79.71946130924805 94.55025226153421 l -14.537405183993515 -3.90646383869264 a36.05312622702058,36.05312622702058 0 0,0 0.16621045624840472,-0.5979474448229206 l 14.468007957178749 4.156122586934503" fill="#ffb811" stroke="none" /><path d="M 80.2630227832202 92.82701384747504 l -20.051786643952223 -7.2873969681726685 a42.33495493752712,42.33495493752712 0 0,0 0.25480685952827586,-0.682755701535518 l 19.92337519592232 7.631475806737528" fill="#f7ff18" stroke="none" /><path d="M 80.52162464483688 92.15188598940014 l -46.29850181216664 -18.654323788125023 a70.91527888375867,70.91527888375867 0 0,0 0.4659414549702725,-1.1283141913551948 l 45.97053867031017 19.44851254993353" fill="#3dffa9" stroke="none" /><path d="M 80.803312248108 91.48605970444005 l -13.721390907440297 -6.085586454698247 a36.0103607862167,36.0103607862167 0 0,0 0.2561840222273597,-0.5644675344990037 l 13.614604568249586 6.320875998039322" fill="#ffb711" stroke="none" /><path d="M 81.10775173730289 90.83032412892265 l -13.93249515232666 -6.762374855852805 a36.486902042070135,36.486902042070135 0 0,0 0.27910740340039253,-0.5626634938905749 l 13.814027735972854 7.001197938242341" fill="#ffbd11" stroke="none" /><path d="M 81.6062741919709 89.86733742301443 l -55.08800157101009 -30.346659387291705 a83.89362171997976,83.89362171997976 0 0,0 0.7076720967617993,-1.2588696959647117 l 54.55747183295586 31.2904125931912" fill="#4dd3ff" stroke="none" /><line stroke="#e1ed5e" stroke-width="0.3" x1="26.266209847984243" x2="21.928928074336255" y1="57.711370442889674" y2="55.22380399835377" /><path d="M 25.398753493254645 57.213857153982495 a86.0,86.0 0 0,1 29.58750427330803,-30.492523968695096" fill="none" id="id119" stroke="none" /><text fill="#e1ed5e" style="font-size:6.75px; font-family:Arial;" text-anchor="middle"><textPath startOffset="21.46611528233685" xlink:href="#id119">November</textPath></text><path d="M 82.15384107792192 88.93136811851018 l -10.99983273386266 -6.822370002458216 a33.94376500958659,33.94376500958659 0 0,0 0.3122380323506679,-0.4938855830530994 l 10.88076710526603 7.010703233225531" fill="#ff9c0e" stroke="none" /><path d="M 82.7489923806493 88.02491185347247 l -26.13507091926507 -18.142115804463764 a52.81474968968935,52.81474968968935 0 0,0 0.5248462737359622,-0.742357833333634 l 25.81891202572523 18.589300138129186" fill="#7eff26" stroke="none" /><path d="M 83.17141714833178 87.43820079747576 l -12.44603193894206 -9.290417111366873 a36.531115900937195,36.531115900937195 0 0,0 0.38048733228555215,-0.5006767290640206 l 12.284268666432398 9.503278616311919" fill="#ffbe11" stroke="none" /><path d="M 83.6137871275137 86.86637796730984 l -10.235624659768977 -8.203898398977117 a34.117620253552474,34.117620253552474 0 0,0 0.37123465117627386,-0.4550897870628554 l 10.09289151651631 8.378872355648054" fill="#ff9e0e" stroke="none" /><path d="M 84.07557802195018 86.31012108654704 l -16.353482224915748 -14.058732667408195 a42.565814269215196,42.565814269215196 0 0,0 0.48242905378607354,-0.5514998047718211 l 16.109061307551833 14.33814802838296" fill="#f4ff19" stroke="none" /><path d="M 84.5562425177563 85.77008943001954 l -13.287375752382214 -12.24301591652915 a39.06781096639493,39.06781096639493 0 0,0 0.4599447395225623,-0.4906369794031163 l 13.074663690889196 12.469922312810315" fill="#ffde14" stroke="none" /><path d="M 84.80347519578584 85.50635884689758 l -12.273102430668002 -11.70543560170036 a37.96013755543342,37.96013755543342 0 0,0 0.4550439608308543,-0.46896280112961103 l 12.069794206134029 11.914962598380095" fill="#ffd013" stroke="none" /><path d="M 86.37877921826538 84.01681056812374 l -22.818618191334064 -26.775448615796154 a56.17973826990505,56.17973826990505 0 0,0 0.741418620814953,-0.6209167728744528 l 22.354342033560002 27.164266546064418" fill="#5bff2a" stroke="none" /><path d="M 87.80319425747018 82.90503203632743 l -20.003210933923345 -28.03637749953024 a55.44077395999103,55.44077395999103 0 0,0 0.7816327031873536,-0.5475836594381075 l 19.517647091152334 28.37654600173229" fill="#62ff29" stroke="none" /><path d="M 88.39885842347998 82.49532879139004 l -1.926041865974047 -2.906156206741738 a24.48645682139738,24.48645682139738 0 0,0 0.35334303993298466,-0.22982414204850077 l 1.8757318002567753 2.938879272949774" fill="#ff1702" stroke="none" /><path d="M 88.70189139769569 82.29822771554957 l -6.71341779419821 -10.518521039799195 a33.47835178796284,33.47835178796284 0 0,0 0.48843456180839595,-0.30585767779534606 l 6.531364080017572 10.63252305891747" fill="#ff950d" stroke="none" /><line stroke="#e1ed5e" stroke-width="0.3" x1="56.762969772571076" x2="54.21961505331055" y1="26.818313649435495" y2="22.513508569990535" /><path d="M 56.25429882871897 25.957352633546506 a86.0,86.0 0 0,1 42.265352541879196,-11.944610805530505" fill="none" id="id120" stroke="none" /><text fill="#e1ed5e" style="font-size:6.75px; font-family:Arial;" text-anchor="middle"><textPath startOffset="22.20632615414155" xlink:href="#id120">December</textPath></text><path d="M 89.3179101791058 81.91981866633112 l -9.229319789906329 -15.621266829411152 a39.14398856756743,39.14398856756743 0 0,0 0.5830651203940593,-0.33774895198165433 l 8.95905793704695 15.777819938782853" fill="#ffdf14" stroke="none" /><path d="M 90.26544431104013 81.39251694778311 l -9.124584033118301 -17.44152976055541 a40.68413051586931,40.68413051586931 0 0,0 0.6233186816690901,-0.3192880385798508 l 8.823004863860447 17.596010324447768" fill="#fff316" stroke="none" /><path d="M 90.91171255644093 81.06846463323043 l -7.519760269603388 -15.66418408063415 a38.37565703575833,38.37565703575833 0 0,0 0.5979691017996955,-0.28075451118523076 l 7.249012956504084 15.79130357445939" fill="#ffd614" stroke="none" /><path d="M 91.90106846888425 80.62456947434976 l -5.8769175342197215 -14.059608597970556 a36.23846296816535,36.23846296816535 0 0,0 0.5775999093699561,-0.23561750570202666 l 5.6340337552613855 14.15868698985616" fill="#ffba11" stroke="none" /><path d="M 92.91201910852362 80.23233633223022 l -10.78330275544778 -30.073543560728595 a52.94835896591072,52.94835896591072 0 0,0 0.8605822747801155,-0.30024025769486784 l 10.264038476604378 30.254704671595672" fill="#7dff26" stroke="none" /><path d="M 93.94186890950719 79.89281104454417 l -4.4579212506863515 -14.796025968596334 a36.45300767943568,36.45300767943568 0 0,0 0.6023595361032108,-0.17584526637458756 l 4.202571496859719 14.870569563889621" fill="#ffbd11" stroke="none" /><path d="M 95.33964822691252 79.52364482259891 l -4.454880935180735 -19.573570567905943 a41.07412834778712,41.07412834778712 0 0,0 0.6907441559558639,-0.15096991837747734 l 4.11729405507135 19.64735398437929" fill="#fff717" stroke="none" /><path d="M 96.04723909329186 79.375362276772 l -4.055681194737345 -21.161653167640612 a42.546788965896056,42.546788965896056 0 0,0 0.720468844651344,-0.13166107623907444 l 3.6908172289831085 21.22832972523042" fill="#f4ff19" stroke="none" /><path d="M 96.40284397218896 79.31037775812273 l -2.9783035346774978 -17.13019245696236 a38.387173017982036,38.387173017982036 0 0,0 0.651980165447981,-0.10758231368054094 l 2.682994163090631 17.178921033582526" fill="#ffd614" stroke="none" /><path d="M 96.75951476605007 79.25152402106235 l -2.3768544300815067 -15.21874148084448 a36.4032311299472,36.4032311299472 0 0,0 0.6199487935568843,-0.09136433690054002 l 2.1145366560959737 15.257400301905989" fill="#ffbc11" stroke="none" /><path d="M 97.11714578562143 79.19881850522333 l -2.4098088159109805 -17.387931133480016 a38.55412565842816,38.55412565842816 0 0,0 0.6581469620858946,-0.08544636462303946 l 2.110147125317228 17.426835821267193" fill="#ffd814" stroke="none" /><path d="M 97.83486435360386 79.11191278185805 l -2.485079888545055 -23.97474058606031 a45.10319083070411,45.10319083070411 0 0,0 0.7729288127630695,-0.07339890415558165 l 2.072025948691749 24.013965034731072" fill="#d6ff1c" stroke="none" /><path d="M 98.55514903715128 79.0497635885617 l -1.0326373933516932 -14.97316891103778 a36.008735030795116,36.008735030795116 0 0,0 0.6187294367804288,-0.03732344930339243 l 0.7747459077316414 14.988725629721477" fill="#ffb711" stroke="none" /><path d="M 98.91598698831166 79.02799685794201 l -0.8427578767456779 -16.304528311497783 a37.3262942610762,37.3262942610762 0 0,0 0.6419396840629252,-0.027643273151748738 l 0.5619773602934286 16.316619311173724" fill="#ffc812" stroke="none" /><path d="M 99.27714615592234 79.0124445844662 l -0.6963403073931973 -20.21775343552634 a41.22974156541397,41.22974156541397 0 0,0 0.7094919256923429,-0.018324083235562044 l 0.34822174650597537 20.226744310904262" fill="#fff917" stroke="none" /></svg>