<?xml version="1.0" encoding="utf-8" ?>
<svg baseProfile="full" height="200mm" version="1.1" viewBox="0,0,200,200" width="200mm" xmlns="http://www.w3.org/2000/svg" xmlns:ev="http://www.w3.org/2001/xml-events" xmlns:xlink="http://www.w3.org/1999/xlink"><defs /><rect fill="#1a1a1a" height="200" width="200" x="0" y="0" /><text alignment-baseline="middle" fill="#e1ed5e" style="dominant-baseline: central; font-size:9.0px; font-family:Arial;" text-anchor="middle" x="100.0" y="100.0">2023</text><line stroke="#e1ed5e" stroke-width="0.3" x1="100.0" x2="100.0" y1="15.0" y2="10.0" /><path d="M 100.0 14.0 a86.0,86.0 0 0,1 42.46469731375804,11.215312516191453" fill="none" id="id133" stroke="none" /><text fill="#e1ed5e" style="font-size:6.75px; font-family:Arial;" text-anchor="middle"><textPath startOffset="22.20632615414155" xlink:href="#id133">January</textPath></text><path d="M 100.72285384407766 79.0124445844662 l 0.4600982296540121 -13.358630061342161 a34.366551069618716,34.366551069618716 0 0,0 0.5910378560930011,0.025451333364520816 l -0.6899769181363448 13.348731001453446" fill="#ffa00e" stroke="none" /><path d="M 101.08401301168833 79.027996857942 l 0.10238018469088438 -1.9807119765819154 a22.983356154701514,22.983356154701514 0 0,0 0.3949174831262852,0.02382250105504372 l -0.13645971665678153 1.9786562061465676" fill="#ff0000" stroke="none" /><path d="M 102.16513564639614 79.11191278185805 l 0.991188468949842 -9.56246377611617 a30.613696898202743,30.613696898202743 0 0,0 0.5236885359283557,0.058842508858856134 l -1.155643708387923 9.543985313786713" fill="#ff6d0a" stroke="none" /><path d="M 103.2404852339499 79.25152402106235 l 2.3901609195611675 -15.303941491768903 a36.48946398055411,36.48946398055411 0 0,0 0.6197488612148169,0.1022638723135985 l -2.6532389869148596 15.26053135651568" fill="#ffbc11" stroke="none" /><path d="M 106.40334571778207 80.00007090966166 l 5.75179806134058 -17.964913724602408 a39.863226290082224,39.863226290082224 0 0,0 0.6517014450582331,0.2148557201326529 l -6.060182328641231 17.863244280210516" fill="#ffe815" stroke="none" /><path d="M 108.76106565485865 80.91482961587045 l 7.435873673854021 -16.198362346670148 a38.823556323235174,38.823556323235174 0 0,0 0.6049482639904675,0.2840313214141457 l -7.713600149144087 16.067966042616" fill="#ffda14" stroke="none" /><path d="M 109.08828744355905 81.06846463323043 l 6.570393463324747 -13.686586939179456 a36.18198710006757,36.18198710006757 0 0,0 0.5591473538395157,0.27437117817875406 l -6.805012084174694 13.57146060086587" fill="#ffb811" stroke="none" /><path d="M 109.73455568895987 81.39251694778311 l 4.043756299306327 -7.72959025669487 a29.723447170962398,29.723447170962398 0 0,0 0.45130801736740084,0.2410731130912452 l -4.176209363202039 7.658838417101871" fill="#ff6109" stroke="none" /><path d="M 110.36928655335952 81.73862282372117 l 8.222363662225028 -14.480425759646236 a37.652026734740275,37.652026734740275 0 0,0 0.5608417615204558,0.32487574810350694 l -8.470402156210813 14.33674585415268" fill="#ffcb13" stroke="none" /><line stroke="#e1ed5e" stroke-width="0.3" x1="143.23703022742887" x2="145.7803849466894" y1="26.81831364943548" y2="22.513508569990506" /><path d="M 143.74570117128098 25.957352633546492 a86.0,86.0 0 0,1 28.547481713284135,27.462654790039103" fill="none" id="id134" stroke="none" /><text fill="#e1ed5e" style="font-size:6.75px; font-family:Arial;" text-anchor="middle"><textPath startOffset="19.985693538727396" xlink:href="#id134">February</textPath></text><path d="M 110.99172775467656 82.1063720568725 l 10.521389554588172 -17.127956071729383 a41.101405855175614,41.101405855175614 0 0,0 0.5996515983143013,0.3755017758522721 l -10.814660305274737 16.944309954554164" fill="#fff717" stroke="none" /><path d="M 111.90073688211348 82.69761687909136 l 15.377802263688643 -22.35765977851489 a48.13561779714864,48.13561779714864 0 0,0 0.6786408336494633,0.47543127305003263 l -15.760374236921757 22.08964366270092" fill="#b3ff20" stroke="none" /><path d="M 112.48926042617603 83.11751280151076 l 9.210282639902708 -12.450094998157871 a36.48658037689563,36.48658037689563 0 0,0 0.5016971628586916,0.37786790179220414 l -9.423225956519783 12.28971050685982" fill="#ffbc11" stroke="none" /><path d="M 112.77801427241765 83.33499621200491 l 8.105599056972222 -10.57127000397801 a34.32112929031898,34.32112929031898 0 0,0 0.4657335484716683,0.3635124219252729 l -8.28636516060332 10.430179192829513" fill="#ffa00e" stroke="none" /><path d="M 114.42810811169701 84.74124197986012 l 12.516048514627073 -13.236618008025378 a39.21701201379854,39.21701201379854 0 0,0 0.48650898881179144,0.4680212617763767 l -12.742040747051282 13.0192136594867" fill="#ffdf14" stroke="none" /><path d="M 114.94478906791727 85.2469230424477 l 12.089518011400125 -11.934433386202146 a37.98785289545634,37.98785289545634 0 0,0 0.45537619614169916,0.46930519882174454 l -12.293158471244933 11.724563991830287" fill="#ffd013" stroke="none" /><path d="M 115.68641384162765 86.03803664274999 l 23.435536586574248 -20.859203791431405 a52.37404592833265,52.37404592833265 0 0,0 0.5935928127757448,0.6785791978957931 l -23.791121262927838 20.452709037332664" fill="#83ff25" stroke="none" /><path d="M 116.15771136456269 86.58626213691792 l 14.319929486396589 -11.88805617419457 a39.6114550773489,39.6114550773489 0 0,0 0.43101320077246735,0.5283712205725236 l -14.522441179245465 11.639800784013946" fill="#ffe415" stroke="none" /><path d="M 116.82858285166822 87.43820079747576 l 17.982157077926292 -13.422891780740052 a43.43951864306972,43.43951864306972 0 0,0 0.4421261537350163,0.603059576823197 l -18.210545844174934 13.111369760245362" fill="#eaff1a" stroke="none" /><path d="M 117.2510076193507 88.02491185347247 l 14.914583344885513 -10.353218441767623 a39.1558235410706,39.1558235410706 0 0,0 0.37957941426448744,0.5569859527935126 l -15.090587224818734 10.094954465703704" fill="#ffdf14" stroke="none" /><line stroke="#e1ed5e" stroke-width="0.3" x1="172.23445277983987" x2="176.4835382374775" y1="55.19839476539836" y2="52.563006222186495" /><path d="M 173.08426987136738 54.67131705675599 a86.0,86.0 0 0,1 12.851231095245387,41.99856678651699" fill="none" id="id135" stroke="none" /><text fill="#e1ed5e" style="font-size:6.75px; font-family:Arial;" text-anchor="middle"><textPath startOffset="22.20632615414155" xlink:href="#id135">March</textPath></text><path d="M 117.84615892207809 88.93136811851018 l 15.162946118479228 -9.404436526488595 a38.84259962484887,38.84259962484887 0 0,0 0.3475195630001213,0.5712307874556124 l -15.322581479765574 9.142037965825901" fill="#ffdb14" stroke="none" /><path d="M 118.21658344932153 89.55222093294921 l 43.50266941110737 -24.950138432853407 a71.14969245878429,71.14969245878429 0 0,0 0.6001725877841448,1.0676400646109985 l -43.92569964018394 24.197614858307613" fill="#3dffab" stroke="none" /><path d="M 118.56541770881063 90.18545643968196 l 16.99212172798589 -8.98282610697199 a40.220389321935905,40.220389321935905 0 0,0 0.318297585711111,0.6148496235071513 l -17.144228746857117 8.689003761204493" fill="#ffec16" stroke="none" /><path d="M 118.73160827565052 90.50648371742162 l 2.1620598754903693 -1.095770866538923 a23.423884629507125,23.423884629507125 0 0,0 0.1791815487364232,0.36121906844631957 l -2.1806014371802003 1.0583922095936535" fill="#ff0701" stroke="none" /><path d="M 118.89224826269711 90.83032412892265 l 16.295746508127426 -7.909419327916259 a39.11381429633092,39.11381429633092 0 0,0 0.28877506734482306,0.6082339386521106 l -16.429479769314007 7.627742973623608" fill="#ffde14" stroke="none" /><path d="M 119.196687751892 91.48605970444005 l 16.413721684461233 -7.279664505438829 a38.95560566638449,38.95560566638449 0 0,0 0.2665848779983124,0.6153146534612723 l -16.536597272302227 6.996050707390953" fill="#ffdc14" stroke="none" /><path d="M 119.47837535516314 92.15188598940014 l 8.31259640974637 -3.349263126839776 a29.961965329331328,29.961965329331328 0 0,0 0.18862690832183157,0.4800349071586444 l -8.3690168679499 3.2056792147853472" fill="#ff6409" stroke="none" /><path d="M 119.7369772167798 92.82701384747503 l 17.46184354324504 -6.346137027850813 a39.57927434280003,39.57927434280003 0 0,0 0.22719807551466162,0.6423195543018307 l -17.56849469956951 6.044619847122367" fill="#ffe415" stroke="none" /><path d="M 119.97218684219823 93.5106431181261 l 29.190564803328463 -9.484589448764453 a51.69277619487902,51.69277619487902 0 0,0 0.2676812352376432,0.848622666197186 l -29.34950152233431 8.980716616140848" fill="#8bff24" stroke="none" /><path d="M 120.37134235888165 94.90015583598534 l 18.800894938142356 -4.706692010737066 a40.38108872481118,40.38108872481118 0 0,0 0.16299961017245912,0.6757386161700232 l -18.879127348575636 4.382368162907636" fill="#ffee16" stroke="none" /><path d="M 120.83666639777658 97.38593545837742 l 19.062068998562424 -2.3914323773222272 a40.211491959794785,40.211491959794785 0 0,0 0.08024997301114391,0.6875327609268647 l -19.100409324577157 2.0629558780705097" fill="#ffec16" stroke="none" /><path d="M 120.91429891909075 98.10471618934814 l 17.279416152633974 -1.565885512983156 a38.35022247741159,38.35022247741159 0 0,0 0.05391952925156153,0.6579548300284381 l -17.30381016570503 1.268216765746949" fill="#ffd413" stroke="none" /><path d="M 120.96714384426684 98.82574320788733 l 12.072579061844081 -0.6761201271371016 a33.09149716250209,33.09149716250209 0 0,0 0.026956005457233357,0.568998670980763 l -12.08242867553481 0.4682103495333389" fill="#ff8f0d" stroke="none" /><path d="M 120.98425023603335 99.18683210126433 l 7.3573380414424365 -0.28510673710773765 a28.362860103764042,28.362860103764042 0 0,0 0.014705880329598927,0.48801657428087797 l -7.3611556162276806 0.15842001540186063" fill="#ff4e07" stroke="none" /><line stroke="#e1ed5e" stroke-width="0.3" x1="184.98032266829074" x2="189.97916517819016" y1="98.17113171792111" y2="98.06355123074" /><path d="M 185.9800911702706 98.14961562048488 a86.0,86.0 0 0,1 -9.607161424134198,41.387399972396054" fill="none" id="id136" stroke="none" /><text fill="#e1ed5e" style="font-size:6.75px; font-family:Arial;" text-anchor="middle"><textPath startOffset="21.466115282336823" xlink:href="#id136">April</textPath></text><path d="M 120.99513854157772 99.54816195383933 l 16.20906584102595 -0.3488365949667326 a37.21281907654256,37.21281907654256 0 0,0 0.008270093417141099,0.640527849120289 l -16.212668941560807 0.06977248778598086" fill="#ffc612" stroke="none" /><path d="M 120.99980553446 99.90962569577887 l 49.648454875528905 -0.21366600550977335 a70.64891463757633,70.64891463757633 0 0,0 -0.0052337479997784635,1.2161387150800382 l -49.64477683023963 -0.6409821877739496" fill="#3cffa6" stroke="none" /><path d="M 120.9764740272857 100.99374915477107 l 19.024637792857785 0.9012819648281191 a40.0459747014837,40.0459747014837 0 0,0 -0.03854644195155572,0.6882726150800748 l -19.0063050000187 -1.2286262962436172" fill="#ffea16" stroke="none" /><path d="M 120.92983693683757 101.71520430193887 l 16.341985453104606 1.339228959880405 a37.396768668139,37.396768668139 0 0,0 -0.05809927027289784,0.6411206061273204 l -16.316511586554633 -1.6203309545562958" fill="#ffc812" stroke="none" /><path d="M 120.89721153311464 102.0752229133903 l 6.308344696373005 0.6264578141792988 a27.339373959722185,27.339373959722185 0 0,0 -0.05053578931040424,0.4678986456424432 l -6.296626605561549 -0.7349527817065334" fill="#ff3f05" stroke="none" /><path d="M 120.8583938346157 102.4346265915055 l 6.485243323681478 0.756968440303179 a27.529271183445378,27.529271183445378 0 0,0 -0.058989316894727487,0.47020289575759494 l -6.4712524975399015 -0.8684890903481688" fill="#ff4206" stroke="none" /><path d="M 120.81339534386255 102.79330883721812 l 2.0210341262252767 0.27123745990675957 a23.039153917443173,23.039153917443173 0 0,0 -0.056134293998122226,0.3926031214808252 l -2.016065781210553 -0.3059860533679941" fill="#ff0100" stroke="none" /><path d="M 120.76222939487914 103.15116336523771 l 2.733221020029355 0.41483146070712534 a23.764522071737304,23.764522071737304 0 0,0 -0.06486384350449627,0.40390721541987196 l -2.72567542216357 -0.46181790582020227" fill="#ff0c01" stroke="none" /><path d="M 120.41448212921028 104.9243191809786 l 61.24344638763086 14.772957542935806 a84.0,84.0 0 0,0 -0.35115474281975656,1.4026886424104164 l -60.980080330516046 -15.82497402474362" fill="#4dd2ff" stroke="none" /><path d="M 120.32669344350535 105.2749913415812 l 3.760811806178634 0.9759703303464372 a24.885385891672684,24.885385891672684 0 0,0 -0.111168853403572,0.41370065934324896 l -3.743454876433285 -1.0405619228652343" fill="#ff1c02" stroke="none" /><path d="M 120.13307415673323 105.97154293290107 l 18.551917492875006 5.502566122486146 a40.350759070247705,40.350759070247705 0 0,0 -0.20323952469940668,0.6641985260778602 l -18.454451195669467 -5.8210916211160635" fill="#ffee16" stroke="none" /><path d="M 119.79798401119884 107.00284435728193 l 13.942854851586258 4.9317972156458625 a35.789382177381675,35.789382177381675 0 0,0 -0.21043430535802712,0.5790248304073777 l -13.855896285223004 -5.171069843059371" fill="#ffb310" stroke="none" /><path d="M 119.41010516605496 108.01547362559984 l 17.039135757003116 7.03637317236815 a39.434822884053006,39.434822884053006 0 0,0 -0.26449314809875946,0.6251836720925799 l -16.915491627712047 -7.328631370126893" fill="#ffe215" stroke="none" /><line stroke="#e1ed5e" stroke-width="0.3" x1="174.80103733775053" x2="179.2010983576182" y1="140.37084112569926" y2="142.7455964860345" /><path d="M 175.68104954172406 140.8457921977663 a86.0,86.0 0 0,1 -30.038265399797805,32.042727171017184" fill="none" id="id137" stroke="none" /><text fill="#e1ed5e" style="font-size:6.75px; font-family:Arial;" text-anchor="middle"><textPath startOffset="22.206326154141568" xlink:href="#id137">May</textPath></text><line stroke="#e1ed5e" stroke-width="0.3" x1="143.8653032363475" x2="146.44561519142675" y1="172.8068346515853" y2="177.08958963109032" /><path d="M 144.38136562736335 173.6633856474863 a86.0,86.0 0 0,1 -40.68145358897372,12.25698825130547" fill="none" id="id138" stroke="none" /><text fill="#e1ed5e" style="font-size:6.75px; font-family:Arial;" text-anchor="middle"><textPath startOffset="21.466115282336833" xlink:href="#id138">June</textPath></text><line stroke="#e1ed5e" stroke-width="0.3" x1="102.19456741930631" x2="102.32365962044197" y1="184.97166512339345" y2="189.96999836594603" /><path d="M 102.22038585953345 185.97133177190398 a86.0,86.0 0 0,1 -42.740103519485714,-10.115201625700543" fill="none" id="id139" stroke="none" /><text fill="#e1ed5e" style="font-size:6.75px; font-family:Arial;" text-anchor="middle"><textPath startOffset="22.20632615414155" xlink:href="#id139">July</textPath></text><line stroke="#e1ed5e" stroke-width="0.3" x1="58.666819895761336" x2="56.23545636021788" y1="174.27360380694188" y2="178.64263932499728" /><path d="M 58.180547188652646 175.14741091055294 a86.0,86.0 0 0,1 -31.652253787137756,-30.449443065178592" fill="none" id="id140" stroke="none" /><text fill="#e1ed5e" style="font-size:6.75px; font-family:Arial;" text-anchor="middle"><textPath startOffset="22.20632615414155" xlink:href="#id140">August</textPath></text><line stroke="#e1ed5e" stroke-width="0.3" x1="26.63291911575756" x2="22.317208475507996" y1="142.92168965132927" y2="145.44649492493687" /><path d="M 25.769776987707644 143.4266507060508 a86.0,86.0 0 0,1 -11.730757126820373,-40.83630448921669" fill="none" id="id141" stroke="none" /><text fill="#e1ed5e" style="font-size:6.75px; font-family:Arial;" text-anchor="middle"><textPath startOffset="21.46611528233685" xlink:href="#id141">September</textPath></text><line stroke="#e1ed5e" stroke-width="0.3" x1="15.007084014347285" x2="10.007500721073583" y1="101.09737516637583" y2="101.16192664675087" /><path d="M 14.007167355692545 101.11028546245083 a86.0,86.0 0 0,1 10.666146001902534,-42.60595125391555" fill="none" id="id142" stroke="none" /><text fill="#e1ed5e" style="font-size:6.75px; font-family:Arial;" text-anchor="middle"><textPath startOffset="22.20632615414155" xlink:href="#id142">October</textPath></text><line stroke="#e1ed5e" stroke-width="0.3" x1="26.266209847984243" x2="21.928928074336255" y1="57.711370442889674" y2="55.22380399835377" /><path d="M 25.398753493254645 57.213857153982495 a86.0,86.0 0 0,1 29.58750427330803,-30.492523968695096" fill="none" id="id143" stroke="none" /><text fill="#e1ed5e" style="font-size:6.75px; font-family:Arial;" text-anchor="middle"><textPath startOffset="21.46611528233685" xlink:href="#id143">November</textPath></text><line stroke="#e1ed5e" stroke-width="0.3" x1="56.762969772571076" x2="54.21961505331055" y1="26.818313649435495" y2="22.513508569990535" /><path d="M 56.25429882871897 25.957352633546506 a86.0,86.0 0 0,1 42.265352541879196,-11.944610805530505" fill="none" id="id144" stroke="none" /><text fill="#e1ed5e" style="font-size:6.75px; font-family:Arial;" text-anchor="middle"><textPath startOffset="22.20632615414155" xlink:href="#id144">December</textPath></text></svg>