<?xml version="1.0" encoding="utf-8" ?>
<svg baseProfile="full" height="200mm" version="1.1" viewBox="0,0,200,200" width="200mm" xmlns="http://www.w3.org/2000/svg" xmlns:ev="http://www.w3.org/2001/xml-events" xmlns:xlink="http://www.w3.org/1999/xlink"><defs /><rect fill="#1a1a1a" height="200" width="200" x="0" y="0" /><text alignment-baseline="middle" fill="#e1ed5e" style="dominant-baseline: central; font-size:9.0px; font-family:Arial;" text-anchor="middle" x="100.0" y="100.0">2014</text><line stroke="#e1ed5e" stroke-width="0.3" x1="100.0" x2="100.0" y1="15.0" y2="10.0" /><path d="M 100.0 14.0 a86.0,86.0 0 0,1 42.46469731375804,11.215312516191453" fill="none" id="id25" stroke="none" /><text fill="#e1ed5e" style="font-size:6.75px; font-family:Arial;" text-anchor="middle"><textPath startOffset="22.20632615414155" xlink:href="#id25">January</textPath></text><line stroke="#e1ed5e" stroke-width="0.3" x1="143.23703022742887" x2="145.7803849466894" y1="26.81831364943548" y2="22.513508569990506" /><path d="M 143.74570117128098 25.957352633546492 a86.0,86.0 0 0,1 28.547481713284135,27.462654790039103" fill="none" id="id26" stroke="none" /><text fill="#e1ed5e" style="font-size:6.75px; font-family:Arial;" text-anchor="middle"><textPath startOffset="19.985693538727396" xlink:href="#id26">February</textPath></text><line stroke="#e1ed5e" stroke-width="0.3" x1="172.23445277983987" x2="176.4835382374775" y1="55.19839476539836" y2="52.563006222186495" /><path d="M 173.08426987136738 54.67131705675599 a86.0,86.0 0 0,1 12.851231095245387,41.99856678651699" fill="none" id="id27" stroke="none" /><text fill="#e1ed5e" style="font-size:6.75px; font-family:Arial;" text-anchor="middle"><textPath startOffset="22.20632615414155" xlink:href="#id27">March</textPath></text><path d="M 120.18372546131832 94.20196356495316 l 53.817481081190024 -15.459768155744783 a76.99397915270558,76.99397915270558 0 0,0 0.35495408422474006,1.276958697318296 l -54.075621935981125 14.531098155007534" fill="#43ffdf" stroke="none" /><path d="M 120.73433829027371 96.67025291283417 l 30.007822335424486 -4.8189847013560225 a51.3923019014076,51.3923019014076 0 0,0 0.13274902384474405,0.8746502055131982 l -30.08632725270853 4.301735383450742" fill="#bfff1e" stroke="none" /><path d="M 120.96714384426684 98.82574320788733 l 41.340381311889814 -2.3152520870069737 a62.4051629538979,62.4051629538979 0 0,0 0.05083462694008904,1.0730386300968744 l -41.374109547063405 1.6033023502870996" fill="#39ff2e" stroke="none" /><line stroke="#e1ed5e" stroke-width="0.3" x1="184.98032266829074" x2="189.97916517819016" y1="98.17113171792111" y2="98.06355123074" /><path d="M 185.9800911702706 98.14961562048488 a86.0,86.0 0 0,1 -9.607161424134198,41.387399972396054" fill="none" id="id28" stroke="none" /><text fill="#e1ed5e" style="font-size:6.75px; font-family:Arial;" text-anchor="middle"><textPath startOffset="21.466115282336823" xlink:href="#id28">April</textPath></text><path d="M 119.79798401119884 107.00284435728193 l 44.88981561988678 15.878202135900946 a68.61525857806467,68.61525857806467 0 0,0 -0.40344379805923763,1.110104060042449 l -44.609847560822324 -16.648553992949527" fill="#37ff78" stroke="none" /><line stroke="#e1ed5e" stroke-width="0.3" x1="174.80103733775053" x2="179.2010983576182" y1="140.37084112569926" y2="142.7455964860345" /><path d="M 175.68104954172406 140.8457921977663 a86.0,86.0 0 0,1 -30.038265399797805,32.042727171017184" fill="none" id="id29" stroke="none" /><text fill="#e1ed5e" style="font-size:6.75px; font-family:Arial;" text-anchor="middle"><textPath startOffset="22.206326154141568" xlink:href="#id29">May</textPath></text><path d="M 117.35343817320211 111.8261652097733 l 49.043084700393216 33.42228878651852 a80.34874509759565,80.34874509759565 0 0,0 -0.7887151154799583,1.1362029490018526 l -48.46050867775112 -34.26153299770739" fill="#48f9ff" stroke="none" /><path d="M 114.55890576462653 115.13401014063108 l 31.99524515964565 33.25911799460541 a67.15045658067658,67.15045658067658 0 0,0 -0.8399056499066531,0.7941832162541412 l -31.41800367534819 -33.80493584760547" fill="#35ff65" stroke="none" /><line stroke="#e1ed5e" stroke-width="0.3" x1="143.8653032363475" x2="146.44561519142675" y1="172.8068346515853" y2="177.08958963109032" /><path d="M 144.38136562736335 173.6633856474863 a86.0,86.0 0 0,1 -40.68145358897372,12.25698825130547" fill="none" id="id30" stroke="none" /><text fill="#e1ed5e" style="font-size:6.75px; font-family:Arial;" text-anchor="middle"><textPath startOffset="21.466115282336833" xlink:href="#id30">June</textPath></text><path d="M 109.2508944713604 118.85261126421891 l 14.722261322429365 30.002835996159675 a54.42028046349034,54.42028046349034 0 0,0 -0.8445180955679013,0.40542000715274307 l -14.20363055886123 -30.251810279811977" fill="#98ff23" stroke="none" /><path d="M 104.83641907484287 120.43548508189849 l 13.512356274370736 57.094215946365686 a79.67140075552794,79.67140075552794 0 0,0 -1.3372649255223765,0.3043571432880854 l -12.527571199455497 -57.31834982323146" fill="#47fffd" stroke="none" /><line stroke="#e1ed5e" stroke-width="0.3" x1="102.19456741930631" x2="102.32365962044197" y1="184.97166512339345" y2="189.96999836594603" /><path d="M 102.22038585953345 185.97133177190398 a86.0,86.0 0 0,1 -42.740103519485714,-10.115201625700543" fill="none" id="id31" stroke="none" /><text fill="#e1ed5e" style="font-size:6.75px; font-family:Arial;" text-anchor="middle"><textPath startOffset="22.20632615414155" xlink:href="#id31">July</textPath></text><path d="M 98.37488393609728 120.93702456842531 l -4.357182478320427 56.1353361916974 a77.3041828686313,77.3041828686313 0 0,0 -1.3257876534516444,-0.11439453736331695 l 5.322814449513612 -56.05201740205542" fill="#43ffe3" stroke="none" /><path d="M 93.08242187328487 119.8279376855182 l -6.152698625265786 17.63555433778296 a39.678021232835206,39.678021232835206 0 0,0 -0.6429359284977237,-0.23053394939461852 l 6.455354114393236 -17.527032847348384" fill="#ff990e" stroke="none" /><path d="M 90.7491055286396 118.85261126421891 l -25.67542640035839 52.324543801421 a79.28452114298483,79.28452114298483 0 0,0 -1.2200230089809097,-0.6117448639652343 l 26.572303317022058 -51.874831096546465" fill="#46fff9" stroke="none" /><line stroke="#e1ed5e" stroke-width="0.3" x1="58.666819895761336" x2="56.23545636021788" y1="174.27360380694188" y2="178.64263932499728" /><path d="M 58.180547188652646 175.14741091055294 a86.0,86.0 0 0,1 -31.652253787137756,-30.449443065178592" fill="none" id="id32" stroke="none" /><text fill="#e1ed5e" style="font-size:6.75px; font-family:Arial;" text-anchor="middle"><textPath startOffset="22.20632615414155" xlink:href="#id32">August</textPath></text><path d="M 87.65650970185807 116.9893568818739 l -37.030470894425804 50.968070645621694 a84.0,84.0 0 0,0 -1.1624601183257428,-0.8599602050409332 l 37.902315983170105 -50.323100491841" fill="#4dd2ff" stroke="none" /><path d="M 86.79598089348748 116.32954008644616 l -28.79681692978849 35.613306268626964 a66.7991730129571,66.7991730129571 0 0,0 -0.8878878369727528,-0.7306712427323777 l 29.405574895305932 -35.1123399070374" fill="#34ff60" stroke="none" /><line stroke="#e1ed5e" stroke-width="0.3" x1="26.63291911575756" x2="22.317208475507996" y1="142.92168965132927" y2="145.44649492493687" /><path d="M 25.769776987707644 143.4266507060508 a86.0,86.0 0 0,1 -11.730757126820373,-40.83630448921669" fill="none" id="id33" stroke="none" /><text fill="#e1ed5e" style="font-size:6.75px; font-family:Arial;" text-anchor="middle"><textPath startOffset="21.46611528233685" xlink:href="#id33">September</textPath></text><path d="M 81.02952815118164 109.00673069616217 l -51.54063740948174 24.47027384216899 a78.05463702878504,78.05463702878504 0 0,0 -0.5658046204350026,-1.2186928160749337 l 51.95421664675657 -23.57946095881523" fill="#45ffeb" stroke="none" /><path d="M 79.18660465613746 102.79330883721812 l -40.52829814387861 5.43919199594168 a61.89165880724124,61.89165880724124 0 0,0 -0.13262053507308932,-1.057116151040894 l 40.615920188198544 -4.740758090613378" fill="#3eff2d" stroke="none" /><path d="M 79.07016306316243 101.71520430193888 l -9.072968863331326 0.7435316038393738 a30.10338416419343,30.10338416419343 0 0,0 -0.03787785740321626,-0.5168132701690353 l 9.084423279398878 -0.5872451971735778" fill="#ff0000" stroke="none" /><line stroke="#e1ed5e" stroke-width="0.3" x1="15.007084014347285" x2="10.007500721073583" y1="101.09737516637583" y2="101.16192664675087" /><path d="M 14.007167355692545 101.11028546245083 a86.0,86.0 0 0,1 10.666146001902534,-42.60595125391555" fill="none" id="id34" stroke="none" /><text fill="#e1ed5e" style="font-size:6.75px; font-family:Arial;" text-anchor="middle"><textPath startOffset="22.20632615414155" xlink:href="#id34">October</textPath></text><line stroke="#e1ed5e" stroke-width="0.3" x1="26.266209847984243" x2="21.928928074336255" y1="57.711370442889674" y2="55.22380399835377" /><path d="M 25.398753493254645 57.213857153982495 a86.0,86.0 0 0,1 29.58750427330803,-30.492523968695096" fill="none" id="id35" stroke="none" /><text fill="#e1ed5e" style="font-size:6.75px; font-family:Arial;" text-anchor="middle"><textPath startOffset="21.46611528233685" xlink:href="#id35">November</textPath></text><path d="M 82.54541684631803 88.32363383020206 l -26.03144512646144 -17.413918312993243 a52.31901477351378,52.31901477351378 0 0,0 0.5071843518191969,-0.7442304530327789 l 25.7278363089735 17.859426789296435" fill="#b3ff20" stroke="none" /><path d="M 84.31358615837235 86.03803664274999 l -26.626268601917236 -23.69916988762111 a56.645600472200925,56.645600472200925 0 0,0 0.654543580271539,-0.7227633695223123 l 26.21438138102965 24.153986044412978" fill="#7cff26" stroke="none" /><path d="M 86.10567301691215 84.25364557470407 l -26.089812676236917 -29.567422573950804 a60.43235731157482,60.43235731157482 0 0,0 0.7859262640088134,-0.6815475115024303 l 25.576992613581332 30.012135078872912" fill="#4fff2b" stroke="none" /><line stroke="#e1ed5e" stroke-width="0.3" x1="56.762969772571076" x2="54.21961505331055" y1="26.818313649435495" y2="22.513508569990535" /><path d="M 56.25429882871897 25.957352633546506 a86.0,86.0 0 0,1 42.265352541879196,-11.944610805530505" fill="none" id="id36" stroke="none" /><text fill="#e1ed5e" style="font-size:6.75px; font-family:Arial;" text-anchor="middle"><textPath startOffset="22.20632615414155" xlink:href="#id36">December</textPath></text></svg>