<?xml version="1.0" encoding="utf-8" ?>
<svg baseProfile="full" height="200mm" version="1.1" viewBox="0,0,200,200" width="200mm" xmlns="http://www.w3.org/2000/svg" xmlns:ev="http://www.w3.org/2001/xml-events" xmlns:xlink="http://www.w3.org/1999/xlink"><defs /><rect fill="#1a1a1a" height="200" width="200" x="0" y="0" /><text alignment-baseline="middle" fill="#e1ed5e" style="dominant-baseline: central; font-size:9.0px; font-family:Arial;" text-anchor="middle" x="100.0" y="100.0">2018</text><line stroke="#e1ed5e" stroke-width="0.3" x1="100.0" x2="100.0" y1="15.0" y2="10.0" /><path d="M 100.0 14.0 a86.0,86.0 0 0,1 42.46469731375804,11.215312516191453" fill="none" id="id73" stroke="none" /><text fill="#e1ed5e" style="font-size:6.75px; font-family:Arial;" text-anchor="middle"><textPath startOffset="22.20632615414155" xlink:href="#id73">January</textPath></text><line stroke="#e1ed5e" stroke-width="0.3" x1="143.23703022742887" x2="145.7803849466894" y1="26.81831364943548" y2="22.513508569990506" /><path d="M 143.74570117128098 25.957352633546492 a86.0,86.0 0 0,1 28.547481713284135,27.462654790039103" fill="none" id="id74" stroke="none" /><text fill="#e1ed5e" style="font-size:6.75px; font-family:Arial;" text-anchor="middle"><textPath startOffset="19.985693538727396" xlink:href="#id74">February</textPath></text><path d="M 111.2981086023043 82.29822771554956 l 5.840695166339694 -9.151147281089928 a31.85620636255149,31.85620636255149 0 0,0 0.45968956958446267,0.2989948831549994 l -5.997351761708437 9.0492534737754" fill="#ff4906" stroke="none" /><path d="M 117.45458315368197 88.32363383020206 l 13.012389525650768 -8.704729497564147 a36.65549733457961,36.65549733457961 0 0,0 0.34631304780043853,0.5274585309725941 l -13.16029920880913 8.479452902613879" fill="#ff900d" stroke="none" /><line stroke="#e1ed5e" stroke-width="0.3" x1="172.23445277983987" x2="176.4835382374775" y1="55.19839476539836" y2="52.563006222186495" /><path d="M 173.08426987136738 54.67131705675599 a86.0,86.0 0 0,1 12.851231095245387,41.99856678651699" fill="none" id="id75" stroke="none" /><text fill="#e1ed5e" style="font-size:6.75px; font-family:Arial;" text-anchor="middle"><textPath startOffset="22.20632615414155" xlink:href="#id75">March</textPath></text><path d="M 120.28053869075195 94.5502522615342 l 7.71739894638566 -2.073804749283224 a28.991177174598505,28.991177174598505 0 0,0 0.12535739194530945,0.4830531676637427 l -7.7519526702012715 1.9406551560706309" fill="#ff1d02" stroke="none" /><path d="M 120.6074358757038 95.95851677861258 l 10.92790619894023 -2.1431559857470273 a32.136078819408546,32.136078819408546 0 0,0 0.10178609614517443,0.5437453956631838 l -10.963178018995265 1.9547325126212807" fill="#ff4d07" stroke="none" /><path d="M 120.94382443527127 98.46500227214037 l 14.119991678712534 -1.034870933491949 a35.1578643465707,35.1578643465707 0 0,0 0.039040981814712376,0.6039467087260363 l -14.135713251531662 0.7916651605128776" fill="#ff7a0b" stroke="none" /><line stroke="#e1ed5e" stroke-width="0.3" x1="184.98032266829074" x2="189.97916517819016" y1="98.17113171792111" y2="98.06355123074" /><path d="M 185.9800911702706 98.14961562048488 a86.0,86.0 0 0,1 -9.607161424134198,41.387399972396054" fill="none" id="id76" stroke="none" /><text fill="#e1ed5e" style="font-size:6.75px; font-family:Arial;" text-anchor="middle"><textPath startOffset="21.466115282336823" xlink:href="#id76">April</textPath></text><path d="M 120.9764740272857 100.99374915477107 l 6.178568382298248 0.29270634805532164 a27.18549789919352,27.18549789919352 0 0,0 -0.02616752930867177,0.46723881415823204 l -6.172614502102046 -0.399016878548977" fill="#ff0000" stroke="none" /><line stroke="#e1ed5e" stroke-width="0.3" x1="174.80103733775053" x2="179.2010983576182" y1="140.37084112569926" y2="142.7455964860345" /><path d="M 175.68104954172406 140.8457921977663 a86.0,86.0 0 0,1 -30.038265399797805,32.042727171017184" fill="none" id="id77" stroke="none" /><text fill="#e1ed5e" style="font-size:6.75px; font-family:Arial;" text-anchor="middle"><textPath startOffset="22.206326154141568" xlink:href="#id77">May</textPath></text><path d="M 114.55890576462653 115.13401014063108 l 43.67671729387959 45.40203042189324 a84.0,84.0 0 0,0 -1.0506566624367695,0.9934614530163142 l -42.88872479705202 -46.14712651165547" fill="#4dd2ff" stroke="none" /><path d="M 112.34349029814194 116.9893568818739 l 23.43637675015977 32.257405240270856 a60.87234565473272,60.87234565473272 0 0,0 -0.8530032293297398,0.6085951554863447 l -22.877646192981146 -32.65604465760142" fill="#3dff2e" stroke="none" /><line stroke="#e1ed5e" stroke-width="0.3" x1="143.8653032363475" x2="146.44561519142675" y1="172.8068346515853" y2="177.08958963109032" /><path d="M 144.38136562736335 173.6633856474863 a86.0,86.0 0 0,1 -40.68145358897372,12.25698825130547" fill="none" id="id78" stroke="none" /><text fill="#e1ed5e" style="font-size:6.75px; font-family:Arial;" text-anchor="middle"><textPath startOffset="21.466115282336833" xlink:href="#id78">June</textPath></text><path d="M 109.2508944713604 118.85261126421891 l 3.132436764316655 6.383665148298388 a28.110790448891184,28.110790448891184 0 0,0 -0.4362357380854137,0.20941966428314468 l -3.0220883582310085 -6.436639089081093" fill="#ff0f01" stroke="none" /><path d="M 102.34483914955558 120.86867818915974 l 1.3375268910065201 11.903766730887522 a32.978674407777774,32.978674407777774 0 0,0 -0.564669348771139,0.05853028679379978 l -1.1324249456297786 -11.92502638613708" fill="#ff5a08" stroke="none" /><path d="M 101.62511606390274 120.93702456842531 l 1.0416349714475497 13.419802728522942 a34.46016748358706,34.46016748358706 0 0,0 -0.5917914125893576,0.04081340064585189 l -0.8104807980792618 -13.435744473685078" fill="#ff700a" stroke="none" /><line stroke="#e1ed5e" stroke-width="0.3" x1="102.19456741930631" x2="102.32365962044197" y1="184.97166512339345" y2="189.96999836594603" /><path d="M 102.22038585953345 185.97133177190398 a86.0,86.0 0 0,1 -42.740103519485714,-10.115201625700543" fill="none" id="id79" stroke="none" /><text fill="#e1ed5e" style="font-size:6.75px; font-family:Arial;" text-anchor="middle"><textPath startOffset="22.20632615414155" xlink:href="#id79">July</textPath></text><path d="M 94.81253420990036 120.34920634021253 l -4.242413226660913 16.641987749496373 a38.174219814598125,38.174219814598125 0 0,0 -0.6353454601627173,-0.16780051059400147 l 4.528249129635119 -16.56649588959879" fill="#ffa60f" stroke="none" /><path d="M 94.46302465271185 120.25689768951611 l -2.6395699404713375 9.656806266012692 a31.01105572504428,31.01105572504428 0 0,0 -0.5137037967101847,-0.14517782419883135 l 2.805404905286136 -9.60993964847534" fill="#ff3c05" stroke="none" /><path d="M 92.06813273071674 119.44442032107085 l -4.541277580091377 11.132625782066501 a33.023250761045134,33.023250761045134 0 0,0 -0.5244855537609858,-0.2192350040091307 l 4.732234593349825 -11.052805735037397" fill="#ff5a08" stroke="none" /><path d="M 91.07499286063937 119.00905698771935 l -6.427517069818977 13.689741236272063 a36.12355747828209,36.12355747828209 0 0,0 -0.5605814175684406,-0.2691131469094993 l 6.66221115538766 -13.577073812863" fill="#ff880c" stroke="none" /><path d="M 90.42595943632237 118.69057910512821 l -7.317013121625386 14.284377808241471 a37.04936542018467,37.04936542018467 0 0,0 -0.5651070857002578,-0.2956373186280887 l 7.5618111098521394 -14.156311070668664" fill="#ff960d" stroke="none" /><path d="M 90.10565033884886 118.52300852407294 l -8.595998676333013 16.092392345886783 a39.24434938981038,39.24434938981038 0 0,0 -0.5931076790182215,-0.3234095965482198 l 8.871729167219874 -15.942042097578797" fill="#ffb510" stroke="none" /><line stroke="#e1ed5e" stroke-width="0.3" x1="58.666819895761336" x2="56.23545636021788" y1="174.27360380694188" y2="178.64263932499728" /><path d="M 58.180547188652646 175.14741091055294 a86.0,86.0 0 0,1 -31.652253787137756,-30.449443065178592" fill="none" id="id80" stroke="none" /><text fill="#e1ed5e" style="font-size:6.75px; font-family:Arial;" text-anchor="middle"><textPath startOffset="22.20632615414155" xlink:href="#id80">August</textPath></text><path d="M 88.54995079064634 117.60387380957326 l -8.21647951944002 12.632423317535237 a36.06946099124933,36.06946099124933 0 0,0 -0.517554342832162,-0.3430067970534279 l 8.432708561012142 -12.48911849939049" fill="#ff880c" stroke="none" /><path d="M 87.95078237400918 117.19931262002967 l -8.420332509751292 12.019363886948016 a35.675391232319654,35.675391232319654 0 0,0 -0.499918700379576,-0.35667871905609244 l 8.625978537979755 -11.872640906047705" fill="#ff820c" stroke="none" /><path d="M 87.65650970185807 116.9893568818739 l -8.787541238585952 12.095012886184572 a35.950258116060056,35.950258116060056 0 0,0 -0.49750882504090677,-0.3680451350090652 l 8.994435034045424 -11.94195780243574" fill="#ff860c" stroke="none" /><path d="M 86.79598089348748 116.32954008644616 l -11.328525813330254 14.01009911428221 a39.01716887569468,39.01716887569468 0 0,0 -0.5186122539439441,-0.4267825780533692 l 11.568008195818887 -13.81302141737166" fill="#ffb210" stroke="none" /><path d="M 86.24171649860922 115.8653595955263 l -10.865538416465718 12.529591657186602 a37.58464929311236,37.58464929311236 0 0,0 -0.4851241240105771,-0.42806563502461814 l 11.079604893382882 -12.340702880389694" fill="#ff9e0e" stroke="none" /><path d="M 85.97065885151581 115.62618273729859 l -10.076364983265883 11.223272631961168 a36.08293671163926,36.08293671163926 0 0,0 -0.4585977173759757,-0.418918141576021 l 10.268062250108715 -11.048161723798572" fill="#ff880c" stroke="none" /><path d="M 85.70375840098266 115.38237550388516 l -6.822935040198948 7.341296528884209 a31.022328935321468,31.022328935321468 0 0,0 -0.38802162595475376,-0.3668986664289685 l 6.948292500544519 -7.2227632257093095" fill="#ff3c05" stroke="none" /><path d="M 83.95833913139862 113.55231037782056 l -13.87046799533992 11.718043966781737 a39.15771012041934,39.15771012041934 0 0,0 -0.4305558048482942,-0.518632203199866 l 14.07011980008175 -11.47755050646811" fill="#ffb410" stroke="none" /><path d="M 83.50135304334701 112.99209946851258 l -23.48208162543929 18.491306651204898 a50.888736660031114,50.888736660031114 0 0,0 -0.5360115061706592,-0.6928671268037405 l 23.796899948828013 -18.084361530287904" fill="#afff20" stroke="none" /><path d="M 82.85270091963577 112.12312394758628 l -11.772801879598772 8.323359598957964 a35.41794642485018,35.41794642485018 0 0,0 -0.3476677783904171,-0.5008413650595962 l 11.914330565151323 -8.119476971711356" fill="#ff7e0b" stroke="none" /><line stroke="#e1ed5e" stroke-width="0.3" x1="26.63291911575756" x2="22.317208475507996" y1="142.92168965132927" y2="145.44649492493687" /><path d="M 25.769776987707644 143.4266507060508 a86.0,86.0 0 0,1 -11.730757126820373,-40.83630448921669" fill="none" id="id81" stroke="none" /><text fill="#e1ed5e" style="font-size:6.75px; font-family:Arial;" text-anchor="middle"><textPath startOffset="21.46611528233685" xlink:href="#id81">September</textPath></text><path d="M 81.51974371655577 109.97397251340807 l -12.967491984528028 6.998680464046946 a35.735581990767486,35.735581990767486 0 0,0 -0.28749699735543327,-0.5438359729241871 l 13.086041490108348 -6.774429476036633" fill="#ff830c" stroke="none" /><path d="M 81.18737489456691 109.33194174019688 l -15.957786282010742 7.915808190066467 a38.813224366303075,38.813224366303075 0 0,0 -0.2917400507858657,-0.6010709151675748 l 16.091679589411328 -7.639948318933607" fill="#ffaf10" stroke="none" /><path d="M 80.87730276802145 108.67885076344099 l -14.278069861927007 6.480112926456027 a36.679768573601166,36.679768573601166 0 0,0 -0.2559879568787941,-0.5771852639147353 l 14.38749890353708 -6.2333793260485955" fill="#ff900d" stroke="none" /><path d="M 80.58989483394504 108.01547362559985 l -16.505196479375254 6.815881002908794 a38.857148279291245,38.857148279291245 0 0,0 -0.24997614999739473,-0.6204203038986763 l 16.620075243630037 -6.530761331167312" fill="#ffb010" stroke="none" /><path d="M 80.32549172779594 107.34259656027581 l -16.750030635863453 6.251171090520347 a38.87849731675796,38.87849731675796 0 0,0 -0.22859767558062327,-0.6290026244028705 l 16.8551525724493 -5.96192066911136" fill="#ffb010" stroke="none" /><path d="M 80.0844068197444 106.66101706037122 l -18.431942220369034 6.164791601958153 a40.435564038910634,40.435564038910634 0 0,0 -0.2150936113178574,-0.6619900665045453 l 18.53532808270314 -5.846602635475803" fill="#ffc612" stroke="none" /><path d="M 79.97269907076064 106.31721596034903 l -7.1121118201796625 2.243375003999221 a28.457537525973823,28.457537525973823 0 0,0 -0.14333550431667436,-0.4684287214436704 l 7.149674097002467 -2.120619310003503" fill="#ff1402" stroke="none" /><path d="M 79.86692584326677 105.97154293290107 l -14.960572966507065 4.437360289581927 a36.60477202094733,36.60477202094733 0 0,0 -0.17397265584743182,-0.6056216380731749 l 15.034738259240601 -4.179181176004156" fill="#ff8f0d" stroke="none" /><path d="M 79.67330655649465 105.27499134158121 l -14.492391748615216 3.760928515265929 a35.97244141388674,35.97244141388674 0 0,0 -0.15037968349157732,-0.6006920834646859 l 14.554982746401851 -3.510908592403851" fill="#ff860c" stroke="none" /><path d="M 79.50377843672027 104.57218783832718 l -9.162744464632036 2.043976187393759 a30.387956368602154,30.387956368602154 0 0,0 -0.10949209189666831,-0.5115106015469255 l 9.196570595253146 -1.8859517664306695" fill="#ff3204" stroke="none" /><path d="M 79.35854240842038 103.8639653848113 l -23.093129538980055 4.322904657759374 a44.49425752357777,44.49425752357777 0 0,0 -0.13444375882606327,-0.7540319977470935 l 23.164119740145306 -3.9247539092790675" fill="#fffd17" stroke="none" /><path d="M 79.23777060512086 103.15116336523772 l -12.408151708659005 1.883232881738696 a33.55025079079933,33.55025079079933 0 0,0 -0.08174430573058797,-0.5717194838895565 l 12.438730065406194 -1.669367925868739" fill="#ff6209" stroke="none" /><path d="M 79.1416061653843 102.43462659150553 l -8.49780091064641 0.9918775256820178 a29.555491881998137,29.555491881998137 0 0,0 -0.0546321987077863,-0.5058263090902188 l 8.513615410855246 -0.845454894707017" fill="#ff2503" stroke="none" /><path d="M 79.0235259727143 100.99374915477108 l -14.667719137189705 0.6948752910542394 a35.68416958352085,35.68416958352085 0 0,0 -0.023785822149778278,-0.6138063797608952 l 14.677507092190684 -0.4422916642793473" fill="#ff820c" stroke="none" /><line stroke="#e1ed5e" stroke-width="0.3" x1="15.007084014347285" x2="10.007500721073583" y1="101.09737516637583" y2="101.16192664675087" /><path d="M 14.007167355692545 101.11028546245083 a86.0,86.0 0 0,1 10.666146001902534,-42.60595125391555" fill="none" id="id82" stroke="none" /><text fill="#e1ed5e" style="font-size:6.75px; font-family:Arial;" text-anchor="middle"><textPath startOffset="22.20632615414155" xlink:href="#id82">October</textPath></text><path d="M 79.08570108090925 98.10471618934814 l -20.51105288922152 -1.8587410761773473 a41.59510157811103,41.59510157811103 0 0,0 0.07075698028141866,-0.7125131352610145 l 20.47601878325787 2.2115297421427917" fill="#ffd614" stroke="none" /><path d="M 79.16333360222342 97.38593545837743 l -29.666017560257696 -3.721751028451314 a50.89856231666159,50.89856231666159 0 0,0 0.1165431675423456,-0.868381966349465 l 29.59755839365752 4.2318513368654385" fill="#afff20" stroke="none" /><path d="M 79.26566170972629 96.67025291283419 l -17.419016810868307 -2.797336460671558 a38.64220048439296,38.64220048439296 0 0,0 0.11112050257213461,-0.6558394963517451 l 17.36828444677595 3.0967617453391307" fill="#ffad10" stroke="none" /><path d="M 79.46518482838121 95.60439243477599 l -29.29291376574146 -6.270334175401164 a50.95649992169261,50.95649992169261 0 0,0 0.19097916964606862,-0.8561221702713784 l 29.180640209093355 6.7736345152225015" fill="#afff20" stroke="none" /><path d="M 79.62865764111835 94.90015583598534 l -14.632929730087927 -3.6632667583581973 a36.084500516377176,36.084500516377176 0 0,0 0.15602880997689697,-0.6012426529982973 l 14.567704588240721 3.9146058369053582" fill="#ff880c" stroke="none" /><path d="M 79.81627453868168 94.20196356495316 l -41.52280921876994 -11.927964497799026 a64.20208354326351,64.20208354326351 0 0,0 0.3142664562566198,-1.0595502602732743 l 41.311336865401614 12.64094414481884" fill="#32ff4b" stroke="none" /><path d="M 80.02781315780177 93.51064311812611 l -11.9856240942827 -3.8943653398761353 a33.602430969058254,33.602430969058254 0 0,0 0.1834736033694964,-0.548562721113767 l 11.916813197141432 4.100101163912225" fill="#ff6309" stroke="none" /><path d="M 80.38941819471856 92.48833698450439 l -34.13099148328239 -13.07357981281927 a57.54918697801705,57.54918697801705 0 0,0 0.36230351035992586,-0.9220229155330291 l 33.90089442304078 13.659151733248063" fill="#61ff29" stroke="none" /><path d="M 80.65960295795068 91.81776055985345 l -13.49615834054158 -5.709748296498306 a35.65426612158846,35.65426612158846 0 0,0 0.2439928226387445,-0.5631690748413298 l 13.395874808060155 5.941216515926236" fill="#ff820b" stroke="none" /><path d="M 81.26839172434947 90.50648371742162 l -15.580963688431423 -7.896712887524293 a38.46781336882813,38.46781336882813 0 0,0 0.3044279861360234,-0.5880579717329699 l 15.442726269135285 8.163743581517599" fill="#ffaa0f" stroke="none" /><path d="M 81.43458229118936 90.18545643968196 l -13.469296807845932 -7.120496954114884 a36.23559757185152,36.23559757185152 0 0,0 0.2962551725269388,-0.5489158413294117 l 13.344733536100522 7.3512937787767685" fill="#ff8a0c" stroke="none" /><line stroke="#e1ed5e" stroke-width="0.3" x1="26.266209847984243" x2="21.928928074336255" y1="57.711370442889674" y2="55.22380399835377" /><path d="M 25.398753493254645 57.213857153982495 a86.0,86.0 0 0,1 29.58750427330803,-30.492523968695096" fill="none" id="id83" stroke="none" /><text fill="#e1ed5e" style="font-size:6.75px; font-family:Arial;" text-anchor="middle"><textPath startOffset="21.46611528233685" xlink:href="#id83">November</textPath></text><path d="M 81.78341655067845 89.55222093294921 l -12.771753270656642 -7.324999050558715 a35.72322290455506,35.72322290455506 0 0,0 0.3105204160936487,-0.5307800477758181 l 12.64377318009267 7.543758510688424" fill="#ff830c" stroke="none" /><path d="M 83.84228863543731 86.58626213691792 l -15.943778802070316 -13.236136267849734 a41.721954198155004,41.721954198155004 0 0,0 0.46348995709551827,-0.5486259169430686 l 15.713578231487674 13.508621134421917" fill="#ffd814" stroke="none" /><path d="M 85.83668400450813 84.49514656593479 l -11.903623937267138 -13.031125235100543 a38.64954638886658,38.64954638886658 0 0,0 0.49506206252404344,-0.44447160778709627 l 11.677550887147124 13.23409585165692" fill="#ffad10" stroke="none" /><path d="M 86.93701828274178 83.55741782278169 l -18.31736202456282 -23.056353968621142 a50.44692190815957,50.44692190815957 0 0,0 0.6845585922019154,-0.5343088395020569 l 17.91777087720148 23.368241197346418" fill="#b5ff20" stroke="none" /><line stroke="#e1ed5e" stroke-width="0.3" x1="56.762969772571076" x2="54.21961505331055" y1="26.818313649435495" y2="22.513508569990535" /><path d="M 56.25429882871897 25.957352633546506 a86.0,86.0 0 0,1 42.265352541879196,-11.944610805530505" fill="none" id="id84" stroke="none" /><text fill="#e1ed5e" style="font-size:6.75px; font-family:Arial;" text-anchor="middle"><textPath startOffset="22.20632615414155" xlink:href="#id84">December</textPath></text><path d="M 89.3179101791058 81.91981866633112 l -10.41161719942293 -17.622387575707002 a41.46827585742756,41.46827585742756 0 0,0 0.6176862946301341,-0.3578037707413595 l 10.106734172327474 17.79899550383841" fill="#ffd413" stroke="none" /><path d="M 91.90106846888425 80.62456947434976 l -6.268500127012263 -14.996408877434165 a37.25381103192537,37.25381103192537 0 0,0 0.5937834034138935,-0.2422191592658845 l 6.00943285400999 15.102088922883626" fill="#ff990e" stroke="none" /><path d="M 93.25333710446033 80.11325718540243 l -9.375576805196339 -27.63583827297952 a50.18288877887888,50.18288877887888 0 0,0 0.8204117974898936,-0.27047687079973254 l 8.898482185464035 27.793128868038483" fill="#b8ff1f" stroke="none" /><path d="M 98.91598698831166 79.02799685794201 l -1.124329668208626 -21.751994745575615 a42.78103286380982,42.78103286380982 0 0,0 0.7357505818389773,-0.03168296774645149 l 0.7497382539803245 21.768125439846262" fill="#ffe615" stroke="none" /></svg>