<?xml version="1.0" encoding="utf-8" ?>
<svg baseProfile="full" height="200mm" version="1.1" viewBox="0,0,200,200" width="200mm" xmlns="http://www.w3.org/2000/svg" xmlns:ev="http://www.w3.org/2001/xml-events" xmlns:xlink="http://www.w3.org/1999/xlink"><defs /><rect fill="#1a1a1a" height="200" width="200" x="0" y="0" /><text alignment-baseline="middle" fill="#e1ed5e" style="dominant-baseline: central; font-size:9.0px; font-family:Arial;" text-anchor="middle" x="100.0" y="100.0">2020</text><line stroke="#e1ed5e" stroke-width="0.3" x1="100.0" x2="100.0" y1="15.0" y2="10.0" /><path d="M 100.0 14.0 a86.0,86.0 0 0,1 42.35913384403234,11.155469271406648" fill="none" id="id97" stroke="none" /><text fill="#e1ed5e" style="font-size:6.75px; font-family:Arial;" text-anchor="middle"><textPath startOffset="22.145653131862478" xlink:href="#id97">January</textPath></text><path d="M 100.0 79.0 l 0.0 -32.010306424049524 a53.010306424049524,53.010306424049524 0 0,0 0.9099924004733166,0.007811190308810486 l -0.5494994756244619 32.00558963193515" fill="#7fff26" stroke="none" /><path d="M 100.72087961077811 79.0123766808444 l 0.18114371994758166 -5.273801761138509 a26.276911792238344,26.276911792238344 0 0,0 0.45067936754896964,0.019354111196520148 l -0.27164884809738754 5.269915081516158" fill="#ff2b04" stroke="none" /><path d="M 101.44090949804482 79.04949213459386 l 4.322728494134444 -62.8515235962184 a84.0,84.0 0 0,0 1.437724020899066,0.1112889320197854 l -5.401021509808744 62.76805689720356" fill="#4dd2ff" stroke="none" /><path d="M 103.94208987418118 79.37332000966035 l 3.816142157657862 -19.967668317050503 a41.32906094700874,41.32906094700874 0 0,0 0.6957127759272794,0.13916203975811686 l -4.158351419116099 19.899216880629524" fill="#fff717" stroke="none" /><path d="M 105.69591212413111 79.78721728523813 l 3.8096365680508244 -13.51905620980222 a35.04557622827992,35.04557622827992 0 0,0 0.5776512057969689,0.16814584722862153 l -4.041147786229398 13.45166666827108" fill="#ffa60f" stroke="none" /><path d="M 106.38641147887787 79.99465700312896 l 5.69438678005113 -17.83758548420166 a39.72446252117862,39.72446252117862 0 0,0 0.6478440558413389,0.21295920897305795 l -5.999753573540211 17.73720535382658" fill="#ffe315" stroke="none" /><path d="M 110.34350942703115 81.72400993836675 l 7.562544101280604 -13.362290797982881 a36.35392095373921,36.35392095373921 0 0,0 0.5404746640269099,0.31204319276610903 l -7.790811233167911 13.230500707940601" fill="#ffb711" stroke="none" /><line stroke="#e1ed5e" stroke-width="0.3" x1="143.13028292997686" x2="145.6673583964461" y1="26.7553504044142" y2="22.446841604673864" /><path d="M 143.63769802327073 25.89364864446614 a86.0,86.0 0 0,1 29.32050498858742,28.57503671076993" fill="none" id="id98" stroke="none" /><text fill="#e1ed5e" style="font-size:6.75px; font-family:Arial;" text-anchor="middle"><textPath startOffset="20.669276256404974" xlink:href="#id98">February</textPath></text><path d="M 116.35404254752997 86.82634096563983 l 16.517508376793863 -13.305335535276251 a42.20990421203595,42.20990421203595 0 0,0 0.4497034538874611,0.5681856233340182 l -16.743478261322885 13.019829968027555" fill="#fcff18" stroke="none" /><line stroke="#e1ed5e" stroke-width="0.3" x1="172.87174338648825" x2="177.1583165268699" y1="56.24261187166439" y2="53.66864786411523" /><path d="M 173.72905801456457 55.72781907015455 a86.0,86.0 0 0,1 12.242430191666344,42.057860355516425" fill="none" id="id99" stroke="none" /><text fill="#e1ed5e" style="font-size:6.75px; font-family:Arial;" text-anchor="middle"><textPath startOffset="22.145653131862474" xlink:href="#id99">March</textPath></text><path d="M 118.00360718960297 89.18935116829356 l 21.77587527605736 -13.075787431556718 a46.400097657167834,46.400097657167834 0 0,0 0.4041808435258176,0.6863874346792417 l -21.997129829712947 12.70004882858392" fill="#caff1d" stroke="none" /><path d="M 118.70294669586156 90.45014215332178 l 13.924051723188965 -7.109720022656792 a36.63417203406079,36.63417203406079 0 0,0 0.28117614418409886,0.5625406408000678 l -14.044047780584801 6.869647525692974" fill="#ffbb11" stroke="none" /><path d="M 119.0197475246899 91.09779779509293 l 24.793110827145036 -11.604427744658748 a48.374460501863815,48.374460501863815 0 0,0 0.34556764664453704,0.7551276729491208 l -24.988662938644623 11.177111089494943" fill="#b3ff20" stroke="none" /><path d="M 119.16976305983485 91.42560881287824 l 13.232733129429418 -5.918833215223437 a35.496130956373534,35.496130956373534 0 0,0 0.24402088712328066,0.5583675443378017 l -13.332387898569669 5.690803601109785" fill="#ffac0f" stroke="none" /><path d="M 119.58574465831526 92.42381321644754 l 15.471760906769 -5.984809490017603 a37.588952052134886,37.588952052134886 0 0,0 0.22762672993341773,0.6038069448307621 l -15.572218320516857 5.7183342649926825" fill="#ffc712" stroke="none" /><path d="M 119.94978838288452 93.4421083053983 l 16.695603718434292 -5.48817655907639 a38.574506122978036,38.574506122978036 0 0,0 0.20138699726403,0.6308419006043741 l -16.78735543147558 5.200765624780629" fill="#ffd413" stroke="none" /><path d="M 120.05942366710727 93.78553927170692 l 22.557722924885557 -6.988440224545764 a44.61544325918861,44.61544325918861 0 0,0 0.22036561711963815,0.7335254693585506 l -22.674364862008822 6.60017715159649" fill="#dfff1b" stroke="none" /><path d="M 120.26092885502905 94.47779374421319 l 13.926217239180376 -3.795652435675943 a35.434212967990234,35.434212967990234 0 0,0 0.1549158804698544,0.5882408310879808 l -13.989322600454962 3.5560311002151637" fill="#ffab0f" stroke="none" /><path d="M 120.43855184770803 95.1765574152323 l 13.78411552830325 -3.253013732478874 a35.162765946004576,35.162765946004576 0 0,0 0.13360032381338727,0.5886676776358678 l -13.837926713674303 3.01591172090398" fill="#ffa70f" stroke="none" /><path d="M 120.592083275326 95.88100663000786 l 29.388771250618692 -5.878577330665806 a50.97094504772597,50.97094504772597 0 0,0 0.1642568017743833,0.8594609952013165 l -29.485354344675233 5.3732137704311755" fill="#95ff23" stroke="none" /><path d="M 120.7213421655516 96.59031103205396 l 14.737187331971118 -2.424998567318357 a35.93537105361317,35.93537105361317 0 0,0 0.09493527454820169,0.6095525645702765 l -14.776644098657584 2.1716578208166393" fill="#ffb110" stroke="none" /><path d="M 120.86939407059847 97.66154086499901 l 17.369060729289448 -1.946239483110637 a38.477760690184645,38.477760690184645 0 0,0 0.06791802530705439,0.6570452845799908 l -17.399911147078168 1.647789676247715" fill="#ffd313" stroke="none" /><path d="M 120.93736805541906 98.37931529534042 l 23.663325342067914 -1.8316910388049839 a44.7341117024883,44.7341117024883 0 0,0 0.05269260591995344,0.7661389256387844 l -23.691281909152934 1.4252086890118654" fill="#ddff1b" stroke="none" /><path d="M 120.98066250479742 99.09900007780936 l 14.497889079062205 -0.6226017376322944 a35.511251519854994,35.511251519854994 0 0,0 0.020926802509136096,0.6092610219091251 l -14.506440568568188 0.3736344511590493" fill="#ffac0f" stroke="none" /><path d="M 120.99303781780057 99.45929381324524 l 10.876626020698733 -0.28014330424455863 a31.880233171446918,31.880233171446918 0 0,0 0.009394904934855976,0.5472061126796816 l -10.879832357232257 0.09339027559581066" fill="#ff7b0b" stroke="none" /><line stroke="#e1ed5e" stroke-width="0.3" x1="184.99686870605535" x2="189.99668451229388" y1="99.2704041080226" y2="99.22748670261217" /><path d="M 185.99683186730306 99.26182062694052 a86.0,86.0 0 0,1 -10.086455211305974,41.156179273409016" fill="none" id="id100" stroke="none" /><text fill="#e1ed5e" style="font-size:6.75px; font-family:Arial;" text-anchor="middle"><textPath startOffset="21.40746469413373" xlink:href="#id100">April</textPath></text><path d="M 120.99922638620191 100.18025310272382 l 14.23977366739984 0.1222313307370413 a35.24029826222006,35.24029826222006 0 0,0 -0.010385095060908445,0.6048797233708099 l -14.235577140740263 -0.3666579700769222" fill="#ffa80f" stroke="none" /><path d="M 120.96210409425399 101.26102812881392 l 28.39049580950987 1.7079017280798205 a49.441820979370775,49.441820979370775 0 0,0 -0.05823784780074123,0.846765525572116 l -28.356994000544063 -2.19501067780628" fill="#a6ff21" stroke="none" /><path d="M 120.9064616781168 101.97986365728391 l 14.363693667144295 1.3602567241545633 a35.42795876481385,35.42795876481385 0 0,0 -0.06253474622237326,0.6049669427528109 l -14.338226528440256 -1.6066281891903058" fill="#ffab0f" stroke="none" /><path d="M 120.82617615685814 102.69636545807757 l 14.123547691335515 1.8285760119189098 a35.24142863693085,35.24142863693085 0 0,0 -0.08282655941241816,0.599291723903826 l -14.090076615367888 -2.0707560440228208" fill="#ffa80f" stroke="none" /><path d="M 120.65975698304385 103.76489593502545 l 29.36113719488351 5.350577267848149 a50.84468218085067,50.84468218085067 0 0,0 -0.16384991242444735,0.8573319781874077 l -29.264960990176906 -5.853811811068871" fill="#96ff23" stroke="none" /><path d="M 120.51834098615036 104.47187691870673 l 14.018568045531127 3.0552816584169658 a35.34764775353248,35.34764775353248 0 0,0 -0.1343027790579775,0.5917628250552217 l -13.964054404915485 -3.2954788174112046" fill="#ffaa0f" stroke="none" /><path d="M 120.16314734710363 105.8691983318838 l 28.2089743035923 8.211221297779163 a50.379761511316474,50.379761511316474 0 0,0 -0.24883686958539258,0.8282970090440458 l -28.063861114003277 -8.694255910413933" fill="#9cff22" stroke="none" /><path d="M 119.83427380445688 106.89939002012753 l 13.855880704077281 4.819794563303201 a35.67023686646089,35.67023686646089 0 0,0 -0.20613970860028383,0.5766094530369528 l -13.771100825433054 -5.056938972721075" fill="#ffae10" stroke="none" /><path d="M 119.58574465831526 107.57618678355244 l 14.529750154846203 5.6204194944780745 a36.57892020828666,36.57892020828666 0 0,0 -0.23156429146657317,0.5836932834868125 l -14.431127188413507 -5.869013795178451" fill="#ffba11" stroke="none" /><path d="M 119.31412917781788 108.2440532568976 l 14.755381582536346 6.298194988360285 a37.043333374260456,37.043333374260456 0 0,0 -0.2546572493520647,0.5827056226407893 l -14.645090451167315 -6.5505626807769195" fill="#ffc011" stroke="none" /><path d="M 119.16976305983485 108.57439118712176 l 10.188444098244927 4.557161453367837 a32.16118782456077,32.16118782456077 0 0,0 -0.22974656201897803,0.5020377006644677 l -10.108713071370895 -4.731388136246994" fill="#ff7f0b" stroke="none" /><path d="M 119.0197475246899 108.90220220490707 l 10.961172152383806 5.130382029343371 a33.10240119650657,33.10240119650657 0 0,0 -0.24530572559566904,0.5125946200347188 l -10.871487168828226 -5.317789151443193" fill="#ff8b0c" stroke="none" /><path d="M 118.70294669586154 109.54985784667822 l 18.89468345610657 9.647760002637838 a42.21528543232369,42.21528543232369 0 0,0 -0.3350927355946538,0.6425845041360961 l -18.726282651536966 -9.970690749878438" fill="#fcff18" stroke="none" /><line stroke="#e1ed5e" stroke-width="0.3" x1="174.33088141563837" x2="178.70328620479359" y1="141.23008692659167" y2="143.65538615756765" /><path d="M 175.20536237346943 141.71514677278685 a86.0,86.0 0 0,1 -30.301960400862466,31.631185727798858" fill="none" id="id101" stroke="none" /><text fill="#e1ed5e" style="font-size:6.75px; font-family:Arial;" text-anchor="middle"><textPath startOffset="22.145653131862474" xlink:href="#id101">May</textPath></text><path d="M 118.36410011445183 110.18625677009912 l 14.12263012987115 7.83358486805439 a37.1497285943187,37.1497285943187 0 0,0 -0.3141215379458216,0.5550226590058346 l -13.98607522690395 -8.074864297159348" fill="#ffc112" stroke="none" /><path d="M 118.18653347947321 110.5 l 16.061519485229933 9.273122598391918 a39.54624519678384,39.54624519678384 0 0,0 -0.3444784720069645,0.5849997556551301 l -15.899967303093204 -9.547473522340598" fill="#ffe015" stroke="none" /><path d="M 117.81537515405839 111.11811171558189 l 27.004212680393156 16.852625935499862 a52.83140749966594,52.83140749966594 0 0,0 -0.48675917512803035,0.7652662718512874 l -26.71093581363924 -17.313705882029822" fill="#80ff25" stroke="none" /><path d="M 116.57777611688842 112.89097897827486 l 17.03151252242402 13.243807151619455 a42.5747733863133,42.5747733863133 0 0,0 -0.4535907625879297,0.5730971108887005 l -16.801655329194528 -13.534224206422838" fill="#f8ff18" stroke="none" /><path d="M 116.35404254752997 113.17365903436017 l 12.219564860217721 9.843216473780682 a36.690974345870785,36.690974345870785 0 0,0 -0.399325661522985,0.4871123776137099 l -12.048792379456108 -10.051531133092885" fill="#ffbb11" stroke="none" /><path d="M 115.6541949942343 113.99807769240083 l 18.510351719715885 16.55207064826281 a45.831515530322996,45.831515530322996 0 0,0 -0.529468144836069,0.5819782403420071 l -18.223485874037937 -16.86738646416249" fill="#d0ff1d" stroke="none" /><path d="M 114.91283532996324 114.78537596483092 l 5.680112610099923 5.6315649307925 a28.998637561056764,28.998637561056764 0 0,0 -0.3535183581358677,0.35049685186334156 l -5.5826023318340905 -5.7282417928845035" fill="#ff5207" stroke="none" /><path d="M 114.65682725009322 115.03919595460226 l 10.058317043589051 10.320719376090715 a35.41134935352579,35.41134935352579 0 0,0 -0.438978502350398,0.4205314751562223 l -9.87966605537334 -10.491862981552517" fill="#ffab0f" stroke="none" /><path d="M 114.13192950727249 115.5334660781643 l 12.534441797734129 13.777547246724568 a39.62613860456622,39.62613860456622 0 0,0 -0.5070918711900577,0.4534446781017976 l -12.296084899720693 -13.990687454709754" fill="#ffe115" stroke="none" /><path d="M 113.03279911837588 116.46651593811092 l 20.647942120359488 26.0880003540223 a54.27042645168804,54.27042645168804 0 0,0 -0.73546779374074,0.5719042048499834 l -20.197064381983516 -26.438605610493074" fill="#71ff27" stroke="none" /><path d="M 112.45986205192187 116.90419585922612 l 9.262490369003181 12.566347098335203 a36.61111165906241,36.61111165906241 0 0,0 -0.5091018969412023,0.36855051256666377 l -9.045407461688011 -12.723498382274945" fill="#ffba11" stroke="none" /><path d="M 112.16784306229584 117.11559508785304 l 8.143267448300081 11.45452547535575 a35.05414382309067,35.05414382309067 0 0,0 -0.4934369994669846,0.3444573478765533 l -7.945435357659339 -11.592627639037426" fill="#ffa60f" stroke="none" /><path d="M 110.96478420261333 117.91015095944535 l 4.317444322188257 7.052220831757193 a29.26886595217662,29.26886595217662 0 0,0 -0.43076417707281556,0.2586615114721324 l -4.195747388558004 -7.125296343765249" fill="#ff5608" stroke="none" /><line stroke="#e1ed5e" stroke-width="0.3" x1="143.1302829299769" x2="145.66735839644613" y1="173.24464959558577" y2="177.55315839532614" /><path d="M 143.63769802327073 174.10635135553383 a86.0,86.0 0 0,1 -40.68552437913181,11.842963189579606" fill="none" id="id102" stroke="none" /><text fill="#e1ed5e" style="font-size:6.75px; font-family:Arial;" text-anchor="middle"><textPath startOffset="21.407464694133747" xlink:href="#id102">June</textPath></text><path d="M 110.65571695917076 118.09573695890943 l 7.600741279842294 12.907720373932898 a35.979336208749075,35.979336208749075 0 0,0 -0.5349057031311691,0.30882795169384775 l -7.378043108850727 -13.036295222902917" fill="#ffb210" stroke="none" /><path d="M 110.02825361518725 118.45085714620011 l 7.752866264270688 14.264400702732079 a37.235148989761996,37.235148989761996 0 0,0 -0.5642209930664892,0.30041589893408815 l -7.506856455417645 -14.395387069388734" fill="#ffc312" stroke="none" /><path d="M 109.06512990194946 118.94263497670748 l 11.305362752069367 23.62386002275173 a47.18965424228516,47.18965424228516 0 0,0 -0.7337121285051171,0.3434143234375988 l -10.898161909692744 -23.814450577759864" fill="#c0ff1e" stroke="none" /><path d="M 108.4095320186766 119.2426549942271 l 8.468359109511823 19.377262890450382 a42.146901029069895,42.146901029069895 0 0,0 -0.6654492415001351,0.28404071113854984 l -8.134474792841257 -19.519778251248336" fill="#fdff18" stroke="none" /><path d="M 107.74402155503746 119.51999308798841 l 4.575850723054357 11.534132989026222 a33.40865156446179,33.40865156446179 0 0,0 -0.534900729936238,0.20691109331576793 l -4.377177730624589 -11.610983970480032" fill="#ff900d" stroke="none" /><path d="M 107.06938296918513 119.77432235084164 l 2.0668161038969495 5.781252487878713 a27.139593564392644,27.139593564392644 0 0,0 -0.4400416646533223,0.1530693333913362 l -1.9672686671986055 -5.81588025383864" fill="#ff3805" stroke="none" /><path d="M 106.38641147887787 120.00534299687104 l 8.263903866955879 25.886561161679033 a48.17362978881617,48.17362978881617 0 0,0 -0.7899543174454001,0.24472986683859008 l -7.818308916638855 -26.024607616324268" fill="#b5ff20" stroke="none" /><path d="M 105.69591212413111 120.21278271476187 l 5.05083475258468 17.92363069465996 a39.62169350452514,39.62169350452514 0 0,0 -0.6562458060637535,0.1788627126381543 l -4.742407545586231 -18.007693901442256" fill="#ffe115" stroke="none" /><path d="M 104.64783097203109 120.47920084513623 l 4.473903421819061 19.712843967115358 a41.21415417719972,41.21415417719972 0 0,0 -0.6912940032601512,0.15066431049693935 l -4.134847001939774 -19.786739735746018" fill="#fff517" stroke="none" /><path d="M 103.94208987418118 120.62667999033965 l 9.647236093771458 50.47841577655841 a72.39201906483211,72.39201906483211 0 0,0 -1.2226159395431253,0.22280135166455417 l -8.779285420677274 -50.63658530215432" fill="#3effb8" stroke="none" /><path d="M 103.2317021107853 120.74984581791261 l 2.2282878546161204 14.3072064924871 a35.47969006511171,35.47969006511171 0 0,0 -0.6026054622402748,0.08856225109054575 l -1.98235728676816 -14.343349816876529" fill="#ffab0f" stroke="none" /><path d="M 102.51750503828377 120.84855314841334 l 1.8442646726209528 15.273157138581688 a36.38410352157338,36.38410352157338 0 0,0 -0.6207199068676034,0.06955296026234319 l -1.58180886415255 -15.302565859351002" fill="#ffb711" stroke="none" /><path d="M 101.80034050326958 120.92268563240118 l 2.03751660106805 23.679031404073225 a44.766531133817445,44.766531133817445 0 0,0 -0.766213299326367,0.05930975523944067 l -1.6307343069664473 -23.71051892630772" fill="#ddff1b" stroke="none" /><path d="M 101.44090949804482 120.95050786540614 l 1.3506234668231205 19.637768786502782 a40.68415979058482,40.68415979058482 0 0,0 -0.6971630799708196,0.04193959968239832 l -1.0133160347198358 -19.658060364009874" fill="#ffef16" stroke="none" /><line stroke="#e1ed5e" stroke-width="0.3" x1="101.45913802915013" x2="101.54496967792366" y1="184.9874750549273" y2="189.98673829345242" /><path d="M 101.47630435890484 185.9873277026323 a86.0,86.0 0 0,1 -42.54439059252881,-10.42667462771756" fill="none" id="id103" stroke="none" /><text fill="#e1ed5e" style="font-size:6.75px; font-family:Arial;" text-anchor="middle"><textPath startOffset="22.145653131862474" xlink:href="#id103">July</textPath></text><path d="M 100.36049292484886 120.99690560180557 l 0.27459635288970075 15.993860913199702 a36.996217992631806,36.996217992631806 0 0,0 -0.6350892777385511,0.005451477626539058 l -1.958971716313984e-15 -15.996217992631806" fill="#ffbf11" stroke="none" /><path d="M 99.63950707515114 120.99690560180557 l -0.3116187544117539 18.150230196277064 a39.15290506849934,39.15290506849934 0 0,0 -0.6719136048637737,-0.017306111019646252 l 0.6231456733462716 -18.14220636790737" fill="#ffdb14" stroke="none" /><path d="M 98.91894614982273 120.97215588758144 l -1.5603588952708827 30.270545715025523 a51.31073502519365,51.31073502519365 0 0,0 -0.8792598950024495,-0.05289409188841706 l 2.0797631424057785 -30.239299645312418" fill="#91ff24" stroke="none" /><path d="M 97.12497278360702 120.80226474461374 l -2.1660572016973303 15.672510891293818 a36.82148543717524,36.82148543717524 0 0,0 -0.6253952109367927,-0.09191155934083607 l 2.434777518241808 -15.6330182586541" fill="#ffbd11" stroke="none" /><path d="M 96.76829788921471 120.74984581791261 l -3.673236284568894 23.58481194884816 a44.86914366844367,44.86914366844367 0 0,0 -0.7600458962671242,-0.12506526299936924 l 4.077559683889081 -23.518280687353123" fill="#dcff1b" stroke="none" /><path d="M 94.6519064749342 120.30758222061772 l -4.329339457626394 16.439207090274415 a37.999726759459676,37.999726759459676 0 0,0 -0.6293815107780782,-0.17154072949782434 l 4.610902369339167 -16.362465866632444" fill="#ffcc13" stroke="none" /><path d="M 93.95794788825049 120.11202640906438 l -9.225290548578405 30.70799187307524 a53.063791893388796,53.063791893388796 0 0,0 -0.8701435139923192,-0.2695726849097425 l 9.751074695442357 -30.54510260035885" fill="#7eff26" stroke="none" /><path d="M 91.59046798132341 119.24265499422711 l -13.328263828546458 30.49767596522177 a54.28289134019167,54.28289134019167 0 0,0 -0.850655809252428,-0.38048752357353005 l 13.84983304065452 -30.264384690738385" fill="#71ff27" stroke="none" /><path d="M 91.26138138417905 119.09545874513695 l -3.6700131628138744 8.019641092671508 a29.81950338003748,29.81950338003748 0 0,0 -0.4636383047775949,-0.21700613710632136 l 3.8071401814629593 -7.955458723994661" fill="#ff5e08" stroke="none" /><path d="M 90.93487009805054 118.94263497670748 l -6.249772245763768 13.059620283389558 a35.47802939181431,35.47802939181431 0 0,0 -0.5471045807103867,-0.2676162661856129 l 6.473037075736223 -12.950410267106724" fill="#ffab0f" stroke="none" /><path d="M 90.28995756902619 118.62028667847754 l -6.758051900188091 12.959455601154573 a35.615702342478535,35.615702342478535 0 0,0 -0.5396816580473056,-0.287350085219914 l 6.9795223740219585 -12.841535048212087" fill="#ffad10" stroke="none" /><line stroke="#e1ed5e" stroke-width="0.3" x1="58.13341422392154" x2="55.67067388415222" y1="173.97424548756322" y2="178.32567169271397" /><path d="M 57.64086615596768 174.84453072859336 a86.0,86.0 0 0,1 -31.369924170532247,-30.572349798747897" fill="none" id="id104" stroke="none" /><text fill="#e1ed5e" style="font-size:6.75px; font-family:Arial;" text-anchor="middle"><textPath startOffset="22.145653131862474" xlink:href="#id104">August</textPath></text><path d="M 89.65649057296885 118.27599006163327 l -8.997134789416613 15.897075084094448 a39.26651117888326,39.26651117888326 0 0,0 -0.5837762167091034,-0.3370433558635047 l 9.268703473986116 -15.740284830954772" fill="#ffdd14" stroke="none" /><path d="M 89.03521579738668 117.91015095944536 l -8.82596880200507 14.416556740769304 a37.90369289693195,37.90369289693195 0 0,0 -0.552014711391446,-0.34449800673979075 l 9.072147642186227 -14.262922937187964" fill="#ffcb12" stroke="none" /><path d="M 88.4268655584334 117.5232005979908 l -9.7140875128562 14.708366603159806 a38.62667139139933,38.62667139139933 0 0,0 -0.5501609900773685,-0.37017286702893276 l 9.965144791030573 -14.539444062073752" fill="#ffd513" stroke="none" /><path d="M 87.83215693770417 117.11559508785305 l -10.737663437184311 15.10386833883237 a39.53170944319567,39.53170944319567 0 0,0 -0.5497147547520203,-0.39795108964741294 l 10.995359202310286 -14.917316477811891" fill="#ffe015" stroke="none" /><path d="M 87.2517909369889 116.68781488649013 l -19.771443250060386 25.881453886183802 a53.569304927385495,53.569304927385495 0 0,0 -0.7259662597684273,-0.5645157545635939 l 20.21281945446404 -25.538237079999416" fill="#78ff26" stroke="none" /><path d="M 86.40962598614128 116.0094264158162 l -13.064618962004731 15.390088286724469 a41.1875973334012,41.1875973334012 0 0,0 -0.5350867491341071,-0.46219518958554046 l 13.3268851909017 -15.163548964674206" fill="#fff517" stroke="none" /><path d="M 85.60350026404147 115.28858382429668 l -14.057875830263232 14.928976971097338 a41.50605340533994,41.50605340533994 0 0,0 -0.5145317954549357,-0.49290982086573576 l 14.31208011158348 -14.685455019926021" fill="#fff917" stroke="none" /><path d="M 85.08716467003676 114.78537596483092 l -11.419337791662619 11.32173720043015 a37.080516435602995,37.080516435602995 0 0,0 -0.4442832073972407,-0.45587371000390486 l 11.61200780021067 -11.124040798358507" fill="#ffc111" stroke="none" /><path d="M 84.58840730492382 114.26474011684316 l -11.858615185311065 10.976157176678871 a37.158675084314595,37.158675084314595 0 0,0 -0.4292752385297274,-0.4718486850975228 l 12.045288124682672 -10.770970916023675" fill="#ffc212" stroke="none" /><path d="M 84.1078160697243 113.72728997021213 l -12.352535173735884 10.669825679155432 a37.32269295312348,37.32269295312348 0 0,0 -0.41464700811992866,-0.4884531329502033 l 12.533876745362925 -10.456205763755674" fill="#ffc412" stroke="none" /><path d="M 83.64595745247003 113.17365903436017 l -21.449944574430777 17.278556987254113 a48.54357736039275,48.54357736039275 0 0,0 -0.5171822777270547,-0.6534429128960888 l 21.743393282799392 -16.907794130443342" fill="#b1ff20" stroke="none" /><path d="M 83.20337586046588 112.60449989151573 l -11.324303751480093 8.49796865258551 a35.158224700721206,35.158224700721206 0 0,0 -0.3581082504048645,-0.4858426183550631 l 11.468514021468788 -8.302319724961567" fill="#ffa70f" stroke="none" /><path d="M 82.78059297857968 112.02048342749411 l -7.78965444925678 5.4377837806329685 a30.49990573025548,30.49990573025548 0 0,0 -0.29600922923767364,-0.43188631180075665 l 7.881853415309779 -5.3032627337621605" fill="#ff6809" stroke="none" /><path d="M 82.37810715431573 111.42229804090323 l -32.97160007537837 21.371792817289418 a60.29223765269464,60.29223765269464 0 0,0 -0.5554991103849426,-0.8733368674749236 l 33.333616877389204 -20.80264227513582" fill="#33ff2f" stroke="none" /><line stroke="#e1ed5e" stroke-width="0.3" x1="26.387840678322732" x2="22.057713659400548" y1="142.50000000000003" y2="145.00000000000006" /><path d="M 25.521815274538298 143.00000000000003 a86.0,86.0 0 0,1 -11.493303480769221,-40.785679425670985" fill="none" id="id105" stroke="none" /><text fill="#e1ed5e" style="font-size:6.75px; font-family:Arial;" text-anchor="middle"><textPath startOffset="21.40746469413373" xlink:href="#id105">September</textPath></text><path d="M 81.63589988554817 110.18625677009913 l -14.012300748898808 7.772387020249928 a37.023563032925594,37.023563032925594 0 0,0 -0.30351326428229103,-0.5584302208680068 l 14.143659362796429 -7.530701965907334" fill="#ffc011" stroke="none" /><path d="M 81.29705330413844 109.54985784667822 l -14.109544350649516 7.204433879925447 a36.8424464434368,36.8424464434368 0 0,0 -0.28277470072595595,-0.565738824714353 l 14.231138964587208 -6.961163199047341" fill="#ffbd11" stroke="none" /><path d="M 80.9802524753101 108.90220220490708 l -28.874654642302335 13.51479633938123 a52.88095671097692,52.88095671097692 0 0,0 -0.3777602390463722,-0.8254742971850629 l 29.102399346203764 -13.017133059981479" fill="#80ff26" stroke="none" /><path d="M 80.68587082218212 108.24405325689762 l -17.36722839588823 7.413037082968464 a39.88316024791433,39.88316024791433 0 0,0 -0.2633696935521682,-0.6319913881547474 l 17.491923933976885 -7.113813185372436" fill="#ffe515" stroke="none" /><path d="M 80.28708602549918 107.23885506374661 l -10.804668149714844 3.9676238048233814 a32.51012130614024,32.51012130614024 0 0,0 -0.187877275883998,-0.5255261784404968 l 10.871185595642785 -3.7815626700019633" fill="#ff830c" stroke="none" /><path d="M 80.05021161711548 106.5578916946017 l -25.039466965138708 8.23097013845087 a47.35761323258126,47.35761323258126 0 0,0 -0.24724120889832776,-0.7744795654540342 l 25.17707288981429 -7.799921539305444" fill="#beff1e" stroke="none" /><path d="M 79.407916724674 104.11899336999214 l -23.26522443469627 4.653696467550633 a44.726094470200565,44.726094470200565 0 0,0 -0.14413241164461862,-0.7541616822845559 l 23.34168313862305 -4.253632220232762" fill="#deff1b" stroke="none" /><path d="M 79.2786578344484 103.40968896794605 l -16.843784183781075 2.7716382776295694 a38.07029713777165,38.07029713777165 0 0,0 -0.10057539424077884,-0.6457661789455026 l 16.88888107016012 -2.482083916752617" fill="#ffcd13" stroke="none" /><path d="M 79.22317932658666 103.0534771498775 l -11.356665010358185 1.6690386682846123 a32.47865541924328,32.47865541924328 0 0,0 -0.07633332094540088,-0.5523098849596393 l 11.3836428478588 -1.4738404751248873" fill="#ff830c" stroke="none" /><path d="M 79.17382384314188 102.69636545807758 l -14.268121128766335 1.8472939378553892 a35.38720874381079,35.38720874381079 0 0,0 -0.07282673023816062,-0.603109798354355 l 14.297729945264157 -1.602090462577635" fill="#ffaa0f" stroke="none" /><path d="M 79.0935383218832 101.97986365728391 l -42.317373982413656 4.007499313342415 a63.50670760614023,63.50670760614023 0 0,0 -0.09346486983331545,-1.086203462980644 l 42.37993247494471 -3.280474802986109" fill="#33ff52" stroke="none" /><path d="M 79.03789590574601 101.26102812881392 l -16.19895819981729 0.9744890997392717 a37.22824315090634,37.22824315090634 0 0,0 -0.032899858105002684,-0.6382484579693245 l 16.213299647378864 -0.6962688483932165" fill="#ffc212" stroke="none" /><path d="M 79.00696218219943 100.54070618675478 l -20.474075577128374 0.5273395603208547 a41.48086564942615,41.48086564942615 0 0,0 -0.012224151162762783,-0.711995521505193 l 20.480111159889805 -0.1757971228466094" fill="#fff917" stroke="none" /><line stroke="#e1ed5e" stroke-width="0.3" x1="15.003131293944662" x2="10.003315487706104" y1="100.72959589197737" y2="100.7725132973878" /><path d="M 14.003168132696942 100.73817937305945 a86.0,86.0 0 0,1 10.791469493833604,-42.45332614584628" fill="none" id="id106" stroke="none" /><text fill="#e1ed5e" style="font-size:6.75px; font-family:Arial;" text-anchor="middle"><textPath startOffset="22.145653131862435" xlink:href="#id106">October</textPath></text><path d="M 79.00077361379809 100.18025310272382 l -14.033875700976063 0.12046394432908977 a35.03439271049267,35.03439271049267 0 0,0 0.0,-0.6014340941058095 l 14.033875700976063 0.12046394432908461" fill="#ffa50f" stroke="none" /><path d="M 79.01933749520258 99.09900007780938 l -25.232949549894094 -1.0836114243721306 a46.25620630075963,46.25620630075963 0 0,0 0.04087817460528929,-0.793025666650444 l 25.210629785832236 1.5166088843992866" fill="#cbff1d" stroke="none" /><path d="M 79.06263194458094 98.37931529534042 l -38.1238500523475 -2.9510271061306272 a59.23789355854993,59.23789355854993 0 0,0 0.0871823185195941,-1.01319069352528 l 38.06757411113016 3.6050388470315875" fill="#3dff2e" stroke="none" /><path d="M 79.13060592940154 97.66154086499901 l -15.625433951382504 -1.7508624657887464 a36.7232218563221,36.7232218563221 0 0,0 0.07557623973588531,-0.625879681243864 l 15.59307562538695 2.0188358239560467" fill="#ffbc11" stroke="none" /><path d="M 79.17382384314186 97.30363454192245 l -16.70271038453944 -2.1625002591901503 a37.84211808416029,37.84211808416029 0 0,0 0.0889388586961258,-0.6435172766822534 l 16.663127009288107 2.4489058440724705" fill="#ffca12" stroke="none" /><path d="M 79.2786578344484 96.59031103205396 l -21.185495623920392 -3.4860652428895165 a42.47039533191768,42.47039533191768 0 0,0 0.1245498594139576,-0.7183704912625666 l 21.1225309470142 3.8492287670726757" fill="#f9ff18" stroke="none" /><path d="M 79.407916724674 95.88100663000787 l -11.75538451534609 -2.3514061318136426 a32.988251578123034,32.988251578123034 0 0,0 0.11583948510821365,-0.5543338706084647 l 11.713287319413508 2.5528564537075162" fill="#ff8a0c" stroke="none" /><path d="M 79.83685265289637 94.1308016681162 l -28.274717901754432 -8.230358301046698 a50.44823373629394,50.44823373629394 0 0,0 0.2491750691640689,-0.8294227654480075 l 28.12926651258673 8.714518670085427" fill="#9bff22" stroke="none" /><path d="M 80.05021161711548 93.44210830539832 l -16.452206733262127 -5.408167135571872 a38.318296052449135,38.318296052449135 0 0,0 0.2107772292649511,-0.6231254256626058 l 16.35694408242481 5.689794235708639" fill="#ffd113" stroke="none" /><path d="M 80.28708602549916 92.7611449362534 l -15.143611518825697 -5.560943910588875 a37.13236086286895,37.13236086286895 0 0,0 0.22486175901364977,-0.5964725309677718 l 15.045919075997611 5.820084721750792" fill="#ffc112" stroke="none" /><path d="M 80.41425534168474 92.42381321644754 l -17.576061972900977 -6.798798347932992 a39.845201337505316,39.845201337505316 0 0,0 0.2522416124785347,-0.635813639862763 l 17.45676168545631 7.099513005009338" fill="#ffe415" stroke="none" /><path d="M 80.68587082218212 91.75594674310238 l -19.765709921419226 -8.436806223690159 a42.4909978352283,42.4909978352283 0 0,0 0.2921076384141395,-0.6683994418117828 l 19.617968400988108 8.774867735277809" fill="#f9ff18" stroke="none" /><path d="M 81.1358732173502 90.77261029715801 l -12.928487489164432 -6.323971085720195 a35.39230346575927,35.39230346575927 0 0,0 0.2716445021070178,-0.5434709716519978 l 12.818023073845671 6.544973913535962" fill="#ffaa0f" stroke="none" /><path d="M 81.29705330413844 90.45014215332179 l -10.79810879856423 -5.513591292118231 a33.12430792095583,33.12430792095583 0 0,0 0.2629311833910867,-0.504205212928445 l 10.701869546198205 5.698142748151162" fill="#ff8c0c" stroke="none" /><line stroke="#e1ed5e" stroke-width="0.3" x1="26.387840678322718" x2="22.05771365940052" y1="57.49999999999999" y2="54.99999999999999" /><path d="M 25.521815274538284 56.99999999999999 a86.0,86.0 0 0,1 29.574782752854787,-30.34633250058573" fill="none" id="id107" stroke="none" /><text fill="#e1ed5e" style="font-size:6.75px; font-family:Arial;" text-anchor="middle"><textPath startOffset="21.40746469413373" xlink:href="#id107">November</textPath></text><path d="M 81.81346652052679 89.5 l -25.841098321501253 -14.919365072074338 a50.83873014414867,50.83873014414867 0 0,0 0.4428447755705935,-0.7520472440341956 l 25.581179835800878 15.360763484402106" fill="#97ff23" stroke="none" /><path d="M 82.18462484594161 88.88188828441811 l -12.531992184758675 -7.820889985423961 a35.7721747986868,35.7721747986868 0 0,0 0.3295849026481947,-0.5181622095602264 l 12.395889590484591 8.034865869662859" fill="#ffaf10" stroke="none" /><path d="M 82.78059297857968 87.97951657250589 l -13.31042594187463 -9.291711047201591 a37.23278574178866,37.23278574178866 0 0,0 0.3703507991013417,-0.5209447792372655 l 13.148960044243317 9.518833053148377" fill="#ffc312" stroke="none" /><path d="M 83.2033758604659 87.39550010848427 l -24.148485239475587 -18.121473520671522 a51.19167338723658,51.19167338723658 0 0,0 0.5334855474628992,-0.6983497067450696 l 23.833847714658383 18.533344140657476" fill="#93ff23" stroke="none" /><path d="M 83.64595745247003 86.82634096563983 l -13.474221940541767 -10.853879405175046 a38.30206216163438,38.30206216163438 0 0,0 0.4168599112743456,-0.5085013112812455 l 13.285915210028792 11.083582998154785" fill="#ffd013" stroke="none" /><path d="M 83.8745106332314 86.54754324733833 l -10.727172967765027 -8.948989214836965 a34.969847810467265,34.969847810467265 0 0,0 0.38850740988146865,-0.45766075195238304 l 10.571970994376443 9.131816749238904" fill="#ffa50f" stroke="none" /><path d="M 84.34580500576568 86.00192230759919 l -11.667624870688448 -10.43326210551484 a36.652042303976806,36.652042303976806 0 0,0 0.4234223681802842,-0.46541535531151174 l 11.486804801666297 10.63201503638401" fill="#ffbb11" stroke="none" /><path d="M 84.83555147118756 85.47280134310135 l -33.06630384712398 -31.676771095490665 a66.79080996386108,66.79080996386108 0 0,0 0.8002594927969496,-0.8211367386231175 l 32.51765755317623 32.23973052618151" fill="#37ff79" stroke="none" /><path d="M 85.34317274990677 84.96080404539775 l -12.385336677720495 -12.70844651995036 a38.74545512436711,38.74545512436711 0 0,0 0.48030990554971653,-0.4601260244670052 l 12.165354286305478 12.919184674722933" fill="#ffd614" stroke="none" /><path d="M 85.86807049272753 84.46653392183569 l -11.296764968869736 -12.41712360273448 a37.786954974844846,37.786954974844846 0 0,0 0.4835560157900299,-0.4323987710738037 l 11.081943926256315 12.609217903691682" fill="#ffca12" stroke="none" /><path d="M 86.68645165197937 83.75963576809568 l -11.616747273198579 -14.17054281661695 a39.32356681781527,39.32356681781527 0 0,0 0.5257171948088412,-0.42348055857039074 l 11.37177930803449 14.367871668980738" fill="#ffdd14" stroke="none" /><path d="M 88.4268655584334 82.4767994020092 l -1.287779803742305 -1.9498627567971967 a23.336737382178693,23.336737382178693 0 0,0 0.3361761121120769,-0.21790529430648847 l 1.254118059373202 1.9716818928075917" fill="#ff0000" stroke="none" /><path d="M 88.72937992617638 82.28071324371311 l -32.220538406218424 -50.656038063755766 a81.03496720664774,81.03496720664774 0 0,0 1.1801618949592054,-0.7365083068509085 l 31.346212382469517 51.20168216744821" fill="#49eeff" stroke="none" /><line stroke="#e1ed5e" stroke-width="0.3" x1="56.869717070023135" x2="54.33264160355391" y1="26.7553504044142" y2="22.446841604673864" /><path d="M 56.362301976729285 25.89364864446614 a86.0,86.0 0 0,1 42.16139366436587,-11.88097634709845" fill="none" id="id108" stroke="none" /><text fill="#e1ed5e" style="font-size:6.75px; font-family:Arial;" text-anchor="middle"><textPath startOffset="22.145653131862474" xlink:href="#id108">December</textPath></text><path d="M 89.65649057296885 81.72400993836675 l -6.752302936891772 -11.930672296316688 a34.70892178085701,34.70892178085701 0 0,0 0.5210566340119243,-0.289021331441783 l 6.546502114723745 12.044826543191617" fill="#ffa10e" stroke="none" /><path d="M 90.28995756902619 81.37971332152246 l -8.31834821934414 -15.95152952591754 a38.990169852296695,38.990169852296695 0 0,0 0.5961277219207726,-0.30438706239093516 l 8.043293275709784 16.091974539981308" fill="#ffd914" stroke="none" /><path d="M 90.93487009805054 81.0573650232925 l -11.005191705455733 -22.996617983412023 a46.49428726497018,46.49428726497018 0 0,0 0.7229004539291574,-0.33835391382259333 l 10.608802537655054 23.18214812880516" fill="#c8ff1d" stroke="none" /><path d="M 91.92203290615298 80.6158196554323 l -5.419561848233104 -13.004975513543299 a35.08903966687171,35.08903966687171 0 0,0 0.5579918218030222,-0.2269304162455199 l 5.195515565239641 13.09609318636811" fill="#ffa60f" stroke="none" /><path d="M 92.93061703081487 80.22567764915836 l -8.530122199123657 -23.860269954647052 a46.33920809813549,46.33920809813549 0 0,0 0.7513444231152632,-0.26135659241303094 l 8.11927200396339 24.003184979628667" fill="#caff1d" stroke="none" /><path d="M 93.95794788825049 79.88797359093562 l -4.901831586044788 -16.316603115621383 a38.03700355492866,38.03700355492866 0 0,0 0.6269584733115772,-0.18249847419030965 l 4.621013100351587 16.398345284114214" fill="#ffcd13" stroke="none" /><path d="M 94.6519064749342 79.69241777938228 l -1.9478532396365231 -7.396316020320262 a28.648504619571636,28.648504619571636 0 0,0 0.47664932719460157,-0.12116239505017389 l 1.8205986192165435 7.428663647205698" fill="#ff4d07" stroke="none" /><path d="M 95.00130118170881 79.60360301121753 l -0.6004511633708872 -2.45004565101515 a23.522551345691838,23.522551345691838 0 0,0 0.3930146156764463,-0.0927503791763236 l 0.5583043939545349 2.4599921738377057" fill="#ff0300" stroke="none" /><path d="M 95.35216902796891 79.52079915486377 l -1.5675060151225644 -6.906720726899834 a28.082363045398985,28.082363045398985 0 0,0 0.471031604511234,-0.10265914586452152 l 1.448711993992212 6.932611330898069" fill="#ff4506" stroke="none" /><path d="M 95.70440661134978 79.44403061299748 l -6.067856109696943 -29.03688807353813 a50.66411547245539,50.66411547245539 0 0,0 0.8528544227132095,-0.1705947701237876 l 5.568505201452757 29.136772240324785" fill="#98ff23" stroke="none" /><path d="M 96.76829788921471 79.25015418208739 l -1.9053058891817043 -12.233430582769394 a33.38091330858867,33.38091330858867 0 0,0 0.5669587490028518,-0.0833234118066282 l 1.6950220345711675 12.264335067874907" fill="#ff8f0d" stroke="none" /><path d="M 97.48249496171623 79.15144685158666 l -2.6412718410867706 -21.87351982256406 a43.03241217766726,43.03241217766726 0 0,0 0.7341413500368927,-0.08226206954395325 l 2.2653945894490786 21.915637652614983" fill="#f2ff19" stroke="none" /></svg>