<?xml version="1.0" encoding="utf-8" ?>
<svg baseProfile="full" height="200mm" version="1.1" viewBox="0,0,200,200" width="200mm" xmlns="http://www.w3.org/2000/svg" xmlns:ev="http://www.w3.org/2001/xml-events" xmlns:xlink="http://www.w3.org/1999/xlink"><defs /><rect fill="#1a1a1a" height="200" width="200" x="0" y="0" /><text alignment-baseline="middle" fill="#e1ed5e" style="dominant-baseline: central; font-size:9.0px; font-family:Arial;" text-anchor="middle" x="100.0" y="100.0">2017</text><line stroke="#e1ed5e" stroke-width="0.3" x1="100.0" x2="100.0" y1="15.0" y2="10.0" /><path d="M 100.0 14.0 a86.0,86.0 0 0,1 42.46469731375804,11.215312516191453" fill="none" id="id61" stroke="none" /><text fill="#e1ed5e" style="font-size:6.75px; font-family:Arial;" text-anchor="middle"><textPath startOffset="22.20632615414155" xlink:href="#id61">January</textPath></text><path d="M 101.80526077348638 79.07773832637324 l 1.127663513296323 -13.069176183019202 a34.11773574600495,34.11773574600495 0 0,0 0.5846721816934364,0.05552166864260759 l -1.3524608220800038 13.047828969861415" fill="#ff7c0b" stroke="none" /><path d="M 103.95276090670814 79.375362276772 l 3.437874920927307 -17.938075804576478 a39.26454345289454,39.26454345289454 0 0,0 0.6626987198401662,0.1329311288540644 l -3.7461400502345983 17.876240719645203" fill="#ffc412" stroke="none" /><path d="M 104.307194497241 79.44645832069477 l 3.1110195833413994 -14.845503427416828 a36.16797332742178,36.16797332742178 0 0,0 0.6082372825333399,0.13293711152883544 l -3.3660995900282673 14.789752817792122" fill="#ff990e" stroke="none" /><path d="M 105.71112130821622 79.79150937346287 l 1.9028272915066724 -6.733050378217569 a27.996764902218622,27.996764902218622 0 0,0 0.46262625205558483,0.13505328902213987 l -2.0184437612856843 6.699298760276726" fill="#ff2103" stroke="none" /><line stroke="#e1ed5e" stroke-width="0.3" x1="143.23703022742887" x2="145.7803849466894" y1="26.81831364943548" y2="22.513508569990506" /><path d="M 143.74570117128098 25.957352633546492 a86.0,86.0 0 0,1 28.547481713284135,27.462654790039103" fill="none" id="id62" stroke="none" /><text fill="#e1ed5e" style="font-size:6.75px; font-family:Arial;" text-anchor="middle"><textPath startOffset="19.985693538727396" xlink:href="#id62">February</textPath></text><path d="M 111.90073688211348 82.69761687909136 l 13.115817889840828 -19.06897936842645 a44.14412783132997,44.14412783132997 0 0,0 0.6223667438616906,0.43600767691353487 l -13.44211577328617 18.84038684874898" fill="#f9ff18" stroke="none" /><path d="M 113.34407831869373 83.78471172551755 l 17.70674909966012 -21.516663361657194 a48.86567361283763,48.86567361283763 0 0,0 0.6448930068196994,0.540079347081476 l -18.074499643438937 21.2086828571819" fill="#beff1e" stroke="none" /><path d="M 113.6212207817346 84.01681056812373 l 9.800152739356193 -11.499534454686666 a36.10901341548271,36.10901341548271 0 0,0 0.4695997851674054,0.4072323061840488 l -9.996646323170362 11.329137155082945" fill="#ff980e" stroke="none" /><path d="M 113.89432698308785 84.25364557470407 l 11.020476729364935 -12.489437791951332 a37.65643910628848,37.65643910628848 0 0,0 0.4823413507548704,0.43305082716129806 l -11.233829067715796 12.297887956020736" fill="#ffae10" stroke="none" /><path d="M 114.42810811169701 84.74124197986012 l 29.990818042883767 -31.71743875216802 a64.65140419137616,64.65140419137616 0 0,0 0.8020368626590393,0.7715588264250223 l -30.532338149155226 31.196496838980696" fill="#33ff56" stroke="none" /><path d="M 114.94478906791727 85.2469230424477 l 19.24193660805366 -18.995100586623415 a48.038231649357115,48.038231649357115 0 0,0 0.5758542673643583,0.5934684415381392 l -19.56605513912113 18.661067949535163" fill="#c8ff1d" stroke="none" /><path d="M 115.9244219780498 86.31012108654704 l 9.43804825359396 -8.113684625358736 a33.44622967154916,33.44622967154916 0 0,0 0.37155478101165146,0.43980366630703466 l -9.576313648092729 7.950022009422596" fill="#ff720a" stroke="none" /><path d="M 117.65298651832404 88.62581576622439 l 11.208746141386904 -7.222026907991995 a34.33392900542883,34.33392900542883 0 0,0 0.3158270283952091,0.49956251289629633 l -11.331400766028068 7.028016747381493" fill="#ff7f0b" stroke="none" /><line stroke="#e1ed5e" stroke-width="0.3" x1="172.23445277983987" x2="176.4835382374775" y1="55.19839476539836" y2="52.563006222186495" /><path d="M 173.08426987136738 54.67131705675599 a86.0,86.0 0 0,1 12.851231095245387,41.99856678651699" fill="none" id="id63" stroke="none" /><text fill="#e1ed5e" style="font-size:6.75px; font-family:Arial;" text-anchor="middle"><textPath startOffset="22.20632615414155" xlink:href="#id63">March</textPath></text><path d="M 118.3937258080291 89.86733742301442 l 17.57341323667082 -9.68077204757449 a41.06345434425231,41.06345434425231 0 0,0 0.3357267870962127,0.6220507484269533 l -17.737448122985498 9.376840315815077" fill="#ffdc14" stroke="none" /><path d="M 119.85752413597 93.16781622104841 l 26.42430104626042 -9.091550373662685 a48.94458756146252,48.94458756146252 0 0,0 0.2672437554772311,0.799024813449681 l -26.576882095509422 8.63535245729069" fill="#bdff1f" stroke="none" /><path d="M 120.87857604477298 97.74499172005257 l 31.614133959488548 -3.4145113004419465 a52.79799291510917,52.79799291510917 0 0,0 0.08981409833985837,0.904415713393269 l -31.668225183510636 2.869820056344243" fill="#90ff24" stroke="none" /><path d="M 120.98425023603335 99.18683210126433 l 22.582779127798897 -0.8751130416578182 a43.59972867028782,43.59972867028782 0 0,0 0.022606055591098368,0.7501849301307209 l -22.594496877845643 0.48625796410209826" fill="#fffe18" stroke="none" /><line stroke="#e1ed5e" stroke-width="0.3" x1="184.98032266829074" x2="189.97916517819016" y1="98.17113171792111" y2="98.06355123074" /><path d="M 185.9800911702706 98.14961562048488 a86.0,86.0 0 0,1 -9.607161424134198,41.387399972396054" fill="none" id="id64" stroke="none" /><text fill="#e1ed5e" style="font-size:6.75px; font-family:Arial;" text-anchor="middle"><textPath startOffset="21.466115282336823" xlink:href="#id64">April</textPath></text><path d="M 120.89721153311464 102.0752229133903 l 14.330336739290376 1.423091454611016 a35.40082429410353,35.40082429410353 0 0,0 -0.0654370725744166,0.6058660218862401 l -14.303717365214908 -1.6695537983820474" fill="#ff8e0d" stroke="none" /><path d="M 119.67450827220406 107.3425965602758 l 13.02461301476104 4.860831965809235 a34.90209450349535,34.90209450349535 0 0,0 -0.2149066892128559,0.5610535510734521 l -12.939012045954678 -5.084309083715832" fill="#ff870c" stroke="none" /><path d="M 119.26925614724726 108.34839909993367 l 20.116174220520435 8.715326085936777 a42.922987343301116,42.922987343301116 0 0,0 -0.2995593554822626,0.675427265252246 l -19.9631737803069 -9.06030168768171" fill="#fff517" stroke="none" /><path d="M 118.97047184881838 109.00673069616215 l 25.92967278828495 12.310794465464669 a49.70372086121311,49.70372086121311 0 0,0 -0.3735985939082751,0.7697237596993158 l -25.71392093776196 -12.75530718112926" fill="#b4ff20" stroke="none" /><path d="M 118.81262510543309 109.33194174019688 l 17.321068685803166 8.592060010124914 a40.33501785972536,40.33501785972536 0 0,0 -0.3138858225157578,0.619326506179288 l -17.170604193501138 -8.888940728006897" fill="#ffd213" stroke="none" /><line stroke="#e1ed5e" stroke-width="0.3" x1="174.80103733775053" x2="179.2010983576182" y1="140.37084112569926" y2="142.7455964860345" /><path d="M 175.68104954172406 140.8457921977663 a86.0,86.0 0 0,1 -30.038265399797805,32.042727171017184" fill="none" id="id65" stroke="none" /><text fill="#e1ed5e" style="font-size:6.75px; font-family:Arial;" text-anchor="middle"><textPath startOffset="22.206326154141568" xlink:href="#id65">May</textPath></text><path d="M 116.0416608686014 113.55231037782055 l 23.644541799818143 19.975373612322528 a51.95286590729877,51.95286590729877 0 0,0 -0.5830039047771369,0.6781652528276617 l -23.29719538547023 -20.37941596431172" fill="#99ff23" stroke="none" /><path d="M 115.32070863581623 114.36230785411682 l 12.92520842668457 12.116660326578861 a38.71650276840573,38.71650276840573 0 0,0 -0.4599768473445435,0.4822838854775524 l -12.714725027961062 -12.33735132863892" fill="#ffbd11" stroke="none" /><path d="M 115.07121518719521 114.62390073753431 l 24.13438938905166 23.418079458274654 a54.62848787406943,54.62848787406943 0 0,0 -0.6606388873647584,0.6692237050031596 l -23.727709876631366 -23.83004365725848" fill="#7bff26" stroke="none" /><path d="M 114.0293411484842 115.62618273729858 l 8.324293093192514 9.271777174447907 a33.460325335800256,33.460325335800256 0 0,0 -0.43188938364295754,0.38109216614732333 l -8.163461356642967 -9.413692482367518" fill="#ff730a" stroke="none" /><path d="M 113.75828350139079 115.86535959552629 l 9.290261186470039 10.713061294659921 a35.18021985781505,35.18021985781505 0 0,0 -0.46091871545212576,0.39280492872628464 l -9.104476994440866 -10.871390613609153" fill="#ff8b0c" stroke="none" /><path d="M 112.63410532772338 116.77436683061366 l 18.667729065074383 24.78524019781091 a52.028893633357356,52.028893633357356 0 0,0 -0.7200180220165485,0.5326521194880287 l -18.23832607263927 -25.102902266038708" fill="#99ff23" stroke="none" /><line stroke="#e1ed5e" stroke-width="0.3" x1="143.8653032363475" x2="146.44561519142675" y1="172.8068346515853" y2="177.08958963109032" /><path d="M 144.38136562736335 173.6633856474863 a86.0,86.0 0 0,1 -40.68145358897372,12.25698825130547" fill="none" id="id66" stroke="none" /><text fill="#e1ed5e" style="font-size:6.75px; font-family:Arial;" text-anchor="middle"><textPath startOffset="21.466115282336833" xlink:href="#id66">June</textPath></text><path d="M 110.21172684928248 118.3499491758327 l 7.0631154581066555 12.69205606379905 a35.52500902241246,35.52500902241246 0 0,0 -0.5368965462797215,0.29275880512604635 l -6.843596099958285 -12.811755520684867" fill="#ff900d" stroke="none" /><path d="M 109.89434966115114 118.52300852407294 l 10.57117185664198 19.790073437452996 a43.43650331674796,43.43650331674796 0 0,0 -0.6625289130853533,0.3466038142760568 l -10.228952041030132 -19.96910667067377" fill="#fffb17" stroke="none" /><path d="M 109.2508944713604 118.85261126421891 l 12.070804777878129 24.599371534085584 a48.40133952670244,48.40133952670244 0 0,0 -0.7511134954081875,0.36058012288787644 l -11.64557861446971 -24.803505933473023" fill="#c4ff1e" stroke="none" /><path d="M 107.59598834532513 119.57807347666477 l 7.080453024148741 18.2493209906214 a40.57474218593726,40.57474218593726 0 0,0 -0.6533108865733205,0.24702627571163732 l -6.765271916815146 -18.36849551643967" fill="#ffd614" stroke="none" /><path d="M 105.18746579009965 120.34920634021253 l 3.747970020575725 14.702403522580312 a36.172605202005236,36.172605202005236 0 0,0 -0.6046797256402178,0.1486155647777327 l -3.494337010192296 -14.764740345672074" fill="#ff990e" stroke="none" /><path d="M 103.06178313531738 120.77559828337769 l 1.8736126328513873 12.713318245757181 a33.85063753733186,33.85063753733186 0 0,0 -0.5771878796293515,0.07999298076869102 l -1.6544961620352054 -12.743685792018475" fill="#ff780b" stroke="none" /><path d="M 100.90346689309514 120.98055641714683 l 1.2162768457127993 28.244715080732355 a49.27089067145156,49.27089067145156 0 0,0 -0.8476461930694608,0.02919464877860796 l -0.7299103009686864 -28.26146652793706" fill="#b9ff1f" stroke="none" /><line stroke="#e1ed5e" stroke-width="0.3" x1="102.19456741930631" x2="102.32365962044197" y1="184.97166512339345" y2="189.96999836594603" /><path d="M 102.22038585953345 185.97133177190398 a86.0,86.0 0 0,1 -42.740103519485714,-10.115201625700543" fill="none" id="id67" stroke="none" /><text fill="#e1ed5e" style="font-size:6.75px; font-family:Arial;" text-anchor="middle"><textPath startOffset="22.20632615414155" xlink:href="#id67">July</textPath></text><path d="M 98.73552117531835 120.96189622390904 l -0.9551481803028943 15.833967831771002 a36.862750245272565,36.862750245272565 0 0,0 -0.6330514513595674,-0.043658934489649706 l 1.2275623924413919 -15.815180552765067" fill="#ffa30f" stroke="none" /><path d="M 96.93821686468263 120.77559828337769 l -5.769736021064044 39.15029656806041 a60.57316736274526,60.57316736274526 0 0,0 -1.030217286171984,-0.16089875261147524 l 6.442789170844545 -39.04517950810183" fill="#3aff2e" stroke="none" /><line stroke="#e1ed5e" stroke-width="0.3" x1="58.666819895761336" x2="56.23545636021788" y1="174.27360380694188" y2="178.64263932499728" /><path d="M 58.180547188652646 175.14741091055294 a86.0,86.0 0 0,1 -31.652253787137756,-30.449443065178592" fill="none" id="id68" stroke="none" /><text fill="#e1ed5e" style="font-size:6.75px; font-family:Arial;" text-anchor="middle"><textPath startOffset="22.20632615414155" xlink:href="#id68">August</textPath></text><path d="M 85.97065885151581 115.62618273729859 l -28.186660231700657 31.39491005835937 a63.19156541999609,63.19156541999609 0 0,0 -0.8031360609757946,-0.7336457495291734 l 28.722895842143306 -30.90507154224362" fill="#31ff44" stroke="none" /><path d="M 84.43433777217949 114.09645910891817 l -10.606630512082065 9.605497736533097 a35.309653999533765,35.309653999533765 0 0,0 -0.4041125171793856,-0.45402469701842485 l 10.770401878909789 -9.421498869773808" fill="#ff8d0d" stroke="none" /><path d="M 82.05923443525364 110.91462005526583 l -25.190093360453258 15.324892195586118 a50.485473106509374,50.485473106509374 0 0,0 -0.4452797675594348,-0.7463145028739914 l 25.450154003710924 -14.889015598826015" fill="#abff21" stroke="none" /><line stroke="#e1ed5e" stroke-width="0.3" x1="26.63291911575756" x2="22.317208475507996" y1="142.92168965132927" y2="145.44649492493687" /><path d="M 25.769776987707644 143.4266507060508 a86.0,86.0 0 0,1 -11.730757126820373,-40.83630448921669" fill="none" id="id69" stroke="none" /><text fill="#e1ed5e" style="font-size:6.75px; font-family:Arial;" text-anchor="middle"><textPath startOffset="21.46611528233685" xlink:href="#id69">September</textPath></text><path d="M 81.35079622478065 109.6543875284942 l -32.83846482242013 16.999935710807 a57.97786616430017,57.97786616430017 0 0,0 -0.4511819053106539,-0.8902247028163807 l 33.12622539751705 -16.432156796287938" fill="#56ff2b" stroke="none" /><path d="M 80.58989483394504 108.01547362559985 l -4.465249908782117 1.843941213577135 a25.83100154698868,25.83100154698868 0 0,0 -0.16617622762435916,-0.41243576895041795 l 4.4963287506638645 -1.7668060767839115" fill="#ff0000" stroke="none" /><path d="M 80.45479744820244 107.68017299344265 l -29.15885487232473 11.457801428082204 a52.32922008334485,52.32922008334485 0 0,0 -0.3222127381517485,-0.8411957841018208 l 29.351761890069987 -10.954182077147227" fill="#95ff23" stroke="none" /><path d="M 79.18660465613746 102.79330883721812 l -30.934876595490742 4.151685140498577 a52.212226442278634,52.212226442278634 0 0,0 -0.11187958994115939,-0.8917904111414688 l 31.001757694678748 -3.6185769750696988" fill="#96ff23" stroke="none" /><line stroke="#e1ed5e" stroke-width="0.3" x1="15.007084014347285" x2="10.007500721073583" y1="101.09737516637583" y2="101.16192664675087" /><path d="M 14.007167355692545 101.11028546245083 a86.0,86.0 0 0,1 10.666146001902534,-42.60595125391555" fill="none" id="id70" stroke="none" /><text fill="#e1ed5e" style="font-size:6.75px; font-family:Arial;" text-anchor="middle"><textPath startOffset="22.20632615414155" xlink:href="#id70">October</textPath></text><path d="M 81.10775173730289 90.83032412892265 l -15.704455049236426 -7.622425903524699 a38.456554214627005,38.456554214627005 0 0,0 0.29417430337590766,-0.5930374448465145 l 15.570920732907107 7.891622936870176" fill="#ffb911" stroke="none" /><line stroke="#e1ed5e" stroke-width="0.3" x1="26.266209847984243" x2="21.928928074336255" y1="57.711370442889674" y2="55.22380399835377" /><path d="M 25.398753493254645 57.213857153982495 a86.0,86.0 0 0,1 29.58750427330803,-30.492523968695096" fill="none" id="id71" stroke="none" /><text fill="#e1ed5e" style="font-size:6.75px; font-family:Arial;" text-anchor="middle"><textPath startOffset="21.46611528233685" xlink:href="#id71">November</textPath></text><path d="M 82.15384107792192 88.93136811851018 l -53.53847676623425 -33.20589564446946 a84.0,84.0 0 0,0 0.7726896150161493,-1.222209409143138 l 52.95895955497213 34.12255270132681" fill="#4dd2ff" stroke="none" /><path d="M 85.83668400450813 84.49514656593479 l -11.315255227332882 -12.387026733335535 a37.77716996850343,37.77716996850343 0 0,0 0.483887792440327,-0.4344392377754767 l 11.100356447296583 12.579964979880291" fill="#ffb010" stroke="none" /><path d="M 87.80319425747018 82.90503203632743 l -9.215245278397383 -12.916031142668082 a36.86646167295648,36.86646167295648 0 0,0 0.5197624426235663,-0.36412680688730253 l 8.991551696190156 13.072742792319328" fill="#ffa30f" stroke="none" /><line stroke="#e1ed5e" stroke-width="0.3" x1="56.762969772571076" x2="54.21961505331055" y1="26.818313649435495" y2="22.513508569990535" /><path d="M 56.25429882871897 25.957352633546506 a86.0,86.0 0 0,1 42.265352541879196,-11.944610805530505" fill="none" id="id72" stroke="none" /><text fill="#e1ed5e" style="font-size:6.75px; font-family:Arial;" text-anchor="middle"><textPath startOffset="22.20632615414155" xlink:href="#id72">December</textPath></text><path d="M 91.56875222667455 80.76684994638697 l -16.833044694187176 -38.39911756439607 a62.92664574469098,62.92664574469098 0 0,0 0.9957879261302951,-0.4263444219177698 l 16.16957301026657 38.68318151427663" fill="#31ff40" stroke="none" /><path d="M 95.692805502759 79.44645832069477 l -3.061422510929917 -14.608830694009056 a35.92615965466836,35.92615965466836 0 0,0 0.6063541790695719,-0.1216289440374021 l 2.8095019223932085 14.659363594123668" fill="#ff960d" stroke="none" /><path d="M 96.75951476605007 79.25152402106235 l -7.564149879862275 -48.43243241448204 a70.01955602602283,70.01955602602283 0 0,0 1.1924364386438044,-0.1757341342462604 l 6.729344460789822 48.55546103288927" fill="#3aff97" stroke="none" /><path d="M 97.47563105711357 79.15227682838746 l -1.383740664245676 -11.427744106418837 a32.511215122117974,32.511215122117974 0 0,0 0.556148141963007,-0.06248972380555009 l 1.186825818772951 11.449869783694986" fill="#ff6509" stroke="none" /></svg>