<?xml version="1.0" encoding="utf-8" ?>
<svg baseProfile="full" height="200mm" version="1.1" viewBox="0,0,200,200" width="200mm" xmlns="http://www.w3.org/2000/svg" xmlns:ev="http://www.w3.org/2001/xml-events" xmlns:xlink="http://www.w3.org/1999/xlink"><defs /><rect fill="#1a1a1a" height="200" width="200" x="0" y="0" /><text alignment-baseline="middle" fill="#e1ed5e" style="dominant-baseline: central; font-size:9.0px; font-family:Arial;" text-anchor="middle" x="100.0" y="100.0">2022</text><line stroke="#e1ed5e" stroke-width="0.3" x1="100.0" x2="100.0" y1="15.0" y2="10.0" /><path d="M 100.0 14.0 a86.0,86.0 0 0,1 42.46469731375804,11.215312516191453" fill="none" id="id121" stroke="none" /><text fill="#e1ed5e" style="font-size:6.75px; font-family:Arial;" text-anchor="middle"><textPath startOffset="22.20632615414155" xlink:href="#id121">January</textPath></text><path d="M 100.0 79.0 l 0.0 -49.4680856014395 a70.4680856014395,70.4680856014395 0 0,0 1.2129922550774241,0.01044060729477347 l -0.8515117758048957 49.46075637075328" fill="#3cffa3" stroke="none" /><path d="M 100.36148047927253 79.00311137660856 l 0.2791229748559072 -16.21308577180636 a37.21548827137321,37.21548827137321 0 0,0 0.6404136294996223,0.016539994645728716 l -0.5581632395503974 16.20587898501827" fill="#ffc312" stroke="none" /><path d="M 101.08401301168833 79.027996857942 l 1.1770561498648917 -22.77207469576259 a43.8024745834597,43.8024745834597 0 0,0 0.7526473897357415,0.04540174593972592 l -1.568865588440245 22.74843968044256" fill="#e8ff1a" stroke="none" /><path d="M 101.44485096284872 79.0497635885617 l 1.0652263131200843 -15.445705934645408 a36.48239448269239,36.48239448269239 0 0,0 0.6261244231959778,0.04859930573287277 l -1.3309409256784033 15.425081366724072" fill="#ffb911" stroke="none" /><path d="M 101.80526077348638 79.07773832637324 l 2.251492766214126 -26.093914797714525 a47.19086881236855,47.19086881236855 0 0,0 0.808705138873909,0.0767962974056359 l -2.700323032178279 26.05129295579371" fill="#c0ff1e" stroke="none" /><path d="M 102.16513564639614 79.11191278185805 l 2.2596593280186115 -21.80000186385786 a42.91680044036784,42.91680044036784 0 0,0 0.734149699857553,0.0824902728508546 l -2.6345757313858895 21.757875637536408" fill="#f3ff19" stroke="none" /><path d="M 102.88285421437855 79.19881850522331 l 4.646459115047337 -33.526440177965696 a54.84688720273282,54.84688720273282 0 0,0 0.9340451519346595,0.13765397534215162 l -5.222873247410653 33.44149171846258" fill="#6aff28" stroke="none" /><path d="M 110.05341064243156 81.56283822128135 l 11.61665716778666 -21.304032546569914 a45.26537711430011,45.26537711430011 0 0,0 0.680868677594162,0.378902681920275 l -11.981649934452856 21.10091446708946" fill="#d6ff1c" stroke="none" /><line stroke="#e1ed5e" stroke-width="0.3" x1="143.23703022742887" x2="145.7803849466894" y1="26.81831364943548" y2="22.513508569990506" /><path d="M 143.74570117128098 25.957352633546492 a86.0,86.0 0 0,1 28.547481713284135,27.462654790039103" fill="none" id="id122" stroke="none" /><text fill="#e1ed5e" style="font-size:6.75px; font-family:Arial;" text-anchor="middle"><textPath startOffset="19.985693538727396" xlink:href="#id122">February</textPath></text><path d="M 110.68208982089419 81.91981866633111 l 8.296841977404021 -14.042983158112355 a37.310823485558316,37.310823485558316 0 0,0 0.5501355377041296,0.33145050595819314 l -8.537339581325787 13.898086042695548" fill="#ffc412" stroke="none" /><path d="M 112.19680574252982 82.90503203632743 l 18.435202559447752 -25.838666599293298 a52.74103629431944,52.74103629431944 0 0,0 0.7344934802204067,0.5336407499227867 l -18.877241356021948 25.517506614553838" fill="#81ff25" stroke="none" /><path d="M 112.77801427241765 83.33499621200491 l 6.523831696350709 -8.508339215632827 a31.721577132613728,31.721577132613728 0 0,0 0.4304579419901895,0.33597925153408026 l -6.669322193500329 8.394781574875523" fill="#ff790b" stroke="none" /><path d="M 113.34407831869373 83.78471172551755 l 10.176671316560164 -12.366358704707732 a37.01535097020353,37.01535097020353 0 0,0 0.4885012161049967,0.4091057199450383 l -10.388030069624277 12.189351827368874" fill="#ffc011" stroke="none" /><path d="M 113.89432698308785 84.25364557470407 l 18.893612451727087 -21.412013579441638 a49.555961146532084,49.555961146532084 0 0,0 0.6347623355970073,0.5698958922989372 l -19.259385774920084 21.083618678373405" fill="#a5ff21" stroke="none" /><path d="M 114.94478906791727 85.2469230424477 l 14.760853365084587 -14.571500786299573 a41.74153869004559,41.74153869004559 0 0,0 0.5003731893477994,0.5156785556680001 l -15.009490818135495 14.315258035081458" fill="#fffd17" stroke="none" /><path d="M 115.9244219780498 86.31012108654704 l 24.879421127106053 -21.38829673920739 a53.809218720114025,53.809218720114025 0 0,0 0.5977676011406157,0.7075682941433061 l -25.243899341733783 20.95686949543498" fill="#75ff27" stroke="none" /><path d="M 116.82858285166822 87.43820079747576 l 11.32748657169092 -8.455472040461542 a35.13530896227122,35.13530896227122 0 0,0 0.35760614981535327,0.4877743864622675 l -11.4713553340199 8.25923521032778" fill="#ffa80f" stroke="none" /><path d="M 117.45458315368197 88.32363383020206 l 30.34602094755317 -20.300184155657984 a57.5099775965826,57.5099775965826 0 0,0 0.5433415740786832,0.8275464938445679 l -30.69095915698978 19.774819597835744" fill="#4fff2b" stroke="none" /><line stroke="#e1ed5e" stroke-width="0.3" x1="172.23445277983987" x2="176.4835382374775" y1="55.19839476539836" y2="52.563006222186495" /><path d="M 173.08426987136738 54.67131705675599 a86.0,86.0 0 0,1 12.851231095245387,41.99856678651699" fill="none" id="id123" stroke="none" /><text fill="#e1ed5e" style="font-size:6.75px; font-family:Arial;" text-anchor="middle"><textPath startOffset="22.20632615414155" xlink:href="#id123">March</textPath></text><path d="M 117.84615892207809 88.93136811851018 l 15.626343430719256 -9.69184707160658 a39.38789027251881,39.38789027251881 0 0,0 0.35239820576390485,0.5792499934065295 l -15.790857434769384 9.42142930499297" fill="#ffdf14" stroke="none" /><path d="M 118.21658344932153 89.55222093294921 l 19.63463458924362 -11.261075646889825 a43.63472332894964,43.63472332894964 0 0,0 0.36807418152582094,0.6547628981135702 l -19.825566412061875 10.92142923884146" fill="#eaff1a" stroke="none" /><path d="M 118.73160827565052 90.50648371742162 l 46.11936628701013 -23.37412508017667 a72.70440667853322,72.70440667853322 0 0,0 0.5561540450985583,1.1211726179388521 l -46.514880345062096 22.576792873738867" fill="#3fffbb" stroke="none" /><path d="M 119.04729006885535 91.15688171328212 l 15.773953203846343 -7.3234005218858105 a38.39108377534568,38.39108377534568 0 0,0 0.2731209031096517,0.6017857064544937 l -15.897676423919343 7.050792806589254" fill="#ffd213" stroke="none" /><path d="M 119.34039704204932 91.81776055985345 l 17.4996140905133 -7.403469137031225 a40.00125913143299,40.00125913143299 0 0,0 0.26282410749443885,0.6364494233189895 l -17.624459884893938 7.1011451432589325" fill="#ffe715" stroke="none" /><path d="M 119.85752413597 93.16781622104841 l 23.54638513497319 -8.101374041928224 a45.90109464043127,45.90109464043127 0 0,0 0.25062589191952145,0.7493395165737264 l -23.68234832066448 7.694861422432183" fill="#cfff1d" stroke="none" /><path d="M 120.37134235888165 94.90015583598534 l 10.724782545984972 -2.6848853999855047 a32.05574829080869,32.05574829080869 0 0,0 0.12939409610266076,0.5364220647428058 l -10.769409442348453 2.499878103583293" fill="#ff7e0b" stroke="none" /><path d="M 120.73433829027371 96.67025291283417 l 24.288869657718788 -3.9005726568702577 a45.60007431495231,45.60007431495231 0 0,0 0.11778739477695796,0.7760717635786177 l -24.352412945935047 3.4819017808995576" fill="#d2ff1c" stroke="none" /><line stroke="#e1ed5e" stroke-width="0.3" x1="184.98032266829074" x2="189.97916517819016" y1="98.17113171792111" y2="98.06355123074" /><path d="M 185.9800911702706 98.14961562048488 a86.0,86.0 0 0,1 -9.607161424134198,41.387399972396054" fill="none" id="id124" stroke="none" /><text fill="#e1ed5e" style="font-size:6.75px; font-family:Arial;" text-anchor="middle"><textPath startOffset="21.466115282336823" xlink:href="#id124">April</textPath></text><line stroke="#e1ed5e" stroke-width="0.3" x1="174.80103733775053" x2="179.2010983576182" y1="140.37084112569926" y2="142.7455964860345" /><path d="M 175.68104954172406 140.8457921977663 a86.0,86.0 0 0,1 -30.038265399797805,32.042727171017184" fill="none" id="id125" stroke="none" /><text fill="#e1ed5e" style="font-size:6.75px; font-family:Arial;" text-anchor="middle"><textPath startOffset="22.206326154141568" xlink:href="#id125">May</textPath></text><path d="M 118.48025628344425 109.97397251340804 l 12.293312341312465 6.634819209776592 a34.9694793842679,34.9694793842679 0 0,0 -0.29045248351502007,0.5272556252066375 l -12.177283448345936 -6.845445353381034" fill="#ffa50f" stroke="none" /><path d="M 117.75023020441432 111.22182372390056 l 15.147839129229846 9.57657329221265 a38.92115471464234,38.92115471464234 0 0,0 -0.3628844192798266,0.5632046773283387 l -14.98074984657297 -9.835899569462441" fill="#ffd914" stroke="none" /><path d="M 117.55443506779139 111.5257021239791 l 8.442780508900407 5.543269998033935 a31.09992004882077,31.09992004882077 0 0,0 -0.2976660643708491,0.44497037837244674 l -8.346111339118838 -5.687777290612188" fill="#ff710a" stroke="none" /><path d="M 117.14729908036423 112.12312394758627 l 7.137243383448816 5.046024203352383 a29.740858274528993,29.740858274528993 0 0,0 -0.299136679032085,0.4154746839422601 l -7.049326912041128 -5.168132492745775" fill="#ff5e08" stroke="none" /><path d="M 116.93607887273984 112.41649034213515 l 5.472524456390383 4.0121180097502105 a27.785691921237866,27.785691921237866 0 0,0 -0.2861115630975662,0.3832931944526041 l -5.4026516265977245 -4.105724083712129" fill="#ff4206" stroke="none" /><path d="M 116.498646956653 112.99209946851258 l 12.314231818051296 9.697020918065682 a36.67394398210324,36.67394398210324 0 0,0 -0.39482484898367737,0.4926047062029405 l -12.145489057012766 -9.907553457846873" fill="#ffbc11" stroke="none" /><path d="M 115.80600337817218 113.82643327865902 l 12.68454150272237 11.095908469814175 a37.852797331742295,37.852797331742295 0 0,0 -0.43321832641615493,0.4867253822444965 l -12.491664326657876 -11.312608021799537" fill="#ffcb12" stroke="none" /><path d="M 115.07121518719521 114.62390073753431 l 7.562384594328396 7.337932626725277 a31.537310661971336,31.537310661971336 0 0,0 -0.38139027157826827,0.3863463315274792 l -7.434953697694593 -7.467019452233422" fill="#ff770a" stroke="none" /><path d="M 113.75828350139079 115.86535959552629 l 11.366884551964153 13.107718770260394 a38.34988056955776,38.34988056955776 0 0,0 -0.5024464816110681,0.4281957919725819 l -11.139572593776037 -13.301438952455923" fill="#ffd213" stroke="none" /><path d="M 112.63410532772338 116.77436683061366 l 12.448663265359153 16.52815444760486 a41.691764220051,41.691764220051 0 0,0 -0.5769644424815411,0.42682450127610605 l -12.162313852459047 -16.739988897620737" fill="#fffc17" stroke="none" /><path d="M 112.04921762599082 117.19931262002967 l 20.917171558948173 29.857620962303724 a57.455529012141206,57.455529012141206 0 0,0 -0.8148920836484024,0.5604902057161039 l -20.400122590676887 -30.21325195738492" fill="#4fff2b" stroke="none" /><path d="M 111.1453310114006 117.79835938074945 l 11.00263081395362 17.570476566388244 a41.73112470654113,41.73112470654113 0 0,0 -0.6120978295158761,0.3760004803190855 l -10.698553784505437 -17.757265513535707" fill="#fffc17" stroke="none" /><line stroke="#e1ed5e" stroke-width="0.3" x1="143.8653032363475" x2="146.44561519142675" y1="172.8068346515853" y2="177.08958963109032" /><path d="M 144.38136562736335 173.6633856474863 a86.0,86.0 0 0,1 -40.68145358897372,12.25698825130547" fill="none" id="id126" stroke="none" /><text fill="#e1ed5e" style="font-size:6.75px; font-family:Arial;" text-anchor="middle"><textPath startOffset="21.466115282336833" xlink:href="#id126">June</textPath></text><path d="M 110.5260780823613 118.17145234162733 l 8.405323663462477 14.510336819798477 a37.76899938909778,37.76899938909778 0 0,0 -0.5653681681007316,0.3210308010504079 l -8.154306728440547 -14.652870786643515" fill="#ffca12" stroke="none" /><path d="M 109.89434966115114 118.52300852407294 l 9.392722182415255 17.583922037063434 a40.935334062953665,40.935334062953665 0 0,0 -0.6243790432610042,0.32664560545815585 l -9.088652236627755 -17.742997061466305" fill="#fff316" stroke="none" /><path d="M 109.2508944713604 118.85261126421891 l 4.717476804553427 9.613854813667194 a31.70891179251055,31.70891179251055 0 0,0 -0.4920729840322486,0.23622493556147356 l -4.551291152520946 -9.693634025728228" fill="#ff790b" stroke="none" /><path d="M 108.92500713936063 119.00905698771935 l 8.047997546111285 17.141145278906126 a39.93644966657634,39.93644966657634 0 0,0 -0.624781040518757,0.28680633212724554 l -7.751748509825109 -17.277138681367447" fill="#ffe615" stroke="none" /><path d="M 108.2653958097858 119.30500536409082 l 8.379225458744143 19.57087066979483 a42.28920848839387,42.28920848839387 0 0,0 -0.6716503802924565,0.2807499134347055 l -8.041103618954224 -19.712205626249506" fill="#fbff18" stroke="none" /><path d="M 107.59598834532513 119.57807347666477 l 7.768539505637391 20.022810769759275 a42.47703790498673,42.47703790498673 0 0,0 -0.6839405452176477,0.25860779173521536 l -7.422728739659469 -20.15356681160112" fill="#f8ff18" stroke="none" /><path d="M 107.2578585660854 119.70592522655815 l 5.999437450395695 16.28916638736262 a38.358864920160954,38.358864920160954 0 0,0 -0.6215605432750962,0.22286949675356435 l -5.718157346490864 -16.390023425156144" fill="#ffd213" stroke="none" /><path d="M 106.91757812671514 119.82793768551818 l 5.757422128612605 16.50256854411023 a38.47806276794126,38.47806276794126 0 0,0 -0.6272478811146417,0.21279653713405897 l -5.472504514560737 -16.599228068142413" fill="#ffd313" stroke="none" /><path d="M 105.88484417918355 120.15858648285463 l 3.396269392518503 11.633951245528971 a33.11954897551485,33.11954897551485 0 0,0 -0.548631372143555,0.1550487058984229 l -3.1955068522703423 -11.690688744765913" fill="#ff8d0c" stroke="none" /><path d="M 105.53697534728816 120.25689768951611 l 0.596170872328546 2.181077503287723 a23.261087964755195,23.261087964755195 0 0,0 -0.3871415502040188,0.1022476020836759 l -0.5585388793130298 -2.1910164546749833" fill="#ff0000" stroke="none" /><path d="M 105.18746579009965 120.34920634021253 l 1.3327522569179238 5.228073162075883 a26.39527363220235,26.39527363220235 0 0,0 -0.4412368622327984,0.10844528549729919 l -1.2425621099419142 -5.250239705887212" fill="#ff2e04" stroke="none" /><path d="M 104.83641907484287 120.43548508189849 l 8.414715243421574 35.55498089895205 a57.537160526684566,57.537160526684566 0 0,0 -0.9657471308002233,0.21980090276741693 l -7.8014479632284885 -35.694558535297155" fill="#4eff2b" stroke="none" /><path d="M 104.48393922423573 120.51570834832081 l 1.0323815641302367 4.723533931816228 a25.835037176586678,25.835037176586678 0 0,0 -0.43526936892218193,0.09121492830244608 l -0.9509207337786768 -4.740604840845216" fill="#ff2603" stroke="none" /><path d="M 104.13013068566511 120.58985236759428 l 1.0506502747961597 5.237784393386961 a26.34212049204595,26.34212049204595 0 0,0 -0.4453478988347934,0.08535198474862074 l -0.9603347613896619 -5.25509357648405" fill="#ff2d04" stroke="none" /><path d="M 103.7750983002368 120.6578951692458 l 1.988626842008818 10.882059635477443 a32.06227185648795,32.06227185648795 0 0,0 -0.5437624332681396,0.0945400690095082 l -1.8010154372686284 -10.914678283007957" fill="#ff7e0b" stroke="none" /><path d="M 103.41894727170886 120.7198165907248 l 2.806790541753342 17.009968452845627 a38.23998549628391,38.23998549628391 0 0,0 -0.6503786378763368,0.1015757675240401 l -2.513576040268488 -17.055762527716773" fill="#ffd013" stroke="none" /><path d="M 102.34483914955558 120.86867818915974 l 2.5140855698258506 22.374943162583094 a43.51574355381653,43.51574355381653 0 0,0 -0.7450877579248711,0.07723139258895248 l -2.1285652152953767 -22.414903923627804" fill="#ecff1a" stroke="none" /><path d="M 101.98527174616119 120.90594882070398 l 0.3461995637039918 3.645662300156491 a24.66206331795221,24.66206331795221 0 0,0 -0.42296105905611314,0.036494859902681524 l -0.283394186906337 -3.651081412337836" fill="#ff1502" stroke="none" /><path d="M 101.62511606390274 120.93702456842531 l 1.155548735729767 14.887399618637334 a35.93217868516345,35.93217868516345 0 0,0 -0.6170705581055005,0.04255679852555557 l -0.899115416845336 -14.905084761679174" fill="#ffb210" stroke="none" /><path d="M 100.90346689309514 120.98055641714683 l 0.9184552000255473 21.32861899869154 a42.34838514609008,42.34838514609008 0 0,0 -0.7285528425107525,0.025092832985819748 l -0.5511820058401424 -21.341268630103453" fill="#faff18" stroke="none" /><line stroke="#e1ed5e" stroke-width="0.3" x1="102.19456741930631" x2="102.32365962044197" y1="184.97166512339345" y2="189.96999836594603" /><path d="M 102.22038585953345 185.97133177190398 a86.0,86.0 0 0,1 -42.740103519485714,-10.115201625700543" fill="none" id="id127" stroke="none" /><text fill="#e1ed5e" style="font-size:6.75px; font-family:Arial;" text-anchor="middle"><textPath startOffset="22.20632615414155" xlink:href="#id127">July</textPath></text><path d="M 99.81925306533755 120.99922214144158 l -0.2121653619651616 24.649422547310387 a45.65033561752601,45.65033561752601 0 0,0 -0.7857081648620184,-0.013526678599716315 l 0.6364332167198479 -24.64211839143151" fill="#d2ff1c" stroke="none" /><path d="M 98.73552117531835 120.96189622390904 l -0.5721796394499106 9.485307297733813 a30.502549345951504,30.502549345951504 0 0,0 -0.5238264373965906,-0.036126138033691295 l 0.7353688376254313 -9.474052815183837" fill="#ff6909" stroke="none" /><path d="M 97.65516085044442 120.86867818915974 l -2.8928230778738504 25.745643952492763 a46.90765539157117,46.90765539157117 0 0,0 -0.8016129128090731,-0.09706416017972745 l 3.3355634137343126 -25.692034263587686" fill="#c3ff1e" stroke="none" /><path d="M 96.93821686468263 120.77559828337769 l -2.4802652273051273 16.829733433547265 a38.01151501313265,38.01151501313265 0 0,0 -0.64649285393321,-0.10096888798730669 l 2.7695939448468545 -16.784546238212855" fill="#ffcd13" stroke="none" /><path d="M 95.16358092515715 120.4354850818985 l -3.639670618590696 15.378823356338538 a36.80365179435741,36.80365179435741 0 0,0 -0.6152286224697053,-0.15120822696503575 l 3.903852525803612 -15.313893871059472" fill="#ffbe11" stroke="none" /><path d="M 94.46302465271185 120.25689768951611 l -5.4983059627325925 20.115426630404002 a41.853339228598074,41.853339228598074 0 0,0 -0.693308201351131,-0.1959358229702703 l 5.8437453321883375 -20.01780201409521" fill="#fffe18" stroke="none" /><path d="M 92.06813273071674 119.44442032107085 l -7.873998304410862 19.302558583055934 a41.846789132865794,41.846789132865794 0 0,0 -0.6646237382953422,-0.27781277651003516 l 8.205093502203667 -19.164160763525924" fill="#fffe18" stroke="none" /><path d="M 91.40352486487194 119.15986991738527 l -7.091403049885346 15.805357176261815 a38.32331702316661,38.32331702316661 0 0,0 -0.5995445785934047,-0.2752215102276093 l 7.36241562424617 -15.680948595700132" fill="#ffd113" stroke="none" /><path d="M 90.7491055286396 118.85261126421891 l -7.7015144926486805 15.695094060920818 a38.48282880604937,38.48282880604937 0 0,0 -0.5921702738089597,-0.29692646854104204 l 7.970538674140401 -15.560199751470474" fill="#ffd313" stroke="none" /><path d="M 90.10565033884886 118.52300852407294 l -17.376964785669244 32.531058419257334 a57.881278001711415,57.881278001711415 0 0,0 -0.8747712979825086,-0.4769950593470467 l 17.934358895520393 -32.22712270815052" fill="#4bff2c" stroke="none" /><line stroke="#e1ed5e" stroke-width="0.3" x1="58.666819895761336" x2="56.23545636021788" y1="174.27360380694188" y2="178.64263932499728" /><path d="M 58.180547188652646 175.14741091055294 a86.0,86.0 0 0,1 -31.652253787137756,-30.449443065178592" fill="none" id="id128" stroke="none" /><text fill="#e1ed5e" style="font-size:6.75px; font-family:Arial;" text-anchor="middle"><textPath startOffset="22.20632615414155" xlink:href="#id128">August</textPath></text><path d="M 89.1626897886671 117.98757091392108 l -10.652833654137346 17.68138007045504 a41.642530514900685,41.642530514900685 0 0,0 -0.6107983602877599,-0.3752022401843051 l 10.955611214357415 -17.495389363442357" fill="#fffb17" stroke="none" /><path d="M 87.65650970185807 116.9893568818739 l -8.951727601537423 12.320996027738895 a36.229588640790155,36.229588640790155 0 0,0 -0.5013744273603085,-0.3709048151914591 l 9.162486999316295 -12.165081263807668" fill="#ffb610" stroke="none" /><path d="M 86.51685102203217 116.09983520530335 l -7.6588681342653455 9.145231208400233 a32.92868454412148,32.92868454412148 0 0,0 -0.43141990138053843,-0.3676653994113789 l 7.815153512222941 -9.012041418765902" fill="#ff8a0c" stroke="none" /><path d="M 83.95833913139862 113.55231037782056 l -1.8752815796024052 1.584274734440088 a23.454914955142296,23.454914955142296 0 0,0 -0.2578968421571082,-0.3106533600060439 l 1.9022744216530498 -1.5517601173202829" fill="#ff0300" stroke="none" /><path d="M 83.50135304334701 112.99209946851258 l -12.649164261402282 9.960768341153216 a37.100256596031535,37.100256596031535 0 0,0 -0.3907773256429793,-0.5051323707071602 l 12.81874840426333 -9.741557976332803" fill="#ffc212" stroke="none" /><path d="M 83.28015986056508 112.70617746262583 l -13.640428397262653 10.36599049012904 a38.13228080852912,38.13228080852912 0 0,0 -0.392651242860174,-0.5260205059602513 l 13.816840906817912 -10.12965710465948" fill="#ffcf13" stroke="none" /><path d="M 82.85270091963577 112.12312394758628 l -28.47460192771828 20.13151615948694 a55.872351481104644,55.872351481104644 0 0,0 -0.5484512309063485,-0.7900849035463063 l 28.81691406578676 -19.63838999375362" fill="#60ff29" stroke="none" /><path d="M 82.6465618267979 111.8261652097733 l -7.777367184239732 5.300184799109277 a30.411662936123356,30.411662936123356 0 0,0 -0.2910785623550659,-0.4351229566628614 l 7.867448852005529 -5.165524928240595" fill="#ff6709" stroke="none" /><line stroke="#e1ed5e" stroke-width="0.3" x1="26.63291911575756" x2="22.317208475507996" y1="142.92168965132927" y2="145.44649492493687" /><path d="M 25.769776987707644 143.4266507060508 a86.0,86.0 0 0,1 -11.730757126820373,-40.83630448921669" fill="none" id="id129" stroke="none" /><text fill="#e1ed5e" style="font-size:6.75px; font-family:Arial;" text-anchor="middle"><textPath startOffset="21.46611528233685" xlink:href="#id129">September</textPath></text><path d="M 81.87401531095188 110.60418214915194 l -16.4863028942314 9.644924778191529 a40.100333952507626,40.100333952507626 0 0,0 -0.3434269054753119,-0.5987937572362242 l 16.64988179585909 -9.359711175096997" fill="#ffe815" stroke="none" /><path d="M 81.51974371655577 109.97397251340807 l -5.759917958032854 3.1086832623837495 a27.545270545141296,27.545270545141296 0 0,0 -0.22160496994612128,-0.4191930891246454 l 5.812575436203861 -3.009075158172978" fill="#ff3f05" stroke="none" /><path d="M 81.02952815118164 109.00673069616217 l -13.965185510851029 6.630339298914999 a36.45923043269684,36.45923043269684 0 0,0 -0.26428668201630134,-0.5692500010161133 l 14.077246809707157 -6.388969230620058" fill="#ffb911" stroke="none" /><path d="M 80.73074385275274 108.34839909993369 l -22.161121674205365 9.601298920139525 a45.15160977684111,45.15160977684111 0 0,0 -0.30283618736456797,-0.7158152905662537 l 22.323108842762238 -9.218409103907112" fill="#d8ff1c" stroke="none" /><path d="M 80.45479744820244 107.68017299344265 l -12.37124474059336 4.861208242799011 a34.29206688260016,34.29206688260016 0 0,0 -0.21115049583248488,-0.5512473154355693 l 12.453089516019354 -4.647537360530284" fill="#ff9c0e" stroke="none" /><path d="M 80.32549172779594 107.34259656027581 l -8.39047478737055 3.131355074315473 a29.955749648072022,29.955749648072022 0 0,0 -0.17613372975896105,-0.48464437786979525 l 8.443132778134736 -2.9864628994395606" fill="#ff6108" stroke="none" /><path d="M 80.0844068197444 106.66101706037122 l -18.07725608972221 6.046162428027355 a40.06156519909864,40.06156519909864 0 0,0 -0.2131041556741463,-0.6558671516219553 l 18.178652496412607 -5.734096376427596" fill="#ffe815" stroke="none" /><path d="M 79.86692584326677 105.97154293290107 l -11.981749601433908 3.55383045824148 a33.49768116241515,33.49768116241515 0 0,0 -0.15920548701193715,-0.5542151860862695 l 12.04114772533195 -3.3470577966506148" fill="#ff920d" stroke="none" /><path d="M 79.58551787078972 104.9243191809786 l -36.98855703974299 8.922267033504886 a59.04944416019095,59.04944416019095 0 0,0 -0.2298413403699663,-0.9901504788070682 l 37.13665894604352 -8.284247897349243" fill="#3fff2d" stroke="none" /><path d="M 79.35854240842038 103.8639653848113 l -19.006932549509383 3.5579914411038 a40.33708323498058,40.33708323498058 0 0,0 -0.1218824493771326,-0.6835815034972967 l 19.065361441225704 -3.2302911868732895" fill="#ffeb16" stroke="none" /><path d="M 79.23777060512086 103.15116336523772 l -19.756562003800397 2.9985293595098423 a40.98281563068258,40.98281563068258 0 0,0 -0.09985355494074445,-0.6983755306872464 l 19.80524960975774 -2.6580083568421955" fill="#fff316" stroke="none" /><path d="M 79.1416061653843 102.43462659150553 l -38.10432174218935 4.447600122060205 a59.363009296430775,59.363009296430775 0 0,0 -0.10973025699329067,-1.0159658992916711 l 38.17523430068369 -3.791037900883752" fill="#3cff2e" stroke="none" /><path d="M 79.07016306316243 101.71520430193888 l -19.38129314949577 1.588300830411371 a40.446265031480394,40.446265031480394 0 0,0 -0.05089188149076509,-0.6943792891533512 l 19.405761589650872 -1.2544484047612592" fill="#ffec16" stroke="none" /><path d="M 79.04373962182676 101.35467743843564 l -29.65077143578059 1.9167175045266984 a50.71265812291222,50.71265812291222 0 0,0 -0.048813708421767445,-0.8716015550652588 l 29.679371495089892 -1.4060442331260021" fill="#97ff23" stroke="none" /><path d="M 79.0235259727143 100.99374915477108 l -20.18335692338096 0.9561756593106594 a41.20599338285669,41.20599338285669 0 0,0 -0.027466477195596393,-0.708787731870406 l 20.196825533427756 -0.6086106804262567" fill="#fff617" stroke="none" /><line stroke="#e1ed5e" stroke-width="0.3" x1="15.007084014347285" x2="10.007500721073583" y1="101.09737516637583" y2="101.16192664675087" /><path d="M 14.007167355692545 101.11028546245083 a86.0,86.0 0 0,1 10.666146001902534,-42.60595125391555" fill="none" id="id130" stroke="none" /><text fill="#e1ed5e" style="font-size:6.75px; font-family:Arial;" text-anchor="middle"><textPath startOffset="22.20632615414155" xlink:href="#id130">October</textPath></text><path d="M 79.00175016825051 100.2711162175752 l -20.600015838031446 0.2659744702890349 a41.60173281415891,41.60173281415891 0 0,0 -0.003081901357159926,-0.7161253382200754 l 20.601542036678108 0.08866034613471585" fill="#fffb17" stroke="none" /><path d="M 79.01574976396665 99.18683210126434 l -11.411234115330277 -0.44220065826367994 a32.41979883610243,32.41979883610243 0 0,0 0.026408846661025123,-0.5574490135825183 l 11.401931660435753 0.6385607784692073" fill="#ff830c" stroke="none" /><path d="M 79.03285615573316 98.82574320788736 l -24.13014691799632 -1.3513995574977158 a45.167959596293855,45.167959596293855 0 0,0 0.05015667253914843,-0.7759015243118668 l 24.103309654452758 1.7665601460625941" fill="#d8ff1c" stroke="none" /><path d="M 79.12142395522702 97.74499172005258 l -16.981416703429385 -1.8340922862437057 a38.08017587058076,38.08017587058076 0 0,0 0.07599651087129956,-0.6510916948582157 l 16.9473298395545 2.1261277194267834" fill="#ffce13" stroke="none" /><path d="M 79.3925641242962 95.95851677861259 l -19.116905034304782 -3.7491637196886645 a40.48107509065291,40.48107509065291 0 0,0 0.13998877024767567,-0.6826349597274997 l 19.04953696814211 4.077674335579567" fill="#ffed16" stroke="none" /><path d="M 79.46518482838121 95.60439243477599 l -61.60444551485639 -13.186822695672024 a84.0,84.0 0 0,0 0.31482245199184966,-1.4112873218001631 l 61.3683286758625 14.245288187022146" fill="#4dd2ff" stroke="none" /><path d="M 79.62865764111835 94.90015583598534 l -26.960726416851802 -6.749457195913799 a48.79273180822287,48.79273180822287 0 0,0 0.21097900125023655,-0.81298815556823 l 26.840551083731256 7.212541777030893" fill="#adff20" stroke="none" /><path d="M 80.38941819471856 92.48833698450439 l -41.77341202169685 -16.000942615069803 a65.73307631390003,65.73307631390003 0 0,0 0.4138255559436484,-1.0531409017654472 l 41.491792915871514 16.717632521731012" fill="#36ff6d" stroke="none" /><path d="M 81.10775173730289 90.83032412892265 l -15.62077456629659 -7.581810149665028 a38.36353775002727,38.36353775002727 0 0,0 0.29346277177264957,-0.591603040552593 l 15.487951781570528 7.849572778716582" fill="#ffd213" stroke="none" /><path d="M 81.43458229118936 90.18545643968196 l -6.065942484671383 -3.206739416476352 a27.861401891197186,27.861401891197186 0 0,0 0.22778938329227186,-0.4220591320288778 l 6.009845002160639 3.3106795318377022" fill="#ff4306" stroke="none" /><line stroke="#e1ed5e" stroke-width="0.3" x1="26.266209847984243" x2="21.928928074336255" y1="57.711370442889674" y2="55.22380399835377" /><path d="M 25.398753493254645 57.213857153982495 a86.0,86.0 0 0,1 29.58750427330803,-30.492523968695096" fill="none" id="id131" stroke="none" /><text fill="#e1ed5e" style="font-size:6.75px; font-family:Arial;" text-anchor="middle"><textPath startOffset="21.46611528233685" xlink:href="#id131">November</textPath></text><path d="M 81.78341655067845 89.55222093294921 l -32.964983771610676 -18.906446884118115 a59.00189322710823,59.00189322710823 0 0,0 0.5128678474544507,-0.8766573998550115 l 32.6346562496859 19.471083696327018" fill="#3fff2d" stroke="none" /><path d="M 82.15384107792192 88.93136811851018 l -38.486402379556964 -23.870224525189062 a66.28786578106883,66.28786578106883 0 0,0 0.6097612558406696,-0.9644958722576162 l 38.06981352747033 24.529168045160894" fill="#37ff74" stroke="none" /><path d="M 82.7489923806493 88.02491185347247 l -8.896515639942198 -6.175671667188003 a31.829908174709736,31.829908174709736 0 0,0 0.31630953089825214,-0.44739739952604574 l 8.788893489240067 6.327895567045835" fill="#ff7b0b" stroke="none" /><path d="M 82.95767976084542 87.72973835380427 l -14.185346172369172 -10.21327534245803 a38.47956061378002,38.47956061378002 0 0,0 0.3916438455815539,-0.5342017652350379 l 14.007439714273984 10.455939551364567" fill="#ffd313" stroke="none" /><path d="M 83.84228863543731 86.58626213691792 l -14.601872469486656 -12.12211836172691 a39.97789327588468,39.97789327588468 0 0,0 0.44411515220992187,-0.5256922590865667 l 14.391046703789609 12.371669570442593" fill="#ffe715" stroke="none" /><path d="M 84.31358615837235 86.03803664274999 l -15.502008352936185 -13.797830069554037 a41.75312934481913,41.75312934481913 0 0,0 0.4824601123667233,-0.5327445062246664 l 15.262204599953417 14.062627363048259" fill="#fffd17" stroke="none" /><path d="M 86.10567301691215 84.25364557470407 l -24.102938339774145 -27.315710235631084 a57.429379109283694,57.429379109283694 0 0,0 0.7468723606957529,-0.6476803513928981 l 23.62917218043162 27.726555580443662" fill="#4fff2b" stroke="none" /><path d="M 86.93701828274178 83.55741782278169 l -8.835691871961458 -11.12162543298722 a35.20422483375682,35.20422483375682 0 0,0 0.4777170475461321,-0.3728657330320024 l 8.6429422692559 11.272069555242444" fill="#ffa90f" stroke="none" /><path d="M 87.80319425747018 82.90503203632743 l -6.691093544979447 -9.378195587268143 a32.52047244260066,32.52047244260066 0 0,0 0.45849043887055996,-0.3212018526225185 l 6.528671966525227 9.491982282654604" fill="#ff840c" stroke="none" /><line stroke="#e1ed5e" stroke-width="0.3" x1="56.762969772571076" x2="54.21961505331055" y1="26.818313649435495" y2="22.513508569990535" /><path d="M 56.25429882871897 25.957352633546506 a86.0,86.0 0 0,1 42.265352541879196,-11.944610805530505" fill="none" id="id132" stroke="none" /><text fill="#e1ed5e" style="font-size:6.75px; font-family:Arial;" text-anchor="middle"><textPath startOffset="22.20632615414155" xlink:href="#id132">December</textPath></text></svg>